<?xml version="1.0" encoding="UTF-8" standalone="no"?>
<svg width="39px" height="40px" viewBox="0 0 39 40" version="1.1" xmlns="http://www.w3.org/2000/svg" xmlns:xlink="http://www.w3.org/1999/xlink">
    <!-- Generator: Sketch 41.2 (35397) - http://www.bohemiancoding.com/sketch -->
    <title>Group 6</title>
    <desc>Created with Sketch.</desc>
    <defs>
        <filter x="-50%" y="-50%" width="200%" height="200%" filterUnits="objectBoundingBox" id="filter-1">
            <feOffset dx="0" dy="2" in="SourceAlpha" result="shadowOffsetOuter1"></feOffset>
            <feGaussianBlur stdDeviation="2" in="shadowOffsetOuter1" result="shadowBlurOuter1"></feGaussianBlur>
            <feColorMatrix values="0 0 0 0 0   0 0 0 0 0   0 0 0 0 0  0 0 0 0.5 0" type="matrix" in="shadowBlurOuter1" result="shadowMatrixOuter1"></feColorMatrix>
            <feMerge>
                <feMergeNode in="shadowMatrixOuter1"></feMergeNode>
                <feMergeNode in="SourceGraphic"></feMergeNode>
            </feMerge>
        </filter>
    </defs>
    <g id="Symbols" stroke="none" stroke-width="1" fill="none" fill-rule="evenodd">
        <g id="PIE-PAGINA" transform="translate(-516.000000, -303.000000)" fill="#FFFFFF">
            <g id="Group-6" filter="url(#filter-1)" transform="translate(520.000000, 305.000000)">
                <path d="M17.8839877,15.9162106 C17.8839877,16.6361463 17.1752659,17.2197138 16.3011361,17.2197138 L15.4224556,17.2197138 C14.5483258,17.2197138 13.8396039,16.6361463 13.8396039,15.9162106 L13.8396039,6.90302773 C13.8396039,6.18309202 14.5483258,5.5995245 15.4224556,5.5995245 L16.3011361,5.5995245 C17.1752659,5.5995245 17.8839877,6.18309202 17.8839877,6.90302773 L17.8839877,15.9162106 Z M17.3729245,22.2969905 C16.9259668,22.677754 16.3909629,22.8673077 15.7661322,22.8673077 C15.1403123,22.8673077 14.6001641,22.683459 14.144105,22.3102408 C13.6874523,21.9386789 13.4599174,21.4889031 13.4599174,20.9616496 C13.4599174,20.434028 13.6827038,19.9796514 14.1292658,19.6001761 C14.5762235,19.2201487 15.1112274,19.030411 15.7360581,19.030411 C16.3608887,19.030411 16.9006411,19.2155479 17.3568981,19.5876619 C17.8135508,19.9592238 18.0424707,20.4084475 18.0424707,20.9360691 C18.0424707,21.4635066 17.8181015,21.9175152 17.3729245,22.2969905 L17.3729245,22.2969905 Z M15.4327441,0.13117847 C6.90948375,0.13117847 -5.93569348e-05,6.55778249 -5.93569348e-05,14.4857248 C-5.93569348e-05,21.8260509 5.92514789,27.8757561 13.5687385,28.7324281 L16.0263135,32.3611838 L18.0557271,28.6295538 C25.3291283,27.4705162 30.8655476,21.5812875 30.8655476,14.4857248 C30.8655476,6.55778249 23.9562023,0.13117847 15.4327441,0.13117847 L15.4327441,0.13117847 Z" id="Fill-4"></path>
            </g>
        </g>
    </g>
</svg>