<?xml version="1.0" encoding="utf-8"?>
<!-- Generator: Adobe Illustrator 20.1.0, SVG Export Plug-In . SVG Version: 6.00 Build 0)  -->
<svg version="1.1" id="Layer_1" xmlns="http://www.w3.org/2000/svg" xmlns:xlink="http://www.w3.org/1999/xlink" x="0px" y="0px"
	 viewBox="0 0 117.9 91" style="enable-background:new 0 0 117.9 91;" xml:space="preserve">
<style type="text/css">
	.st0{fill:#FFFFFF;}
</style>
<title>Page 1</title>
<desc>Created with Sketch.</desc>
<g id="Clip-4">
</g>
<g id="Clip-75">
</g>
<path d="M15.9,65.1c-1,0-1.9-0.4-2.6-1.4c-0.9-1.3-0.6-3.1,0.9-4l0,0c1.5-0.9,3.4-0.5,4.4,0.9c0.7,1,0.7,1.8,0.3,2.6l-1.5-0.5
	c0.2-0.5,0.2-0.9-0.1-1.4c-0.5-0.7-1.4-0.8-2.1-0.3l0,0c-0.8,0.5-1,1.3-0.6,1.9c0.3,0.5,0.8,0.6,1.4,0.7L15.9,65.1z M19.6,68.9
	l-1.1,0.9l-2.9-3.3l4.6-3.6l1.1,1.2l-3.5,2.7L19.6,68.9z M24.7,67.7l-4.3,3.9l-1.2-1.1l4.3-3.9L24.7,67.7z M24,66.4l1.8-0.4l0.7,1.3
	l-1.7-0.1L24,66.4z M31.9,72.9l-3.4,4.6l-1.4-0.9l3.4-4.6L31.9,72.9z M34.6,78.4l0.7,1.3c-0.9,0.4-1.8,0.5-3-0.1
	c-1.5-0.8-2.1-2.4-1.3-3.9l0,0c0.8-1.4,2.7-2,4.3-1.2c1.1,0.5,1.5,1.3,1.7,2.1L35.4,77c-0.1-0.5-0.3-0.9-0.8-1.2
	c-0.7-0.4-1.6,0-2,0.7l0,0c-0.4,0.7-0.2,1.6,0.5,1.9C33.6,78.7,34,78.6,34.6,78.4z M39.8,76.6L35.3,81l1.7,0.6l0.8-0.8l2.2,0.7v1.1
	l1.7,0.6l-0.3-6.1L39.8,76.6z M38.6,79.8l1.2-1.3v1.7L38.6,79.8z M50.3,83L50.3,83c-0.2,1.1-1.3,1.7-2.7,1.4c-1.1-0.2-2-0.6-2.6-1.4
	l1.1-0.9c0.5,0.5,1.1,0.9,1.8,1c0.4,0.1,0.7,0,0.8-0.3l0,0c0-0.2-0.1-0.4-0.9-0.7c-1.2-0.5-2.1-1-1.9-2.1l0,0c0.2-1,1.2-1.6,2.6-1.4
	c1,0.2,1.8,0.5,2.3,1.1l-1,0.9c-0.5-0.4-1-0.7-1.6-0.8c-0.4-0.1-0.6,0.1-0.7,0.3l0,0c0,0.3,0.1,0.4,0.9,0.7
	C49.7,81.4,50.5,82,50.3,83z M53.4,79.3l-2.8,5.5l1.8,0.1l0.5-1l2.3,0.1l0.4,1l1.8,0.1L55,79.4L53.4,79.3z M53.4,82.7l0.7-1.6
	l0.6,1.6H53.4z M63.6,78.9l0.6,5.6l-1.5,0.1l-2.9-2.8l0.3,3L58.5,85l-0.6-5.6l1.6-0.1l2.8,2.7L62,79.1L63.6,78.9z M69.5,79l-1.8,0.4
	l1.1,4.1l-1.6,0.4l-1.1-4.1l-1.8,0.4L64,78.8l5.2-1.1L69.5,79z M70.8,77.1l-0.3,6.1l1.7-0.6v-1.1l2.2-0.7l0.8,0.8l1.7-0.6l-4.5-4.5
	L70.8,77.1z M72.2,80.3v-1.7l1.2,1.3L72.2,80.3z M82.4,71.6l3.2,4.7l-1.4,0.8l-1.8-2.7L82.3,77l0,0l-2.6-1l1.8,2.7l-1.4,0.8L77,74.8
	l1.5-0.9L81,75v-2.5L82.4,71.6z M84.6,69.9l2,5.8l1.3-1.1l-0.4-1l1.8-1.4l1,0.5l1.4-1.1L85.8,69L84.6,69.9z M88.1,71.6l-1,0.8
	l-0.6-1.6L88.1,71.6z M93.1,64.8L93.1,64.8c-0.5-0.4-0.9-0.5-1.4-0.5c-0.6,0-1.2,0.3-1.8,1l-1.9,2l4.5,3.7l1.1-1.2l-1.4-1.1l0.5-0.5
	l0,0l2.2,0.3l1.3-1.3l-2.5-0.3C93.9,66.1,93.7,65.4,93.1,64.8z M92,67.1l-0.7,0.8L90.1,67l0.7-0.8c0.4-0.4,0.8-0.5,1.1-0.2l0,0
	C92.3,66.3,92.3,66.7,92,67.1z M92.8,61.8l4.9,3.3l-1,1.3L91.8,63L92.8,61.8z M90.9,61.1l1.3-0.9l0.1,1.5l-0.7,0.9L90.9,61.1z
	 M95.2,58.2l-0.8,1.3l4,4.9l0.9-1.4l-0.7-0.8l1.2-1.9l1.2,0.2l0.9-1.4L95.2,58.2z M97.7,61.1l-1.1-1.3l1.8,0.3L97.7,61.1z
	 M29.7,71.6l-3.8,4.3L24.8,75l0.1-3.9l-2.1,2.4l-1.3-1l3.8-4.3l1.2,0.9l-0.1,3.7l2-2.3L29.7,71.6z M44.5,46.4
	C44.5,46.4,44.5,46.5,44.5,46.4L44.5,46.4L44.5,46.4z M20,52.1h19.9c4,4,9.8,6.5,16.2,6.5s12.1-2.5,16.2-6.5h19.9
	c-5.9,13-19.8,22.2-36.1,22.2S25.9,65.1,20,52.1z"/>
<g>
	<g>
		<polygon id="path-4_1_" class="st0" points="20.1,1.7 95.5,1.7 95.5,32.5 20.1,32.5 		"/>
	</g>
	<path id="Fill-3" d="M29.8,47.9c-0.2,0.4-0.6,0.7-1.1,1s-1,0.4-1.5,0.4s-0.9-0.2-1.3-0.5s-0.6-0.8-0.6-1.4c0-0.4,0.1-0.7,0.2-0.9
		c0.2-0.2,0.4-0.4,0.6-0.6c0.3-0.2,0.6-0.3,0.9-0.4c0.3-0.1,0.7-0.2,1-0.2c0.3-0.1,0.7-0.1,1-0.2c0.3-0.1,0.6-0.1,0.9-0.2L29.8,47.9
		z M29.5,40.3c-0.4-0.1-0.9-0.2-1.5-0.2s-1.2,0.1-1.7,0.2c-0.6,0.2-1.2,0.5-1.8,0.9v1.1h0.2c0.2-0.4,0.6-0.8,1.1-1s1.1-0.4,1.7-0.4
		c0.4,0,0.8,0.1,1.1,0.2c0.3,0.1,0.6,0.3,0.7,0.5c0.2,0.2,0.3,0.5,0.4,0.8s0.1,0.6,0.1,1c0,0.2,0,0.4-0.1,0.5c0,0.1-0.2,0.2-0.4,0.3
		c-0.2,0.1-0.5,0.2-1,0.3c-0.4,0.1-1.1,0.2-1.9,0.3c-1,0.1-1.7,0.4-2.3,0.9c-0.5,0.4-0.8,1.1-0.8,1.9c0,0.4,0.1,0.7,0.2,1.1
		c0.2,0.3,0.4,0.6,0.7,0.8c0.3,0.2,0.6,0.4,0.9,0.5c0.4,0.1,0.7,0.1,1.1,0.1c0.7,0,1.4-0.1,1.9-0.3s1-0.6,1.6-1.1
		c0,0.4,0.2,0.6,0.4,0.9c0.3,0.2,0.6,0.3,1.1,0.3c0.3,0,0.6,0,0.8-0.1c0.2,0,0.5-0.1,0.6-0.2v-0.4c-0.1,0-0.2,0.1-0.2,0.1h-0.2
		c-0.2,0-0.4,0-0.5-0.1s-0.2-0.2-0.2-0.3c-0.1-0.1-0.1-0.3-0.1-0.5v-0.5c0-0.9,0-1.7,0-2.4c0-0.8,0-1.5,0-2.3c0-0.4-0.1-0.9-0.3-1.2
		c-0.2-0.4-0.4-0.7-0.7-1C30.3,40.6,29.9,40.4,29.5,40.3L29.5,40.3z"/>
	<path id="Fill-5" d="M35.4,41.3c-0.5,0.4-0.9,0.9-1.3,1.6c-0.3,0.6-0.5,1.4-0.5,2.3c0,0.9,0.2,1.7,0.5,2.3s0.7,1.2,1.3,1.6
		c0.5,0.4,1.1,0.7,1.7,0.9c0.6,0.2,1.3,0.2,1.9,0.2c0.7,0,1.4-0.1,2-0.3c0.7-0.2,1.2-0.5,1.7-0.8c0-0.3,0.1-0.7,0.1-1L42.7,48
		c-0.2,0.2-0.4,0.4-0.7,0.6c-0.2,0.2-0.5,0.3-0.8,0.5c-0.3,0.1-0.6,0.2-0.9,0.3c-0.3,0.1-0.6,0.1-0.9,0.1c-1.2,0-2.2-0.4-2.8-1.1
		c-0.6-0.7-1-1.8-1-3.2c0-0.6,0.1-1.2,0.2-1.7c0.1-0.5,0.4-1,0.7-1.4s0.7-0.7,1.2-0.9s1.1-0.3,1.7-0.3c0.4,0,0.7,0.1,1,0.2
		c0.3,0.1,0.6,0.2,0.8,0.4c0.2,0.1,0.5,0.3,0.6,0.5c0.2,0.2,0.3,0.4,0.4,0.5h0.2c0.1-0.2,0.1-0.5,0.2-0.7c0.1-0.2,0.2-0.4,0.3-0.6
		c-0.3-0.2-0.7-0.4-1.4-0.6c-0.6-0.2-1.4-0.3-2.2-0.3c-0.7,0-1.4,0.1-2.1,0.3C36.5,40.6,35.9,40.9,35.4,41.3"/>
	<path id="Fill-7" d="M44.3,42.8c-0.3,0.6-0.5,1.4-0.5,2.3c0,0.9,0.2,1.7,0.5,2.3s0.7,1.2,1.3,1.6c0.5,0.4,1.1,0.7,1.7,0.9
		c0.6,0.2,1.3,0.2,1.9,0.2c0.7,0,1.4-0.1,2-0.3c0.7-0.2,1.2-0.5,1.7-0.8c0-0.3,0.1-0.7,0.1-1l-0.1-0.1c-0.2,0.2-0.4,0.4-0.7,0.6
		c-0.3,0.2-0.5,0.3-0.8,0.5c-0.3,0.1-0.6,0.2-0.9,0.3c-0.3,0.1-0.6,0.1-0.9,0.1c-1.2,0-2.2-0.4-2.8-1.1c-0.6-0.7-1-1.8-1-3.2
		c0-0.6,0.1-1.2,0.2-1.7c0.1-0.5,0.4-1,0.7-1.4s0.7-0.7,1.2-0.9s1.1-0.3,1.7-0.3c0.4,0,0.7,0.1,1,0.2c0.3,0.1,0.6,0.2,0.8,0.4
		c0.2,0.1,0.5,0.3,0.6,0.5c0.2,0.2,0.3,0.4,0.4,0.5h0.2c0.1-0.2,0.1-0.5,0.2-0.7c0.1-0.2,0.2-0.4,0.3-0.6c-0.3-0.2-0.7-0.4-1.4-0.6
		c-0.6-0.2-1.4-0.3-2.2-0.3c-0.7,0-1.4,0.1-2.1,0.3c-0.7,0.2-1.3,0.5-1.8,0.9C45.1,41.7,44.7,42.2,44.3,42.8"/>
	<path id="Fill-9" d="M55.4,37.5c0.2,0.2,0.5,0.3,0.8,0.3s0.6-0.1,0.8-0.3s0.3-0.4,0.3-0.7s-0.1-0.5-0.3-0.7s-0.5-0.3-0.8-0.3
		s-0.6,0.1-0.8,0.3s-0.3,0.4-0.3,0.7C55.1,37,55.2,37.3,55.4,37.5"/>
	<path id="Fill-11" d="M57,42.2c0-0.7,0.1-1.3,0.2-1.9c-0.4,0.1-0.7,0.1-1,0.1c-0.2,0-0.6,0-1-0.1c0.1,0.6,0.1,1.2,0.1,1.9
		s0,1.3,0,1.9v2.1c0,0.6,0,1.3,0,1.9c0,0.7-0.1,1.3-0.1,1.8c0.3,0,0.7,0,1,0s0.7,0,1,0c-0.1-0.5-0.1-1.1-0.2-1.8c0-0.7,0-1.3,0-1.9
		v-2.1C57,43.4,57,42.8,57,42.2"/>
	<path id="Fill-13" d="M67.6,44.9c0,0.5-0.1,1.1-0.2,1.6s-0.3,1-0.6,1.5c-0.3,0.4-0.6,0.8-1,1c-0.4,0.3-0.9,0.4-1.5,0.4
		c-0.4,0-0.7-0.1-1.1-0.2c-0.4-0.1-0.7-0.3-1-0.6s-0.5-0.7-0.7-1.3c-0.2-0.5-0.3-1.2-0.3-2c0-0.6,0.1-1.2,0.2-1.7
		c0.1-0.5,0.3-1,0.6-1.4s0.6-0.7,1-0.9s0.9-0.3,1.4-0.3c1.1,0,1.9,0.3,2.4,1C67.3,42.6,67.6,43.6,67.6,44.9L67.6,44.9z M67.5,42.1
		c-0.6-1.4-1.8-2-3.4-2c-0.6,0-1.1,0.1-1.7,0.3c-0.6,0.2-1.1,0.5-1.5,1c-0.4,0.4-0.8,0.9-1.1,1.6c-0.3,0.6-0.4,1.4-0.4,2.3
		c0,0.9,0.1,1.6,0.4,2.3c0.3,0.6,0.6,1.1,1,1.5s0.9,0.7,1.4,0.9s1.1,0.3,1.7,0.3c0.5,0,1-0.1,1.4-0.2c0.4-0.1,0.8-0.3,1.1-0.5
		c0.3-0.2,0.6-0.4,0.7-0.7c0.2-0.3,0.4-0.5,0.5-0.7l0,0l-0.1,1.9c0.3,0,0.6,0,0.8,0c0.3,0,0.6,0,0.9,0c0-0.8,0-1.5,0-2.3
		c0-0.7,0-1.6,0-2.5s0-1.8,0-2.9c0-1,0-2.1,0-3c0-1,0.1-1.9,0.1-2.7s0.1-1.5,0.1-1.9c-0.2,0-0.4,0.1-0.5,0.1s-0.3,0-0.5,0
		s-0.3,0-0.5,0s-0.3-0.1-0.5-0.1c0,0.3,0,0.7,0,1.1c0,0.4,0,0.9,0,1.3c0,0.5,0,1,0,1.5s0,1,0,1.5L67.5,42.1L67.5,42.1z"/>
	<path id="Fill-15" d="M72.8,43.1c0.1-0.4,0.3-0.8,0.6-1.1c0.2-0.4,0.6-0.6,0.9-0.9c0.4-0.2,0.8-0.3,1.4-0.3s1,0.1,1.4,0.3
		s0.6,0.5,0.8,0.9c0.2,0.4,0.3,0.7,0.4,1.1c0.1,0.4,0.1,0.8,0.1,1.2c-0.5,0-1,0-1.5,0s-1,0-1.5,0s-1,0-1.5,0s-1,0-1.4,0
		C72.6,43.9,72.7,43.5,72.8,43.1 M72.6,45c0.5,0,1,0,1.4,0c0.5,0,1,0,1.5,0c0.8,0,1.6,0,2.4,0s1.6,0,2.4,0c0-0.1,0-0.3,0-0.4
		c0-0.1,0-0.3,0-0.4c0-0.6-0.1-1.1-0.3-1.6c-0.2-0.5-0.5-0.9-0.8-1.3c-0.4-0.4-0.9-0.7-1.4-0.9c-0.6-0.2-1.2-0.3-2-0.3
		c-1.6,0-2.9,0.5-3.8,1.4s-1.3,2.3-1.3,3.9c0,0.7,0.1,1.3,0.4,1.9c0.3,0.6,0.6,1.1,1.1,1.5s1.1,0.7,1.7,1c0.7,0.2,1.4,0.3,2.2,0.3
		c0.7,0,1.4-0.1,2-0.3c0.7-0.2,1.2-0.5,1.7-0.8l0.1-1l-0.1-0.1c-0.2,0.2-0.4,0.4-0.7,0.6c-0.2,0.2-0.5,0.3-0.8,0.5
		c-0.3,0.1-0.6,0.2-0.9,0.3s-0.6,0.1-0.9,0.1c-0.6,0-1.2-0.1-1.6-0.3c-0.5-0.2-0.9-0.5-1.2-0.8c-0.3-0.3-0.6-0.7-0.7-1.2
		c-0.2-0.5-0.2-1-0.2-1.5v-0.3C72.5,45.2,72.6,45.1,72.6,45"/>
	<path id="Fill-17" d="M81.8,48.1c0,0.7-0.1,1.3-0.1,1.8c0.3,0,0.7,0,1,0s0.7,0,1,0c-0.1-0.5-0.1-1.1-0.2-1.8c0-0.7,0-1.3,0-1.9
		v-1.7c0-1.1,0.2-1.9,0.7-2.5s1.2-0.9,2.3-0.9c0.7,0,1.3,0.3,1.8,0.8c0.4,0.5,0.6,1.3,0.6,2.3v1.2c0,0.8,0,1.5-0.1,2.3
		c0,0.7-0.1,1.5-0.1,2.2c0.3,0,0.6,0,0.9,0s0.6,0,0.9,0c0-0.2,0-0.4,0-0.6v-0.6v-1.3c0-0.7,0-1.3,0-1.9c0-0.6,0-1.2,0-1.8
		c0-0.7-0.1-1.3-0.3-1.7c-0.2-0.5-0.5-0.8-0.8-1.1s-0.7-0.5-1.1-0.6s-0.8-0.2-1.2-0.2c-0.8,0-1.5,0.2-2,0.5
		c-0.6,0.3-1.1,0.8-1.5,1.3l0,0c0-0.5,0-1.1,0.1-1.6c-0.2,0-0.4,0.1-0.5,0.1s-0.3,0-0.4,0c-0.2,0-0.6,0-1-0.1
		c0.1,0.6,0.1,1.2,0.1,1.9s0,1.3,0,1.9v2.1C81.9,46.8,81.9,47.4,81.8,48.1"/>
	<path id="Fill-19" d="M95,39.1c0-0.5,0.1-1,0.1-1.5H95l-1.8,0.7c0,0.4,0,0.9,0,1.3c0,0.4,0,0.7,0,1c-0.3,0-0.8,0-1.5-0.1
		c0,0.1,0,0.1,0,0.2c0,0.1,0,0.1,0,0.2c0,0.1,0,0.2,0,0.2c0,0.1,0,0.1,0,0.2c0.1,0,0.3,0,0.4,0s0.3,0,0.4,0h0.7c0,0.8,0,1.4,0,2.1
		c0,0.6,0,1.2-0.1,1.7c0,0.5,0,1,0,1.4s0,0.8,0,1.2c0,0.8,0.2,1.4,0.7,1.8c0.4,0.4,1.1,0.6,2,0.6c0.3,0,0.6,0,0.9-0.1
		s0.6-0.1,0.8-0.1v-0.5c-0.1,0-0.3,0.1-0.5,0.1s-0.3,0-0.5,0c-0.4,0-0.8-0.1-1-0.3s-0.4-0.4-0.5-0.7s-0.2-0.6-0.2-1s0-0.7,0-1.1
		v-1.5c0-0.6,0-1.1,0-1.6s0-1,0-1.4s0.1-0.6,0.1-0.6H96c0.2,0,0.5,0,0.7,0s0.4,0,0.6,0c0,0,0-0.1,0-0.2v-0.2v-0.2c0-0.1,0-0.2,0-0.2
		c-0.5,0-1,0-1.4,0.1h-1C95,40,95,39.6,95,39.1"/>
	<path id="Fill-21" d="M103.9,44.3c-0.5,0-1,0-1.5,0s-1,0-1.5,0s-1,0-1.4,0c0-0.4,0.1-0.8,0.2-1.2s0.3-0.8,0.5-1.1
		c0.3-0.4,0.6-0.6,0.9-0.9c0.4-0.2,0.8-0.3,1.4-0.3s1,0.1,1.4,0.3s0.6,0.5,0.8,0.9c0.2,0.4,0.3,0.7,0.4,1.1c0.1,0.4,0.1,0.8,0.1,1.2
		C104.8,44.2,104.4,44.2,103.9,44.3 M106,41.3c-0.4-0.4-0.9-0.7-1.4-0.9c-0.6-0.2-1.2-0.3-2-0.3c-1.6,0-2.9,0.5-3.8,1.4
		s-1.3,2.3-1.3,3.9c0,0.7,0.1,1.3,0.4,1.9c0.3,0.6,0.6,1.1,1.1,1.5s1,0.7,1.7,1c0.7,0.2,1.4,0.3,2.2,0.3c0.7,0,1.4-0.1,2-0.3
		c0.7-0.2,1.2-0.5,1.7-0.8l0.1-1l-0.1-0.1c-0.2,0.2-0.4,0.4-0.7,0.6c-0.2,0.2-0.5,0.3-0.8,0.5c-0.3,0.1-0.6,0.2-0.9,0.3
		s-0.6,0.1-0.9,0.1c-0.6,0-1.2-0.1-1.6-0.3c-0.5-0.2-0.9-0.5-1.2-0.8c-0.3-0.3-0.6-0.7-0.7-1.2c-0.2-0.5-0.2-1-0.2-1.5v-0.3
		c0-0.1,0-0.2,0-0.3c0.5,0,1,0,1.4,0c0.5,0,1,0,1.5,0c0.8,0,1.6,0,2.4,0s1.6,0,2.4,0c0-0.1,0-0.3,0-0.4c0-0.1,0-0.3,0-0.4
		c0-0.6-0.1-1.1-0.3-1.6C106.6,42.1,106.4,41.7,106,41.3"/>
	<g id="Group-25" transform="translate(103.390661, 38.125210)">
		<g id="Clip-24">
		</g>
		<path id="Fill-23" d="M10.8,7.5c-0.3-0.3-0.6-0.6-0.9-0.7C9.5,6.6,9.1,6.4,8.6,6.3C8.2,6.2,7.7,6.1,7.4,6s-0.7-0.4-1-0.6
			S6,4.8,6,4.4c0-0.3,0.1-0.6,0.2-0.8c0.1-0.2,0.3-0.4,0.4-0.5C6.8,3,7,2.9,7.2,2.8c0.3-0.1,0.5-0.1,0.7-0.1c0.5,0,0.9,0.1,1.3,0.4
			c0.3,0.2,0.5,0.5,0.6,0.8h0.3c0-0.2,0.1-0.4,0.2-0.7c0.1-0.3,0.2-0.5,0.3-0.8c-0.3,0-0.7-0.1-1.1-0.3C9.2,2,8.7,1.9,8.2,1.9
			C7.6,1.9,7.1,2,6.6,2.1C6.2,2.3,5.8,2.5,5.5,2.8c-0.3,0.3-0.6,0.6-0.7,1C4.6,4.1,4.5,4.6,4.5,5c0,0.6,0.1,1,0.4,1.3
			c0.3,0.3,0.6,0.6,1,0.8s0.8,0.4,1.2,0.5C7.6,7.7,8,7.8,8.4,8c0.4,0.1,0.7,0.3,0.9,0.5c0.3,0.2,0.4,0.5,0.4,1
			c0,0.3-0.1,0.6-0.2,0.8c-0.1,0.2-0.3,0.4-0.5,0.6c-0.2,0.1-0.4,0.3-0.7,0.3c-0.2,0.1-0.5,0.1-0.8,0.1s-0.6,0-0.9-0.1
			S6.1,11,5.9,10.9s-0.4-0.3-0.6-0.5C5.2,10.2,5,10.1,5,10H4.8c0,0.2-0.1,0.5-0.2,0.8s-0.2,0.5-0.3,0.7c0.3,0.2,0.7,0.3,1.1,0.4
			c0.5,0.1,1,0.2,1.7,0.2c0.6,0,1.2-0.1,1.7-0.2c0.5-0.2,0.9-0.4,1.2-0.7c0.4-0.3,0.6-0.7,0.8-1C11,9.8,11.1,9.4,11.1,9
			C11.2,8.3,11.1,7.8,10.8,7.5"/>
	</g>
	<path id="Fill-26" d="M6.8,26.1c0.4-0.4,0.9-0.7,1.4-0.9c0.6-0.2,1.2-0.3,1.8-0.3c0.4,0,0.8,0.1,1.1,0.2s0.6,0.2,0.9,0.3
		c0.3,0.1,0.5,0.3,0.7,0.4c0.2,0.2,0.4,0.3,0.5,0.4h0.1c0-0.2,0.1-0.4,0.1-0.6c0.1-0.2,0.1-0.4,0.2-0.6c-0.5-0.2-1-0.4-1.6-0.5
		s-1.2-0.2-2-0.2c-0.9,0-1.7,0.1-2.5,0.4c-0.8,0.2-1.4,0.6-2,1.1c-0.5,0.5-1,1-1.3,1.7c-0.2,0.6-0.3,1.4-0.3,2.2
		c0,0.9,0.1,1.6,0.4,2.3c0.3,0.7,0.7,1.2,1.2,1.7s1.2,0.8,1.9,1S8.9,35,9.8,35c0.4,0,0.8,0,1.2-0.1s0.7-0.1,1-0.2
		c0.3-0.1,0.6-0.2,0.8-0.3s0.4-0.2,0.5-0.3l0.1-0.9l-0.1-0.1c-0.2,0.1-0.3,0.2-0.6,0.4c-0.2,0.1-0.5,0.3-0.8,0.4
		c-0.3,0.1-0.6,0.2-0.9,0.3c-0.3,0.1-0.7,0.1-1.1,0.1c-0.6,0-1.2-0.1-1.8-0.3c-0.5-0.2-1-0.5-1.4-0.9s-0.7-0.9-1-1.5
		c-0.2-0.6-0.3-1.3-0.3-2.2c0-0.8,0.1-1.6,0.3-2.2C6.1,27,6.4,26.5,6.8,26.1"/>
	<path id="Fill-28" d="M15.7,30.1c0.1-0.4,0.2-0.7,0.4-1s0.5-0.6,0.8-0.7c0.3-0.2,0.7-0.3,1.2-0.3s0.9,0.1,1.2,0.3
		c0.3,0.2,0.6,0.4,0.8,0.7c0.2,0.3,0.3,0.7,0.4,1c0.1,0.4,0.1,0.8,0.1,1.2s0,0.8-0.1,1.2s-0.2,0.7-0.4,1.1c-0.2,0.3-0.5,0.5-0.8,0.7
		s-0.7,0.3-1.2,0.3s-0.9-0.1-1.2-0.3c-0.3-0.2-0.6-0.4-0.8-0.7c-0.2-0.3-0.3-0.7-0.4-1.1c-0.1-0.4-0.1-0.8-0.1-1.2
		C15.6,30.9,15.6,30.5,15.7,30.1 M15.4,34.3c0.4,0.3,0.8,0.5,1.3,0.6s1,0.2,1.4,0.2c0.5,0,1-0.1,1.4-0.2c0.5-0.1,0.9-0.3,1.3-0.6
		s0.7-0.7,0.9-1.2c0.2-0.5,0.4-1.1,0.4-1.8S22,30,21.7,29.6c-0.2-0.5-0.5-0.9-0.9-1.2c-0.4-0.3-0.8-0.5-1.3-0.7
		c-0.5-0.1-0.9-0.2-1.4-0.2s-0.9,0.1-1.4,0.2s-0.9,0.3-1.3,0.7c-0.4,0.3-0.7,0.7-0.9,1.2s-0.3,1.1-0.3,1.7c0,0.7,0.1,1.3,0.3,1.8
		C14.7,33.6,15,34,15.4,34.3"/>
	<path id="Fill-30" d="M23.4,33.6c0,0.5,0,0.9-0.1,1.3c0.3,0,0.5,0,0.7,0s0.5,0,0.7,0c-0.1-0.4-0.1-0.9-0.1-1.3c0-0.5,0-1,0-1.4
		v-1.3c0-0.8,0.2-1.4,0.5-1.8c0.4-0.4,0.9-0.6,1.7-0.6c0.6,0,1,0.2,1.3,0.6s0.5,1,0.5,1.7v0.8c0,0.6,0,1.2,0,1.7
		c0,0.6,0,1.1-0.1,1.6c0.2,0,0.4,0,0.7,0c0.2,0,0.5,0,0.7,0c0-0.1,0-0.3,0-0.4V34v-1c0-0.5,0-1,0-1.5s0-0.9,0-1.3
		c0-0.5-0.1-1-0.2-1.3c-0.2-0.3-0.4-0.6-0.6-0.8c-0.3-0.2-0.5-0.3-0.9-0.4c-0.3-0.1-0.6-0.1-0.9-0.1c-0.6,0-1.1,0.1-1.5,0.4
		c-0.4,0.2-0.8,0.6-1.1,1l0,0c0-0.4,0-0.8,0-1.2c-0.1,0-0.3,0-0.4,0.1c-0.1,0-0.2,0-0.3,0c-0.2,0-0.4,0-0.7-0.1
		c0.1,0.4,0.1,0.9,0.1,1.4s0,1,0,1.4v1.6C23.4,32.6,23.4,33.1,23.4,33.6"/>
	<path id="Fill-32" d="M37.2,27.7c-0.2,0.5-0.4,1-0.6,1.5c-0.2,0.5-0.4,1-0.6,1.5c-0.2,0.5-0.4,1-0.6,1.5c-0.2,0.5-0.4,0.9-0.6,1.3
		c-0.5-1-0.9-2-1.3-2.9c-0.4-1-0.8-1.9-1.1-2.9c-0.1,0-0.2,0-0.4,0.1c-0.1,0-0.2,0-0.4,0c-0.1,0-0.3,0-0.4,0s-0.3,0-0.4-0.1
		c0.6,1.2,1.2,2.4,1.7,3.6c0.5,1.2,1,2.4,1.5,3.6c0.2,0,0.3,0,0.5,0s0.3,0,0.5,0c0.5-1.2,1-2.4,1.6-3.6c0.6-1.2,1.1-2.4,1.7-3.6
		c-0.2,0-0.4,0.1-0.5,0.1C37.6,27.8,37.4,27.8,37.2,27.7"/>
	<path id="Fill-34" d="M43,30.7c-0.4,0-0.7,0-1.1,0c-0.3,0-0.7,0-1.1,0c-0.4,0-0.7,0-1,0c0-0.3,0.1-0.6,0.2-0.9
		c0.1-0.3,0.2-0.6,0.4-0.8c0.2-0.3,0.4-0.5,0.7-0.6c0.3-0.2,0.6-0.3,1-0.3s0.8,0.1,1,0.3c0.3,0.2,0.5,0.4,0.6,0.6
		c0.2,0.3,0.3,0.5,0.3,0.8c0.1,0.3,0.1,0.6,0.1,0.9C43.8,30.7,43.4,30.7,43,30.7 M44.6,28.5c-0.3-0.3-0.6-0.5-1.1-0.7
		c-0.4-0.2-0.9-0.3-1.5-0.3c-1.2,0-2.2,0.4-2.8,1.1s-1,1.7-1,2.9c0,0.5,0.1,1,0.3,1.4c0.2,0.4,0.5,0.8,0.8,1.1
		c0.4,0.3,0.8,0.6,1.3,0.7c0.5,0.2,1,0.2,1.6,0.2c0.5,0,1-0.1,1.5-0.3s0.9-0.4,1.2-0.6l0.1-0.7h-0.1c-0.1,0.2-0.3,0.3-0.5,0.4
		c-0.2,0.1-0.4,0.2-0.6,0.3c-0.2,0.1-0.4,0.2-0.7,0.2c-0.2,0-0.5,0.1-0.7,0.1c-0.5,0-0.9-0.1-1.2-0.2c-0.3-0.2-0.6-0.3-0.9-0.6
		c-0.2-0.3-0.4-0.5-0.6-0.9c-0.1-0.3-0.2-0.7-0.2-1.1v-0.2c0-0.1,0-0.2,0-0.2c0.4,0,0.7,0,1.1,0c0.4,0,0.7,0,1.1,0
		c0.6,0,1.2,0,1.8,0s1.2,0,1.8,0c0-0.1,0-0.2,0-0.3c0-0.1,0-0.2,0-0.3c0-0.4-0.1-0.8-0.2-1.2C45.1,29.1,44.9,28.8,44.6,28.5"/>
	<path id="Fill-36" d="M46.7,33.6c0,0.5,0,0.9-0.1,1.3c0.3,0,0.5,0,0.7,0s0.5,0,0.7,0c-0.1-0.4-0.1-0.9-0.1-1.3c0-0.5,0-1,0-1.4
		v-1.3c0-0.8,0.2-1.4,0.5-1.8c0.4-0.4,0.9-0.6,1.7-0.6c0.6,0,1,0.2,1.3,0.6s0.5,1,0.5,1.7v0.8c0,0.6,0,1.2,0,1.7
		c0,0.6,0,1.1-0.1,1.6c0.2,0,0.4,0,0.7,0c0.2,0,0.5,0,0.7,0c0-0.1,0-0.3,0-0.4V34v-1c0-0.5,0-1,0-1.5s0-0.9,0-1.3
		c0-0.5-0.1-1-0.2-1.3c-0.2-0.3-0.4-0.6-0.6-0.8c-0.3-0.2-0.5-0.3-0.9-0.4c-0.3-0.1-0.6-0.1-0.9-0.1c-0.6,0-1.1,0.1-1.5,0.4
		c-0.4,0.2-0.8,0.6-1.1,1l0,0c0-0.4,0-0.8,0-1.2c-0.1,0-0.3,0-0.4,0.1c-0.1,0-0.2,0-0.3,0c-0.2,0-0.4,0-0.7-0.1
		c0.1,0.4,0.1,0.9,0.1,1.4s0,1,0,1.4v1.6C46.7,32.6,46.7,33.1,46.7,33.6"/>
	<path id="Fill-38" d="M56.7,29.1c0-0.5,0.1-1,0.1-1.4c-0.3,0-0.6,0.1-0.7,0.1c-0.2,0-0.4,0-0.7-0.1c0.1,0.4,0.1,0.9,0.1,1.4
		s0,1,0,1.4v1.6c0,0.5,0,0.9,0,1.4s0,0.9-0.1,1.3c0.3,0,0.5,0,0.7,0s0.5,0,0.7,0c-0.1-0.4-0.1-0.9-0.1-1.3c0-0.5,0-1,0-1.4v-1.5
		C56.7,30.1,56.7,29.6,56.7,29.1"/>
	<path id="Fill-40" d="M56.7,24.6c-0.2-0.2-0.4-0.2-0.6-0.2c-0.2,0-0.4,0.1-0.6,0.2c-0.2,0.2-0.2,0.3-0.2,0.5s0.1,0.4,0.2,0.5
		c0.2,0.2,0.4,0.2,0.6,0.2c0.2,0,0.4-0.1,0.6-0.2c0.2-0.2,0.2-0.3,0.2-0.5S56.9,24.7,56.7,24.6"/>
	<path id="Fill-42" d="M64.7,32.6c-0.1,0.4-0.2,0.7-0.4,1.1c-0.2,0.3-0.5,0.5-0.8,0.7s-0.7,0.3-1.2,0.3s-0.9-0.1-1.2-0.3
		s-0.6-0.4-0.8-0.7S60,33,59.9,32.6s-0.1-0.8-0.1-1.2c0-0.4,0-0.8,0.1-1.2c0.1-0.4,0.2-0.7,0.4-1s0.5-0.6,0.8-0.7
		c0.3-0.2,0.7-0.3,1.2-0.3s0.9,0.1,1.2,0.3c0.3,0.2,0.6,0.4,0.8,0.7c0.2,0.3,0.3,0.7,0.4,1c0.1,0.4,0.1,0.8,0.1,1.2
		C64.9,31.8,64.8,32.2,64.7,32.6 M65,28.4c-0.4-0.3-0.8-0.5-1.3-0.7c-0.5-0.1-0.9-0.2-1.4-0.2s-0.9,0.1-1.4,0.2S60,28,59.6,28.4
		c-0.4,0.3-0.7,0.7-0.9,1.2s-0.3,1.1-0.3,1.7c0,0.7,0.1,1.3,0.3,1.8s0.6,0.9,0.9,1.2c0.4,0.3,0.8,0.5,1.3,0.6s1,0.2,1.4,0.2
		c0.5,0,1-0.1,1.4-0.2c0.5-0.1,0.9-0.3,1.3-0.6s0.7-0.7,0.9-1.2c0.2-0.5,0.4-1.1,0.4-1.8s-0.1-1.3-0.4-1.7
		C65.7,29.1,65.4,28.7,65,28.4"/>
	<path id="Fill-44" d="M84.3,13.1c5.5,0,9.9,4.1,9.9,9.1s-4.4,9.1-9.9,9.1s-9.9-4.1-9.9-9.1C74.4,17.2,78.8,13.1,84.3,13.1 M57,17.7
		c6.4,0,12.3,2.5,16.4,6.5c1,4.8,5.5,8.4,11,8.4c6.2,0,11.2-4.6,11.2-10.3c0-5.6-4.8-10.1-10.8-10.3C77.5,5.6,67.7,1.7,57,1.7
		c-16.6,0-30.8,9.2-36.9,22.5h20.4C44.7,20.2,50.5,17.7,57,17.7"/>
	<path id="Fill-47" d="M78.4,24.1h3.8v4.2H86c0.3,0,0.5-0.1,0.7-0.3c0.1-0.1,0.1-0.2,0.1-0.4c-1-4.5-4.8-7.8-9.2-7.8v3.4
		C77.5,23.7,77.9,24.1,78.4,24.1"/>
	<path id="Fill-49" d="M91.5,24.1L91.5,24.1v-3.5c0-0.4-0.4-0.8-0.9-0.8h-3.7v-4.2h-3.8c-0.5,0-0.9,0.4-0.9,0.8v3.4
		C85.5,19.8,89.3,21.2,91.5,24.1"/>
</g>
</svg>
