<?xml version="1.0" encoding="UTF-8" standalone="no"?>
<svg width="108px" height="56px" viewBox="0 0 108 56" version="1.1" xmlns="http://www.w3.org/2000/svg" xmlns:xlink="http://www.w3.org/1999/xlink">
    <!-- Generator: Sketch 41.2 (35397) - http://www.bohemiancoding.com/sketch -->
    <title>la dehesa</title>
    <desc>Created with Sketch.</desc>
    <defs>
        <filter x="-50%" y="-50%" width="200%" height="200%" filterUnits="objectBoundingBox" id="filter-1">
            <feOffset dx="0" dy="2" in="SourceAlpha" result="shadowOffsetOuter1"></feOffset>
            <feGaussianBlur stdDeviation="2" in="shadowOffsetOuter1" result="shadowBlurOuter1"></feGaussianBlur>
            <feColorMatrix values="0 0 0 0 0   0 0 0 0 0   0 0 0 0 0  0 0 0 0.5 0" type="matrix" in="shadowBlurOuter1" result="shadowMatrixOuter1"></feColorMatrix>
            <feMerge>
                <feMergeNode in="shadowMatrixOuter1"></feMergeNode>
                <feMergeNode in="SourceGraphic"></feMergeNode>
            </feMerge>
        </filter>
        <path d="M13.5692308,0 L27.1384615,8.38095238 L0,8.38095238 L13.5692308,0 Z M83.8830089,0 L97.4522397,8.38095238 L70.3137781,8.38095238 L83.8830089,0 Z M0,12.1549174 L26.8565502,12.1549174 L26.8565502,8.38100342 L0,8.38100342 L0,12.1549174 Z" id="path-2"></path>
        <filter x="-50%" y="-50%" width="200%" height="200%" filterUnits="objectBoundingBox" id="filter-3">
            <feOffset dx="0" dy="2" in="SourceAlpha" result="shadowOffsetOuter1"></feOffset>
            <feGaussianBlur stdDeviation="2" in="shadowOffsetOuter1" result="shadowBlurOuter1"></feGaussianBlur>
            <feColorMatrix values="0 0 0 0 0   0 0 0 0 0   0 0 0 0 0  0 0 0 0.5 0" type="matrix" in="shadowBlurOuter1"></feColorMatrix>
        </filter>
    </defs>
    <g id="Page-1" stroke="none" stroke-width="1" fill="none" fill-rule="evenodd">
        <g id="MENU_5" transform="translate(-756.000000, -223.000000)">
            <g id="la-dehesa" filter="url(#filter-1)" transform="translate(762.000000, 225.000000)">
                <g id="Combined-Shape">
                    <use fill="black" fill-opacity="1" filter="url(#filter-3)" xlink:href="#path-2"></use>
                    <use fill="#FFFFFF" fill-rule="evenodd" xlink:href="#path-2"></use>
                </g>
                <polygon id="Fill-2" fill="#FEFEFE" points="28.5890012 12.1549174 68.5813272 12.1549174 68.5813272 8.38100342 28.5890012 8.38100342"></polygon>
                <polygon id="Fill-3" fill="#FEFEFE" points="70.3137781 12.1549174 97.319248 12.1549174 97.319248 8.38100342 70.3137781 8.38100342"></polygon>
                <path d="M70.3137781,47.467095 L97.319248,47.467095 L97.319248,14.5395166 L70.3137781,14.5395166 L70.3137781,47.467095 Z M85.1036886,24.4387676 L90.3520658,24.4387676 L90.3520658,17.2885429 L85.1036886,17.2885429 L85.1036886,24.4387676 Z M76.4438068,24.4387676 L81.6927773,24.4387676 L81.6927773,17.2885429 L76.4438068,17.2885429 L76.4438068,24.4387676 Z M85.1036886,34.4339743 L90.3520658,34.4339743 L90.3520658,27.2801768 L85.1036886,27.2801768 L85.1036886,34.4339743 Z M76.4438068,34.4339743 L81.6927773,34.4339743 L81.6927773,27.2801768 L76.4438068,27.2801768 L76.4438068,34.4339743 Z M76.4438068,46.185475 L90.4434348,46.185475 L90.4434348,39.0352503 C90.4434348,39.0352503 88.3818359,36.9259673 83.4436208,36.9259673 C78.5054056,36.9259673 76.4438068,39.0352503 76.4438068,39.0352503 L76.4438068,46.185475 Z M76.5357313,46.185475 L90.3520658,46.185475 L90.3520658,47.467095 L76.5357313,47.467095 L76.5357313,46.185475 Z" id="Combined-Shape" fill="#FEFEFE"></path>
                <path d="M0,47.467095 L26.8565502,47.467095 L26.8565502,14.5395166 L0,14.5395166 L0,47.467095 Z M15.4728046,24.4387676 L20.7217751,24.4387676 L20.7217751,17.2885429 L15.4728046,17.2885429 L15.4728046,24.4387676 Z M6.96658889,24.4387676 L12.2155594,24.4387676 L12.2155594,17.2885429 L6.96658889,17.2885429 L6.96658889,24.4387676 Z M15.4728046,34.4339743 L20.7217751,34.4339743 L20.7217751,27.2801768 L15.4728046,27.2801768 L15.4728046,34.4339743 Z M6.96658889,34.4339743 L12.2155594,34.4339743 L12.2155594,27.2801768 L6.96658889,27.2801768 L6.96658889,34.4339743 Z M7.07872356,46.185475 L20.7217751,46.185475 L20.7217751,39.0352503 C20.7217751,39.0352503 19.2094576,36.5691964 13.9002494,36.5691964 C8.59104107,36.5691964 7.07872356,39.0352503 7.07872356,39.0352503 L7.07872356,46.185475 Z M7.07872356,46.185475 L20.7217751,46.185475 L20.7217751,47.467095 L7.07872356,47.467095 L7.07872356,46.185475 Z" id="Combined-Shape" fill="#FEFEFE"></path>
                <path d="M28.5890012,14.5395676 L28.5890012,47.467146 L37.4246788,47.467146 L37.4246788,39.0353013 L42.8941406,39.0353013 L46.1410532,39.0353013 L51.3752779,39.0353013 L54.0972957,39.0353013 L59.5587585,39.0353013 L59.5587585,47.467146 L68.5813272,47.467146 L68.5813272,14.5395676 L28.5890012,14.5395676 Z M44.2350509,19.4225857 L47.1570787,19.4225857 L47.1570787,16.9088547 L50.1621692,16.9088547 L50.1621692,19.4225857 L53.0836037,19.4225857 L53.0836037,22.0072625 L50.1621692,22.0072625 L50.1621692,24.5209934 L47.1570787,24.5209934 L47.1570787,22.0072625 L44.2350509,22.0072625 L44.2350509,19.4225857 Z M53.9011782,34.4340253 L59.1501487,34.4340253 L59.1501487,27.2802278 L53.9011782,27.2802278 L53.9011782,34.4340253 Z M46.0256458,34.4340253 L51.2746164,34.4340253 L51.2746164,27.2802278 L46.0256458,27.2802278 L46.0256458,34.4340253 Z M37.5194301,34.4340253 L42.7684006,34.4340253 L42.7684006,27.2802278 L37.5194301,27.2802278 L37.5194301,34.4340253 Z" id="Fill-6" fill="#FEFEFE"></path>
            </g>
        </g>
    </g>
</svg>