<?xml version="1.0" encoding="UTF-8" standalone="no"?>
<svg width="62px" height="59px" viewBox="0 0 62 59" version="1.1" xmlns="http://www.w3.org/2000/svg" xmlns:xlink="http://www.w3.org/1999/xlink">
    <!-- Generator: Sketch 41.2 (35397) - http://www.bohemiancoding.com/sketch -->
    <title>Page 1</title>
    <desc>Created with Sketch.</desc>
    <defs>
        <filter x="-50%" y="-50%" width="200%" height="200%" filterUnits="objectBoundingBox" id="filter-1">
            <feOffset dx="0" dy="2" in="SourceAlpha" result="shadowOffsetOuter1"></feOffset>
            <feGaussianBlur stdDeviation="2" in="shadowOffsetOuter1" result="shadowBlurOuter1"></feGaussianBlur>
            <feColorMatrix values="0 0 0 0 0   0 0 0 0 0   0 0 0 0 0  0 0 0 0.5 0" type="matrix" in="shadowBlurOuter1" result="shadowMatrixOuter1"></feColorMatrix>
            <feMerge>
                <feMergeNode in="shadowMatrixOuter1"></feMergeNode>
                <feMergeNode in="SourceGraphic"></feMergeNode>
            </feMerge>
        </filter>
        <polygon id="path-2" points="1.2903154e-20 0.222364119 1.2903154e-20 36.07667 22.3351547 36.07667 22.3351547 0.222364119 0 0.222364119"></polygon>
        <polygon id="path-4" points="35.9992752 0.0651937136 35.9992752 23.2065696 0.181944217 23.2065696 0.181944217 0.0651937136 35.9992752 0.0651937136"></polygon>
    </defs>
    <g id="Page-1" stroke="none" stroke-width="1" fill="none" fill-rule="evenodd">
        <g id="MENU_4" transform="translate(-375.000000, -225.000000)">
            <g id="Page-1" filter="url(#filter-1)" transform="translate(379.000000, 227.000000)">
                <path d="M32.3159972,19.563649 L31.6526322,19.563649 L30.5175091,18.4222207 L38.3948201,6.50576685 C39.0353351,6.8194144 39.6608547,7.16631673 40.2628103,7.54168897 L32.3159972,19.563649 Z M35.977239,19.563649 L42.7303758,9.34749503 C42.9476892,9.53195137 43.1578619,9.71736469 43.3585137,9.90229952 C43.6608006,10.1802999 43.9633256,10.4769612 44.260376,10.7860631 L38.4581337,19.563649 L35.977239,19.563649 Z M47.362744,19.563649 L48.6730506,17.644681 C48.9220208,18.2746078 49.1405242,18.9162575 49.3264188,19.563649 L47.362744,19.563649 Z M42.1193755,19.563649 L46.2959331,13.2450025 C46.5832247,13.6526726 46.8583772,14.0739795 47.1182963,14.5043776 L43.6641329,19.563649 L42.1193755,19.563649 Z M22.6689988,5.45501165 L20.5882176,8.44196033 L19.1555682,7.00219604 C20.0833747,6.48638816 21.0542631,6.03996075 22.0501437,5.67248353 C22.2538899,5.59712199 22.4604922,5.5248706 22.6689988,5.45501165 L22.6689988,5.45501165 Z M29.2529026,4.39157658 C29.448318,4.39157658 29.6461136,4.3944475 29.8455754,4.40018933 L24.5067603,12.3813353 L22.7775364,10.6425173 L27.0528729,4.5068917 C27.7826458,4.43033394 28.5219396,4.39157658 29.2529026,4.39157658 L29.2529026,4.39157658 Z M26.7041718,14.5897873 L33.2654637,4.7813034 C34.0183246,4.92867708 34.7664252,5.11887526 35.4981023,5.34902701 L28.3177174,16.2116155 L26.7041718,14.5897873 Z M29.7874982,23.323831 C29.9305489,23.4671376 30.1242982,23.5482409 30.3266162,23.5482409 L53.2040218,23.5482409 C53.420383,23.5482409 53.6262714,23.4558932 53.7709882,23.2944041 C53.9154671,23.1326759 53.9849693,22.9166395 53.9618812,22.7008423 C53.3082751,16.5388999 50.4448803,10.8846312 45.8981997,6.77898234 C41.3479488,2.6702233 35.4366929,0.40698465 29.2529026,0.40698465 C23.6015658,0.40698465 18.0678114,2.3663847 13.6715602,5.92536336 C13.5030412,6.06197111 13.4002161,6.26365294 13.388553,6.48088558 C13.377128,6.69859669 13.4578172,6.91008749 13.6108648,7.06392073 L29.7874982,23.323831 Z" id="Fill-1" fill="#FFFFFF"></path>
                <g id="Group-5" transform="translate(0.010602, 9.218017)">
                    <mask id="mask-3" fill="white">
                        <use xlink:href="#path-2"></use>
                    </mask>
                    <g id="Clip-4"></g>
                    <path d="M17.5209294,17.0353207 L9.40559731,30.2979949 C8.14075276,28.9017728 7.07322777,27.3533922 6.22896665,25.6877826 C4.72610093,22.7247582 3.96419513,19.5224908 3.96419513,16.1695004 C3.96419513,13.6785024 4.39287128,11.2425303 5.23879855,8.92952913 C5.6046371,7.92829723 6.04830858,6.95242509 6.56148224,6.02009518 L17.5209294,17.0353207 Z M22.1118819,16.0147102 L6.62336774,0.446690579 C6.47008211,0.293096582 6.25919534,0.211753967 6.04307211,0.223476873 C5.8271869,0.235199779 5.62629703,0.338552749 5.49038693,0.507936783 C1.95005992,4.92651549 -4.76042333e-05,10.4884364 -4.76042333e-05,16.1692611 C-4.76042333e-05,23.949443 3.51005072,31.146829 9.63052732,35.9158987 C9.76524731,36.0206871 9.92971994,36.07667 10.0977629,36.07667 C10.1429869,36.07667 10.188687,36.0726028 10.234149,36.0639901 C10.447178,36.0252327 10.6335486,35.8972377 10.7468467,35.7118244 L22.2223237,16.9580452 C22.4070282,16.6561206 22.3613281,16.2659153 22.1118819,16.0147102 L22.1118819,16.0147102 Z" id="Fill-3" fill="#FFFFFF" mask="url(#mask-3)"></path>
                </g>
                <g id="Group-8" transform="translate(17.967200, 27.161241)">
                    <mask id="mask-5" fill="white">
                        <use xlink:href="#path-4"></use>
                    </mask>
                    <g id="Clip-7"></g>
                    <path d="M35.2368934,0.0651937136 L12.7346091,0.0651937136 C12.4699296,0.0651937136 12.2238157,0.203236916 12.0852873,0.430039267 L0.294908241,19.6986693 C0.18161016,19.8838434 0.151857512,20.1092103 0.213266976,20.3178302 C0.274438419,20.5259716 0.421297487,20.698705 0.616236833,20.7920098 C3.9616245,22.3942201 7.55145993,23.2066893 11.2860122,23.2066893 C17.4695644,23.2066893 23.3808204,20.9434506 27.9313093,16.8344523 C32.4775138,12.7288034 35.3413847,7.07453471 35.9949908,0.91259237 C36.0180789,0.696795196 35.9485767,0.48075878 35.8038598,0.319030522 C35.6591429,0.157541506 35.4530166,0.0651937136 35.2368934,0.0651937136" id="Fill-6" fill="#FFFFFF" mask="url(#mask-5)"></path>
                </g>
            </g>
        </g>
    </g>
</svg>