<?xml version="1.0" encoding="UTF-8" standalone="no"?>
<svg width="43px" height="32px" viewBox="0 0 43 32" version="1.1" xmlns="http://www.w3.org/2000/svg" xmlns:xlink="http://www.w3.org/1999/xlink">
    <!-- Generator: Sketch 41.2 (35397) - http://www.bohemiancoding.com/sketch -->
    <title>Group 2</title>
    <desc>Created with Sketch.</desc>
    <defs>
        <filter x="-50%" y="-50%" width="200%" height="200%" filterUnits="objectBoundingBox" id="filter-1">
            <feOffset dx="0" dy="2" in="SourceAlpha" result="shadowOffsetOuter1"></feOffset>
            <feGaussianBlur stdDeviation="2" in="shadowOffsetOuter1" result="shadowBlurOuter1"></feGaussianBlur>
            <feColorMatrix values="0 0 0 0 0   0 0 0 0 0   0 0 0 0 0  0 0 0 0.5 0" type="matrix" in="shadowBlurOuter1" result="shadowMatrixOuter1"></feColorMatrix>
            <feMerge>
                <feMergeNode in="shadowMatrixOuter1"></feMergeNode>
                <feMergeNode in="SourceGraphic"></feMergeNode>
            </feMerge>
        </filter>
    </defs>
    <g id="Page-1" stroke="none" stroke-width="1" fill="none" fill-rule="evenodd">
        <g id="MENU_5" transform="translate(-1044.000000, -448.000000)" fill="#FFFFFF">
            <g id="Group-2" filter="url(#filter-1)" transform="translate(1048.000000, 450.000000)">
                <path d="M16.680441,0.857831934 C16.680441,0.857831934 12.2296984,-1.07228992 9.16298752,0.857831934 C6.0962766,2.78795378 0.124065098,1.14444134 0.124065098,1.14444134 L0,18.4077386 C0,18.4077386 6.66014133,18.643015 9.39774543,16.4776168 C12.1353495,14.3122186 16.7391304,17.1278351 16.7391304,17.1278351 L16.680441,0.857831934 Z" id="Path-9"></path>
                <path d="M18.319559,0.857831934 C18.319559,0.857831934 22.7703016,-1.07228992 25.8370125,0.857831934 C28.9037234,2.78795378 34.8759349,1.14444134 34.8759349,1.14444134 L35,18.4077386 C35,18.4077386 28.3398587,18.643015 25.6022546,16.4776168 C22.8646505,14.3122186 18.2608696,17.1278351 18.2608696,17.1278351" id="Path-9-Copy"></path>
                <path d="M16.840803,19.9951847 C16.840803,19.9951847 14.7037522,18.3602197 11.9903735,18.8372216 C9.27699475,19.3142234 8.90567257,20.470961 6.10947856,20.8408219 C3.31328455,21.2106828 0,20.470961 0,20.470961 L1.15454989,23.7318396 L16.840803,23.7318396 L16.840803,19.9951847 Z" id="Path-10"></path>
                <path d="M34.4388625,20.1044132 C34.4388625,20.1044132 32.2827244,18.2978125 30.3120045,18.8576042 C28.3412846,19.417396 25.8196487,21.2955341 24.0626502,21.2955341 C22.3056517,21.2955341 18.2608696,21.1077584 18.2608696,21.1077584 L19.2752772,23.8410681 L34.4388625,23.8410681 L34.4388625,20.1044132 Z" id="Path-10-Copy" transform="translate(26.349866, 21.295534) scale(-1, 1) translate(-26.349866, -21.295534) "></path>
            </g>
        </g>
    </g>
</svg>