<?xml version="1.0" encoding="UTF-8" standalone="no"?>
<svg width="38px" height="38px" viewBox="0 0 38 38" version="1.1" xmlns="http://www.w3.org/2000/svg" xmlns:xlink="http://www.w3.org/1999/xlink">
    <!-- Generator: Sketch 43.2 (39069) - http://www.bohemiancoding.com/sketch -->
    <title>Group 23</title>
    <desc>Created with Sketch.</desc>
    <defs></defs>
    <g id="Page-1" stroke="none" stroke-width="1" fill="none" fill-rule="evenodd">
        <g id="RESERVA-DE-HORA---Paso-4-" transform="translate(-194.000000, -685.000000)" fill="#3D7DDA">
            <g id="Group-23" transform="translate(194.000000, 685.000000)">
                <path d="M27.884754,33.2782173 L33.6303839,33.2782173 L33.6303839,27.1361736 L27.884754,27.1361736 L27.884754,33.2782173 Z M4.21697603,33.2782173 L9.85718147,33.2782173 L9.85718147,27.1361736 L4.21697603,27.1361736 L4.21697603,33.2782173 Z M4.21697603,16.6218276 L9.85718147,16.6218276 L9.85718147,10.3756815 L4.21697603,10.3756815 L4.21697603,16.6218276 Z M12.0710939,16.6218276 L17.7640115,16.6218276 L17.7640115,10.3756815 L12.0710939,10.3756815 L12.0710939,16.6218276 Z M19.977924,33.2782173 L25.6708416,33.2782173 L25.6708416,27.1361736 L19.977924,27.1361736 L19.977924,33.2782173 Z M19.977924,24.9500225 L25.6708416,24.9500225 L25.6708416,18.8079788 L19.977924,18.8079788 L19.977924,24.9500225 Z M12.0710939,33.2782173 L17.7640115,33.2782173 L17.7640115,27.1361736 L12.0710939,27.1361736 L12.0710939,33.2782173 Z M12.0710939,24.9500225 L17.7640115,24.9500225 L17.7640115,18.8079788 L12.0710939,18.8079788 L12.0710939,24.9500225 Z M4.21697603,24.9500225 L9.85718147,24.9500225 L9.85718147,18.8079788 L4.21697603,18.8079788 L4.21697603,24.9500225 Z M19.977924,16.6218276 L25.6708416,16.6218276 L25.6708416,10.3756815 L19.977924,10.3756815 L19.977924,16.6218276 Z M27.884754,16.6218276 L33.6303839,16.6218276 L33.6303839,10.3756815 L27.884754,10.3756815 L27.884754,16.6218276 Z M27.884754,24.9500225 L33.6303839,24.9500225 L33.6303839,18.8079788 L27.884754,18.8079788 L27.884754,24.9500225 Z M35.2117499,4.44184271 L30.608288,4.44184271 L30.608288,6.14204369 C30.608288,7.20014084 29.6944693,9.19578452 27.1467832,9.1262441 C24.3178248,9.19578452 23.7204902,6.81850131 23.7204902,5.76040416 L23.7204902,4.44184271 L14.0214453,4.44184271 L14.0214453,6.38501877 C14.0214453,7.44311592 13.1078374,9.43875961 10.5599405,9.36921918 C7.73119301,9.43875961 7.1336475,7.06147639 7.1336475,6.00337924 L7.1336475,4.44184271 L2.53018562,4.44184271 C1.13289061,4.44184271 0,5.56052748 0,6.94030116 L0,34.8397538 C0,36.2195275 1.13289061,37.3382123 2.53018562,37.3382123 L35.2117499,37.3382123 C36.6090449,37.3382123 37.7419355,36.2195275 37.7419355,34.8397538 L37.7419355,6.94030116 C37.7419355,5.56052748 36.6090449,4.44184271 35.2117499,4.44184271 L35.2117499,4.44184271 Z" id="Fill-1"></path>
                <path d="M12.6509281,6.05584687 C12.6509281,7.15766704 11.7147594,8.05065774 10.5599405,8.05065774 C9.40512164,8.05065774 8.46916381,7.15766704 8.46916381,6.05584687 L8.46916381,2.16845373 C8.46916381,1.06663355 9.40512164,0.173642862 10.5599405,0.173642862 C11.7147594,0.173642862 12.6509281,1.06663355 12.6509281,2.16845373 L12.6509281,6.05584687 Z" id="Fill-3"></path>
                <path d="M29.3430897,5.88220401 C29.3430897,6.98402418 28.4069211,7.87701487 27.2521022,7.87701487 C26.0972833,7.87701487 25.1613255,6.98402418 25.1613255,5.88220401 L25.1613255,1.99481087 C25.1613255,0.89299069 26.0972833,0 27.2521022,0 C28.4069211,0 29.3430897,0.89299069 29.3430897,1.99481087 L29.3430897,5.88220401 Z" id="Fill-4"></path>
            </g>
        </g>
    </g>
</svg>