<?xml version="1.0" encoding="UTF-8" standalone="no"?>
<svg width="48px" height="50px" viewBox="0 0 48 50" version="1.1" xmlns="http://www.w3.org/2000/svg" xmlns:xlink="http://www.w3.org/1999/xlink">
    <!-- Generator: Sketch 41.2 (35397) - http://www.bohemiancoding.com/sketch -->
    <title>Page 1</title>
    <desc>Created with Sketch.</desc>
    <defs>
        <filter x="-50%" y="-50%" width="200%" height="200%" filterUnits="objectBoundingBox" id="filter-1">
            <feOffset dx="0" dy="2" in="SourceAlpha" result="shadowOffsetOuter1"></feOffset>
            <feGaussianBlur stdDeviation="2" in="shadowOffsetOuter1" result="shadowBlurOuter1"></feGaussianBlur>
            <feColorMatrix values="0 0 0 0 0   0 0 0 0 0   0 0 0 0 0  0 0 0 0.5 0" type="matrix" in="shadowBlurOuter1" result="shadowMatrixOuter1"></feColorMatrix>
            <feMerge>
                <feMergeNode in="shadowMatrixOuter1"></feMergeNode>
                <feMergeNode in="SourceGraphic"></feMergeNode>
            </feMerge>
        </filter>
    </defs>
    <g id="Page-1" stroke="none" stroke-width="1" fill="none" fill-rule="evenodd">
        <g id="MENU_5" transform="translate(-207.000000, -439.000000)" fill="#FFFFFF">
            <g id="Page-1" filter="url(#filter-1)" transform="translate(211.000000, 441.000000)">
                <path d="M9.69394985,14.1394077 C9.48168778,20.5570928 12.948331,25.8089462 18.9342126,25.8089462 C24.9200941,25.8089462 30.3116122,22.2090693 28.1741561,14.1394077 L9.69394985,14.1394077 Z" id="Fill-1"></path>
                <path d="M29.5519013,7.90696667 C28.251446,4.51699231 29.5519013,1.35658205 22.4316406,1.35658205 C22.3462455,0.573838462 18.6321601,0.591069231 18.5309643,1.35658205 C9.6468573,1.35658205 9.6468573,6.40465897 9.6468573,11.6695564 C9.6468573,11.6695564 33.1360094,11.6035051 36.1853773,11.6035051 C37.1950277,11.6035051 38.0134713,10.7762487 38.0134713,9.75514615 C38.0138263,8.73440256 37.1952053,9.75514615 36.1853773,9.75514615 L29.5519013,7.90696667 Z" id="Fill-3"></path>
                <path d="M39.8899794,38.6402872 C39.8862512,38.6241333 39.8803925,38.6085179 39.8761316,38.5923641 C39.8745338,38.2520564 39.8734685,38.0289538 39.8731135,37.9490821 C39.8471931,32.7759026 35.6562651,28.5545436 30.5336252,28.5545436 L9.34765494,28.5545436 C4.22394983,28.5545436 0.0340870194,32.7689026 0.0083442183,37.9489026 C0.00798914518,38.0219538 0.00710146239,38.2138256 0.00568116991,38.5056718 C0.00426087743,38.7896205 0.00230797528,39.1708513 0,39.6323128 C0.272518619,40.8253641 1.40786492,41.7271077 2.78324065,41.7739538 L2.78324065,41.8504154 L17.8805946,41.8504154 L30.3289256,41.9101846 L30.3289256,41.8504154 L31.1601517,41.8504154 L31.9998997,41.9101846 L36.937724,41.9101846 C36.9588508,41.9107231 36.9792675,41.9130564 37.0005719,41.9130564 C37.0247169,41.9130564 37.0483293,41.9107231 37.0722967,41.9101846 C38.4469623,41.8800308 39.5876347,40.9953385 39.8823454,39.8148513 C39.8862512,39.7986974 39.8919323,39.7830821 39.8956606,39.7669282 C39.8933526,39.3054667 39.8913997,38.9242359 39.8899794,38.6402872" id="Fill-5"></path>
            </g>
        </g>
    </g>
</svg>