<?xml version="1.0" encoding="UTF-8" standalone="no"?>
<svg width="28px" height="32px" viewBox="0 0 28 32" version="1.1" xmlns="http://www.w3.org/2000/svg" xmlns:xlink="http://www.w3.org/1999/xlink">
    <!-- Generator: Sketch 41.2 (35397) - http://www.bohemiancoding.com/sketch -->
    <title>telefono icono</title>
    <desc>Created with Sketch.</desc>
    <defs></defs>
    <g id="Symbols" stroke="none" stroke-width="1" fill="none" fill-rule="evenodd">
        <g id="PIE-PAGINA" transform="translate(-216.000000, -75.000000)" fill="#FFFFFF">
            <g id="Group-6" transform="translate(215.000000, 59.000000)">
                <path d="M28.3839187,43.1098624 C29.5191222,41.8091084 28.80962,40.1772533 28.4312188,39.3022006 L28.2893184,38.9474495 C27.8163169,37.7412958 21.7618983,35.7073896 21.2652468,35.6600894 L20.8631955,35.6837395 C20.0117929,35.8256399 18.3562878,37.5993954 16.3696817,39.2312504 C14.2411752,38.1433471 12.230919,36.487842 10.8592148,34.855987 C9.41656032,33.0822315 8.49420749,31.2611759 7.87930559,29.0853692 C10.1733627,27.2170135 11.923468,25.7034088 12.0180683,24.781056 C12.0653685,24.2607544 11.261266,17.9461849 10.1733627,17.2603328 L9.86591171,17.0474822 C9.1800596,16.5744807 8.11580632,15.8413284 6.95695276,16.030529 C6.64950181,16.0778292 6.36570094,16.1960795 6.10555014,16.33798 C5.30144766,16.8109814 2.487089,18.7975875 1.54108609,20.5003928 C0.949834271,21.5882961 -0.540120313,30.4570734 6.64950181,39.1839503 C12.7512206,46.6100731 19.704342,47.3432254 22.4004503,47.2486251 C22.5896509,47.8871771 27.8636171,43.7011142 28.3839187,43.1098624 Z" id="telefono-icono"></path>
            </g>
        </g>
    </g>
</svg>