<?xml version="1.0" encoding="UTF-8" standalone="no"?>
<svg width="43px" height="60px" viewBox="0 0 43 60" version="1.1" xmlns="http://www.w3.org/2000/svg" xmlns:xlink="http://www.w3.org/1999/xlink">
    <!-- Generator: Sketch 41.2 (35397) - http://www.bohemiancoding.com/sketch -->
    <title>Page 1</title>
    <desc>Created with Sketch.</desc>
    <defs>
        <filter x="-50%" y="-50%" width="200%" height="200%" filterUnits="objectBoundingBox" id="filter-1">
            <feOffset dx="0" dy="2" in="SourceAlpha" result="shadowOffsetOuter1"></feOffset>
            <feGaussianBlur stdDeviation="2" in="shadowOffsetOuter1" result="shadowBlurOuter1"></feGaussianBlur>
            <feColorMatrix values="0 0 0 0 0   0 0 0 0 0   0 0 0 0 0  0 0 0 0.5 0" type="matrix" in="shadowBlurOuter1" result="shadowMatrixOuter1"></feColorMatrix>
            <feMerge>
                <feMergeNode in="shadowMatrixOuter1"></feMergeNode>
                <feMergeNode in="SourceGraphic"></feMergeNode>
            </feMerge>
        </filter>
        <polygon id="path-2" points="34.9489669 51.7682211 0 51.7682211 0 0.261358794 34.9489669 0.261358794 34.9489669 51.7682211"></polygon>
    </defs>
    <g id="Page-1" stroke="none" stroke-width="1" fill="none" fill-rule="evenodd">
        <g id="MENU_4" transform="translate(-779.000000, -224.000000)">
            <g id="Page-1" transform="translate(783.000000, 226.000000)">
                <g id="Group-2" filter="url(#filter-1)">
                    <mask id="mask-3" fill="white">
                        <use xlink:href="#path-2"></use>
                    </mask>
                    <g id="Clip-2"></g>
                    <path d="M5.68613603,9.47842412 C5.68613603,7.57950955 7.20734926,6.03466533 9.07753309,6.03466533 C10.9479743,6.03466533 12.4691875,7.57950955 12.4691875,9.47842412 C12.4691875,11.3773387 10.9479743,12.9224442 9.07753309,12.9224442 C7.20734926,12.9224442 5.68613603,11.3773387 5.68613603,9.47842412 L5.68613603,9.47842412 Z M31.0073493,36.9339015 L21.1731213,31.3134593 C20.4180478,30.8499015 19.1832684,30.7801327 18.5079743,30.7801327 C17.8324228,30.7801327 16.5976434,30.8499015 15.8433419,31.3134593 L6.00834191,36.932595 C5.07389338,34.5996503 4.5460625,32.1303035 4.5460625,29.8004945 C4.5460625,28.384997 4.74113603,27.0358714 5.11764338,25.771409 L31.8931581,25.771409 C32.2694081,27.0280322 32.4701434,28.3779417 32.4701434,29.8004945 C32.4701434,32.1305648 31.9417978,34.6004342 31.0073493,36.9339015 L31.0073493,36.9339015 Z M2.47848897,9.47842412 C2.47848897,5.78381106 5.43881985,2.7777407 9.07753309,2.7777407 C12.7165037,2.7777407 15.6768346,5.78381106 15.6768346,9.47842412 C15.6768346,13.1732985 12.7165037,16.1793688 9.07753309,16.1793688 C5.43881985,16.1793688 2.47848897,13.1732985 2.47848897,9.47842412 L2.47848897,9.47842412 Z M30.5155478,15.7576201 C30.9875331,15.7576201 31.371761,16.1474894 31.371761,16.6264643 C31.371761,17.1057005 30.9875331,17.4955698 30.5155478,17.4955698 L17.5910257,17.4955698 C17.1190404,17.4955698 16.7353272,17.1054392 16.7353272,16.626203 C16.7353272,16.1474894 17.1190404,15.7576201 17.5910257,15.7576201 L30.5155478,15.7576201 Z M34.3202537,25.2480121 L34.3202537,15.2457206 C34.3202537,8.39112764 28.8278272,2.81458492 22.0772022,2.81458492 L15.3394449,2.81458492 C13.7093713,1.23472563 11.504114,0.261358794 9.07753309,0.261358794 C4.07227574,0.261358794 -7.72058775e-05,4.39601206 -7.72058775e-05,9.47842412 C-7.72058775e-05,12.0368764 1.03242279,14.354404 2.69595221,16.0259819 L2.69595221,25.1907859 C2.28006985,26.6433889 2.06723897,28.1874492 2.06723897,29.8004945 C2.06723897,33.4760322 3.21503309,37.4779417 5.20745956,40.9436503 L7.79617279,47.9840322 C9.18768015,51.7682734 13.100989,51.7682734 15.2038199,51.7682734 L21.812386,51.7682734 C23.9149596,51.7682734 27.8285257,51.7682734 29.2202904,47.9840322 L31.808489,40.9441729 C33.8011728,37.4784643 34.9489669,33.4762935 34.9489669,29.8004945 C34.9484522,28.2195899 34.731761,26.6922533 34.3202537,25.2480121 L34.3202537,25.2480121 Z" id="Fill-1" fill="#FFFFFF" mask="url(#mask-3)"></path>
                    <path d="M13.8998125,29.7620824 C13.8998125,30.6774392 13.0919816,31.4195497 12.095511,31.4195497 C11.0990404,31.4195497 10.2914669,30.6774392 10.2914669,29.7620824 C10.2914669,28.8467256 11.0990404,28.1046151 12.095511,28.1046151 C13.0919816,28.1046151 13.8998125,28.8467256 13.8998125,29.7620824" id="Fill-4" fill="#FFFFFF" mask="url(#mask-3)"></path>
                    <path d="M26.866489,29.8737126 C26.866489,30.7890693 26.0586581,31.5311799 25.0621875,31.5311799 C24.0657169,31.5311799 23.2581434,30.7890693 23.2581434,29.8737126 C23.2581434,28.9583558 24.0657169,28.2162452 25.0621875,28.2162452 C26.0586581,28.2162452 26.866489,28.9583558 26.866489,29.8737126" id="Fill-6" fill="#FFFFFF" mask="url(#mask-3)"></path>
                </g>
            </g>
        </g>
    </g>
</svg>