<?xml version="1.0" encoding="UTF-8" standalone="no"?>
<svg width="130px" height="61px" viewBox="0 0 130 61" version="1.1" xmlns="http://www.w3.org/2000/svg" xmlns:xlink="http://www.w3.org/1999/xlink">
    <!-- Generator: Sketch 41.2 (35397) - http://www.bohemiancoding.com/sketch -->
    <title>Page 1</title>
    <desc>Created with Sketch.</desc>
    <defs>
        <filter x="-50%" y="-50%" width="200%" height="200%" filterUnits="objectBoundingBox" id="filter-1">
            <feOffset dx="0" dy="2" in="SourceAlpha" result="shadowOffsetOuter1"></feOffset>
            <feGaussianBlur stdDeviation="2" in="shadowOffsetOuter1" result="shadowBlurOuter1"></feGaussianBlur>
            <feColorMatrix values="0 0 0 0 0   0 0 0 0 0   0 0 0 0 0  0 0 0 0.5 0" type="matrix" in="shadowBlurOuter1" result="shadowMatrixOuter1"></feColorMatrix>
            <feMerge>
                <feMergeNode in="shadowMatrixOuter1"></feMergeNode>
                <feMergeNode in="SourceGraphic"></feMergeNode>
            </feMerge>
        </filter>
    </defs>
    <g id="Page-1" stroke="none" stroke-width="1" fill="none" fill-rule="evenodd">
        <g id="MENU_6" transform="translate(-890.000000, -252.000000)" fill="#FEFEFE">
            <g id="Page-1" filter="url(#filter-1)" transform="translate(894.000000, 254.000000)">
                <path d="M114.970421,48.7590139 L118.365594,48.7590139 L118.365594,32.8653052 L114.970421,32.8653052 L114.970421,48.7590139 Z M112.009504,48.7590139 C110.736206,48.7590139 109.796617,48.1751275 109.312088,47.5896413 C108.371633,48.3015029 107.099201,48.7590139 104.886315,48.7590139 C102.946464,48.7590139 101.340322,47.4120759 101.340322,45.7587974 C101.340322,43.216092 104.613279,42.3258651 108.675005,41.740379 L108.675005,40.5710065 C108.675005,39.7063746 107.826429,38.892133 106.795829,38.892133 C105.462723,38.892133 104.007401,39.4776191 103.218632,40.4182362 L102.583283,38.8417428 C103.553209,38.1298813 105.038001,37.6203804 106.795829,37.6203804 C110.221339,37.6203804 112.100516,38.7913526 112.100516,40.9517324 L112.100516,46.6994145 C112.100516,47.1065353 112.463696,47.4120759 112.949092,47.4120759 C113.190923,47.4120759 113.403284,47.3352908 113.555837,47.2081155 L114.374077,47.9199771 C113.858343,48.3518931 113.070441,48.7590139 112.009504,48.7590139 L112.009504,48.7590139 Z M98.7451863,48.7590139 C97.0792372,48.7590139 95.4418919,47.5128563 95.4418919,45.9883528 L95.4418919,38.892133 L92.9863072,38.892133 L92.9863072,37.6203804 L93.7447388,37.6203804 C95.8354095,37.6203804 97.5334294,36.1974571 97.5334294,34.4425984 L98.8665353,34.4425984 L98.8665353,37.6203804 L101.503277,37.6203804 L101.503277,38.892133 L98.8665353,38.892133 L98.8665353,46.6994145 C98.8665353,47.1065353 99.2305825,47.4120759 99.7159787,47.4120759 C99.95781,47.4120759 100.169304,47.3352908 100.321857,47.2081155 L101.140096,47.9199771 C100.62523,48.3518931 99.8364609,48.7590139 98.7451863,48.7590139 L98.7451863,48.7590139 Z M87.0826761,48.7590139 C83.4153346,48.7590139 80.4448833,46.2666987 80.4448833,43.190497 C80.4448833,40.1390905 83.4153346,37.6203804 87.0826761,37.6203804 C90.7508844,37.6203804 93.720469,40.1390905 93.720469,43.190497 C93.720469,46.2666987 90.7508844,48.7590139 87.0826761,48.7590139 L87.0826761,48.7590139 Z M78.9141517,48.7590139 L75.1245944,48.7590139 L75.1245944,34.4425984 L70.3963155,34.4425984 L70.3963155,32.8661051 L83.6727679,32.8661051 L83.6727679,34.4425984 L78.9141517,34.4425984 L78.9141517,48.7590139 Z M64.4302763,27.1824106 C64.4302763,24.87166 66.6795675,22.9648309 69.4567271,22.9648309 C72.2347535,22.9648309 74.4840448,24.87166 74.4840448,27.1824106 C74.4840448,29.5131572 72.2347535,31.4007901 69.4567271,31.4007901 C66.6795675,31.4007901 64.4302763,29.5131572 64.4302763,27.1824106 L64.4302763,27.1824106 Z M64.4268091,25.4683439 C64.2213825,25.3531663 63.7611229,25.1796001 63.2098516,25.1796001 C62.337872,25.1796001 61.5109649,25.5835215 61.0533056,26.2585902 L61.0533056,31.3999902 L58.4815726,31.3999902 L58.4815726,22.9656307 L61.0533056,22.9656307 L61.0533056,24.8908563 C61.7866006,23.8310624 62.8198011,22.9656307 64.4268091,22.9656307 L64.4268091,25.4683439 Z M61.2682668,48.7590139 L60.3286785,48.7590139 L57.8427566,47.7168166 C57.1753368,48.3518931 56.0545917,48.7590139 54.6296072,48.7590139 C50.9622656,48.7590139 47.9918143,46.2666987 47.9918143,43.190497 C47.9918143,40.1390905 50.9622656,37.6203804 54.6296072,37.6203804 C56.296423,37.6203804 57.3885644,38.1546764 57.8427566,38.7401626 L57.8427566,32.8661051 L61.2682668,32.8661051 L61.2682668,48.7590139 Z M47.7049105,30.8025064 C47.7049105,33.1532492 45.4547525,35.020886 42.6784597,35.020886 C41.277745,35.020886 40.0841904,34.7129459 39.2581501,34.1354582 L39.7400792,32.9212943 C40.4057654,33.7115406 41.3696235,34.0578733 42.6784597,34.0578733 C44.1467831,34.0578733 45.111508,32.9028979 45.111508,31.2848126 L45.111508,30.552955 C44.7673968,30.9960688 43.9413565,31.4007901 42.6784597,31.4007901 C39.9004333,31.4007901 37.651142,29.5131572 37.651142,27.1832104 C37.651142,24.87166 39.9004333,22.9656307 42.6784597,22.9656307 C43.7567326,22.9656307 44.7673968,23.2919673 45.111508,23.812666 L45.111508,22.9656307 L47.7049105,22.9656307 L47.7049105,30.8025064 Z M46.4550153,48.7590139 L43.0598424,48.7590139 L43.0598424,46.92817 C42.0292423,48.1487326 40.634595,48.7590139 38.9677792,48.7590139 C36.7254222,48.7590139 34.9060532,47.2081155 34.9060532,45.3268814 L34.9060532,37.6203804 L38.3012262,37.6203804 L38.3012262,45.3268814 C38.3012262,46.1907134 39.1498027,46.9033748 40.2098733,46.9033748 C41.242207,46.9033748 42.3022776,46.3178887 43.0598424,45.2500964 L43.0598424,37.6203804 L46.4550153,37.6203804 L46.4550153,48.7590139 Z M29.5805637,48.7590139 L32.9757366,48.7590139 L32.9757366,32.8653052 L29.5805637,32.8653052 L29.5805637,48.7590139 Z M26.6187801,48.7590139 C25.3472155,48.7590139 24.4067604,48.1751275 23.922231,47.5896413 C22.9826426,48.3015029 21.7084776,48.7590139 19.4964579,48.7590139 C17.5566067,48.7590139 15.9504654,47.4120759 15.9504654,45.7587974 C15.9504654,43.216092 19.2234225,42.3258651 23.2851485,41.740379 L23.2851485,40.5710065 C23.2851485,39.7063746 22.4365719,38.892133 21.4059718,38.892133 C20.0728659,38.892133 18.6175441,39.4776191 17.8296421,40.4182362 L17.1925596,38.8417428 C18.1624852,38.1298813 19.6481442,37.6203804 21.4059718,37.6203804 C24.8306153,37.6203804 26.7106587,38.7913526 26.7106587,40.9517324 L26.7106587,46.6994145 C26.7106587,47.1065353 27.0738391,47.4120759 27.5592352,47.4120759 C27.8010666,47.4120759 28.0142942,47.3352908 28.1659805,47.2081155 L28.983353,47.9199771 C28.4684863,48.3518931 27.6805843,48.7590139 26.6187801,48.7590139 L26.6187801,48.7590139 Z M9.59870958,48.7590139 C6.71927006,48.7590139 4.62773257,48.0735472 2.93057947,47.0049551 L4.02185411,45.0717311 C5.08192471,46.3690787 6.6889328,47.1577253 8.62878399,47.1577253 C10.204588,47.1577253 11.2655254,46.1907134 11.2655254,44.9701508 C11.2655254,44.2334941 10.8113333,43.5208327 10.0537685,43.1401068 L5.62799542,40.9013422 C4.2030109,40.1894807 3.23308531,38.7145675 3.23308531,37.2396544 C3.23308531,35.0520799 5.20327376,32.8661051 8.44676042,32.8661051 C10.8720078,32.8661051 12.8421962,33.4499915 14.1146277,34.3666132 L13.2972552,36.095077 C12.5691609,35.180055 11.2655254,34.4425984 9.53803506,34.4425984 C8.08358006,34.4425984 6.96196816,35.4088105 6.96196816,36.5781831 C6.96196816,37.4172199 7.38582304,38.0786912 8.23526637,38.5114071 L12.3568001,40.6725867 C13.7817846,41.4100433 14.8123847,42.7577811 14.8123847,44.3854646 C14.8123847,46.7761996 12.3880041,48.7590139 9.59870958,48.7590139 L9.59870958,48.7590139 Z M23.1585988,27.1448179 L19.8076315,25.4499475 C18.727625,24.9100525 17.9934633,23.7934697 17.9934633,22.676087 C17.9934633,21.0196092 19.4860565,19.3639313 21.9407744,19.3639313 C23.7783457,19.3639313 25.2700722,19.8062452 26.2347971,20.5005102 L25.6150502,21.8090557 C25.0637788,21.1163904 24.0773844,20.558099 22.7685482,20.558099 C21.6660055,20.558099 20.8174289,21.2899566 20.8174289,22.1753844 C20.8174289,22.8112608 21.1381371,23.3119634 21.7812871,23.6390997 L24.9034247,25.2763813 C25.9825644,25.8346727 26.7617987,26.856074 26.7617987,28.0878345 C26.7617987,29.8986822 24.9259609,31.3999902 22.8144875,31.3999902 C20.6336718,31.3999902 19.0492,30.8808912 17.7646336,30.0714486 L18.5906739,28.6085332 C19.394178,29.5899423 20.6102688,30.1866262 22.079459,30.1866262 C23.2738803,30.1866262 24.0773844,29.4555684 24.0773844,28.5309483 C24.0773844,27.9734567 23.7324064,27.4335617 23.1585988,27.1448179 L23.1585988,27.1448179 Z M32.2043034,22.9656307 C34.981463,22.9656307 37.231621,24.87166 37.231621,27.1832104 C37.231621,27.3951692 37.184815,27.6639169 37.184815,27.6639169 L29.771255,27.6639169 C29.9316091,29.2812023 30.7351131,30.4369775 32.2043034,30.4369775 C33.5356758,30.4369775 34.4761309,30.0906449 35.1435507,29.3011985 L35.6246129,30.5145625 C34.7977059,31.0920501 33.6050181,31.4007901 32.2043034,31.4007901 C29.426277,31.4007901 27.1769857,29.5515498 27.1769857,27.1832104 C27.1769857,24.87166 29.426277,22.9656307 32.2043034,22.9656307 L32.2043034,22.9656307 Z M48.7199086,22.9648309 L51.2907749,22.9648309 L51.2907749,28.8004958 C51.2907749,29.4555684 51.9339248,29.9938637 52.7374288,29.9938637 C53.5183966,29.9938637 54.3201671,29.5515498 54.8948415,28.742907 L54.8948415,22.9648309 L57.4657078,22.9648309 L57.4657078,31.4007901 L54.8948415,31.4007901 L54.8948415,30.0138598 C54.1138737,30.93848 53.0572703,31.4007901 51.796107,31.4007901 C50.0972203,31.4007901 48.7199086,30.2250188 48.7199086,28.8004958 L48.7199086,22.9648309 Z M99.3458641,1.14907407 C108.603063,1.14907407 116.134505,8.09892231 116.134505,16.6420607 C116.134505,25.185199 108.603063,32.1350473 99.3458641,32.1350473 C90.0877986,32.1350473 82.5563567,25.185199 82.5563567,16.6420607 C82.5563567,8.09892231 90.0877986,1.14907407 99.3458641,1.14907407 L99.3458641,1.14907407 Z M117.488413,17.6586629 L117.173773,17.6586629 C117.196309,17.3219284 117.211911,16.9843941 117.211911,16.6420607 C117.211911,7.55182872 109.196806,0.155667284 99.3458641,0.155667284 C89.4949218,0.155667284 81.4798173,7.55182872 81.4798173,16.6420607 C81.4798173,16.9843941 81.4945525,17.3219284 81.5170888,17.6586629 L4.34342909,17.6586629 C1.94418508,17.6586629 0,19.5270995 0,21.833051 L0,47.9375737 C0,50.2427253 1.94418508,52.1119617 4.34342909,52.1119617 L117.488413,52.1119617 C119.887657,52.1119617 121.832709,50.2427253 121.832709,47.9375737 L121.832709,21.833051 C121.832709,19.5270995 119.887657,17.6586629 117.488413,17.6586629 L117.488413,17.6586629 Z" id="Fill-1"></path>
                <path d="M32.20413,23.9280035 C30.8961607,23.9280035 29.9548388,24.87182 29.7710817,26.7010642 L34.6380452,26.7010642 C34.4768243,24.9102125 33.5363692,23.9280035 32.20413,23.9280035" id="Fill-3"></path>
                <path d="M42.6782863,23.9284035 C41.1397538,23.9284035 40.2443711,25.2185525 40.2443711,27.1829705 C40.2443711,29.1473884 41.1397538,30.4375374 42.6782863,30.4375374 C44.2159521,30.4375374 45.1113347,29.1473884 45.1113347,27.1829705 C45.1113347,25.2185525 44.2159521,23.9284035 42.6782863,23.9284035" id="Fill-4"></path>
                <path d="M71.1783234,25.7378115 C70.1459897,24.87158 69.0893862,24.3900737 68.1714674,24.3900737 C67.620196,24.3900737 67.1157307,24.5436438 66.7248134,24.8907763 C66.3122266,25.2379088 66.1284695,25.6610265 66.1284695,26.1233366 C66.1284695,26.8943866 66.7022771,27.7598183 67.7354776,28.6268496 C68.768678,29.493881 69.8244147,29.9753873 70.7423336,29.9753873 C71.293605,29.9753873 71.7980703,29.8210173 72.1889876,29.493881 C72.6015743,29.1475483 72.7853315,28.7428271 72.7853315,28.280517 C72.7853315,27.5094669 72.2115238,26.6048429 71.1783234,25.7378115" id="Fill-5"></path>
                <path d="M19.4961978,45.7584775 C19.4961978,46.6487044 20.3447744,47.3605659 21.4057118,47.3605659 C22.3765041,47.3605659 23.2848884,46.6998944 23.2848884,45.7584775 L23.2848884,42.8598413 C21.2843627,43.0630018 19.4961978,44.4363347 19.4961978,45.7584775" id="Fill-6"></path>
                <path d="M54.6299539,38.892293 C52.5990909,38.892293 51.4168045,40.5959616 51.4168045,43.1906569 C51.4168045,45.7837526 52.5990909,47.4882211 54.6299539,47.4882211 C56.6608169,47.4882211 57.8431033,45.7837526 57.8431033,43.1906569 C57.8431033,40.5959616 56.6608169,38.892293 54.6299539,38.892293" id="Fill-7"></path>
                <path d="M89.3564972,41.282788 C87.9921872,40.1390105 86.59754,39.5023343 85.3849163,39.5023343 C84.6585556,39.5023343 83.9911358,39.7062947 83.4754024,40.1646055 C82.9301984,40.6213167 82.6875003,41.1820076 82.6875003,41.7914891 C82.6875003,42.8088912 83.4450651,43.9534686 84.8093751,45.098046 C86.1736851,46.2418235 87.5683323,46.8776998 88.7800893,46.8776998 C89.5081835,46.8776998 90.1738697,46.6737395 90.69047,46.2418235 C91.2348071,45.7835126 91.4775052,45.2500164 91.4775052,44.6397351 C91.4775052,43.6231328 90.7199404,42.4273654 89.3564972,41.282788" id="Fill-8"></path>
                <path d="M104.886141,45.7584775 C104.886141,46.6487044 105.734718,47.3605659 106.795655,47.3605659 C107.765581,47.3605659 108.674832,46.6998944 108.674832,45.7584775 L108.674832,42.8598413 C106.674306,43.0630018 104.886141,44.4363347 104.886141,45.7584775" id="Fill-9"></path>
                <path d="M113.129469,21.2394865 C113.129469,21.2386866 113.130336,13.8105314 113.130336,13.7721389 C113.130336,12.6859501 111.963651,12.3836089 111.789429,12.3836089 L103.832398,12.3836089 L103.832398,3.69009983 L95.7401505,3.69009983 C94.9505149,3.69009983 94.3108321,4.28118487 94.3108321,5.00984314 L94.3108321,12.3836089 C94.3108321,12.3836089 100.387819,12.4739914 104.687909,14.7711446 C108.968063,16.8067486 113.139003,21.2690807 113.129469,21.2394865" id="Fill-10"></path>
                <path d="M94.1466642,29.9108399 C94.1561987,29.9156389 102.43307,29.9156389 102.436538,29.9156389 C103.446335,29.8316553 103.699434,28.6278894 103.699434,28.6278894 C101.907802,21.4068939 98.3462079,17.5644413 93.9429711,14.8417708 C90.026864,12.4198419 84.8504604,12.3758504 84.8530608,12.383049 L84.8556611,19.9199831 C84.8556611,20.6486414 85.4962107,21.2397264 86.2858463,21.2397264 L94.1414635,21.2333277 L94.1466642,29.9108399 Z" id="Fill-11"></path>
            </g>
        </g>
    </g>
</svg>