<?xml version="1.0" encoding="UTF-8" standalone="no"?>
<svg width="129px" height="55px" viewBox="0 0 129 55" version="1.1" xmlns="http://www.w3.org/2000/svg" xmlns:xlink="http://www.w3.org/1999/xlink">
    <!-- Generator: Sketch 41.2 (35397) - http://www.bohemiancoding.com/sketch -->
    <title>Group</title>
    <desc>Created with Sketch.</desc>
    <defs>
        <filter x="-50%" y="-50%" width="200%" height="200%" filterUnits="objectBoundingBox" id="filter-1">
            <feOffset dx="0" dy="2" in="SourceAlpha" result="shadowOffsetOuter1"></feOffset>
            <feGaussianBlur stdDeviation="2" in="shadowOffsetOuter1" result="shadowBlurOuter1"></feGaussianBlur>
            <feColorMatrix values="0 0 0 0 0   0 0 0 0 0   0 0 0 0 0  0 0 0 0.5 0" type="matrix" in="shadowBlurOuter1" result="shadowMatrixOuter1"></feColorMatrix>
            <feMerge>
                <feMergeNode in="shadowMatrixOuter1"></feMergeNode>
                <feMergeNode in="SourceGraphic"></feMergeNode>
            </feMerge>
        </filter>
    </defs>
    <g id="Page-1" stroke="none" stroke-width="1" fill="none" fill-rule="evenodd">
        <g id="MENU_5" transform="translate(-319.000000, -225.000000)">
            <g id="Group" filter="url(#filter-1)" transform="translate(323.000000, 227.000000)">
                <path d="M15.6620214,38.8191202 L15.6620214,46.2408777 L12.5792189,46.2408777 L12.5792189,38.8032105 C9.45551336,38.8684325 8.47770701,39.0006076 8.47770701,35.3724563 C8.47770701,31.329913 9.69163087,26.9672131 13.7352699,26.9672131 C17.7789088,26.9672131 19.108353,31.329913 19.108353,35.3724563 C19.108353,38.687805 18.2141849,38.8632726 15.6620214,38.8191202 Z" id="Combined-Shape" fill="#FFFFFF"></path>
                <path d="M5.20368742,41.6003305 L5.20368742,46.2408777 L3.10679976,46.2408777 L3.10679976,41.5806873 C0.982090342,41.6612145 0.316997445,41.8244063 0.316997445,37.3448603 C0.316997445,32.3536796 1.14269482,26.9672131 3.89313263,26.9672131 C6.64357045,26.9672131 7.54784342,32.3536796 7.54784342,37.3448603 C7.54784342,41.4382004 6.93964034,41.6548439 5.20368742,41.6003305 Z" id="Combined-Shape-Copy-2" fill="#FFFFFF"></path>
                <path d="M117.134922,38.3765939 L117.134922,45.9762827 L114.05212,45.9762827 L114.05212,38.4207929 C111.036231,37.8336902 110.514728,34.8264477 110.514728,31.204918 C110.514728,27.1623747 111.471867,18.5692378 115.515506,18.5692378 C119.559145,18.5692378 120.516283,28.9943869 120.516283,33.0369302 C120.516283,36.3498593 119.667054,37.9183397 117.134922,38.3765939 Z" id="Combined-Shape-Copy" fill="#FFFFFF"></path>
                <polygon id="Fill-1" fill="#FEFEFE" points="26.0435698 10.8942993 57.3666977 10.8942993 57.3666977 9.18947826 26.0435698 9.18947826"></polygon>
                <polygon id="Fill-2" fill="#FEFEFE" points="59.8126999 1.95804653 87.5312753 1.95804653 87.5312753 0.253225493 59.8126999 0.253225493"></polygon>
                <polygon id="Fill-3" fill="#FEFEFE" points="89.2263074 10.8942993 104.01087 10.8942993 104.01087 9.18947826 89.2263074 9.18947826"></polygon>
                <path d="M59.5926276,3.52959933 L59.5926276,45.902329 L69.1214424,45.902329 L69.1214424,37.9666291 L77.1180484,37.9666291 L77.1180484,45.902329 L87.3273809,45.902329 L87.3273809,3.52959933 L59.5926276,3.52959933 Z M67.115898,11.0212198 L71.4453271,11.0212198 L71.4453271,7.33669252 L75.8984394,7.33669252 L75.8984394,11.0212198 L80.2278686,11.0212198 L80.2278686,14.8101057 L75.8984394,14.8101057 L75.8984394,18.494633 L71.4453271,18.494633 L71.4453271,14.8101057 L67.115898,14.8101057 L67.115898,11.0212198 Z M78.4796058,27.7230482 L83.1842592,27.7230482 L83.1842592,22.2515452 L78.4796058,22.2515452 L78.4796058,27.7230482 Z M71.1092432,27.7230482 L75.8107653,27.7230482 L75.8107653,22.2515452 L71.1092432,22.2515452 L71.1092432,27.7230482 Z M63.7388806,27.7230482 L68.4409246,27.7230482 L68.4409246,22.2515452 L63.7388806,22.2515452 L63.7388806,27.7230482 Z M78.4796058,35.6165606 L83.1842592,35.6165606 L83.1842592,29.990962 L78.4796058,29.990962 L78.4796058,35.6165606 Z M71.1092432,35.6165606 L75.8107653,35.6165606 L75.8107653,29.990962 L71.1092432,29.990962 L71.1092432,35.6165606 Z M63.7388806,35.6165606 L68.4409246,35.6165606 L68.4409246,29.990962 L63.7388806,29.990962 L63.7388806,35.6165606 Z" id="Fill-4" fill="#FEFEFE"></path>
                <path d="M26.3405135,12.4960051 L21.6358602,12.4960051 L21.6358602,25.1456084 L21.6358602,27.1461864 L21.6358602,30.8871118 L21.6358602,34.3584809 L21.6358602,35.488219 L21.6358602,38.0914128 L21.6358602,42.6068127 L18.4968153,42.6068127 L18.4968153,45.771323 L21.6358602,45.771323 L26.3405135,45.771323 L57.4705497,45.771323 L57.4705497,42.6068127 L57.4705497,38.0914128 L57.4705497,35.488219 L57.4705497,34.3584809 L26.3405135,34.3584809 L26.3405135,30.8871118 L57.4705497,30.8871118 L57.4705497,27.1461864 L26.3405135,27.1461864 L26.3405135,25.1456084 L57.4705497,25.1456084 L57.4705497,21.1013768 L26.2408365,21.1013768 L26.2408365,19.0674929 L57.4705497,19.0674929 L57.4705497,12.4960051 L26.3405135,12.4960051 Z M26.5122086,42.4358421 L54.9640106,42.4358421 L54.9640106,37.8946856 L26.5122086,37.8946856 L26.5122086,42.4358421 Z" id="Fill-5" fill="#FEFEFE"></path>
                <path d="M103.896841,12.4960051 L89.156116,12.4960051 L89.156116,19.0674929 L103.819605,19.0674929 L103.819605,21.1013768 L89.156116,21.1013768 L89.156116,23.2342905 L89.156116,25.1456084 L103.896841,25.1456084 L103.896841,27.1461864 L89.156116,27.1461864 L89.156116,30.8871118 L103.896841,30.8871118 L103.896841,34.3584809 L89.156116,34.3584809 L89.156116,35.488219 L89.156116,38.0914128 L89.156116,42.6068127 L89.156116,45.771323 L103.896841,45.771323 L108.601495,45.771323 L111.740018,45.771323 L111.740018,42.6068127 L108.601495,42.6068127 L108.601495,38.0914128 L108.601495,35.488219 L108.601495,34.3584809 L108.601495,30.8871118 L108.601495,27.1461864 L108.601495,25.1456084 L108.601495,12.4960051 L103.896841,12.4960051 Z M91.6626551,42.4358421 L103.724624,42.4358421 L103.724624,37.8946856 L91.6626551,37.8946856 L91.6626551,42.4358421 Z" id="Fill-6" fill="#FEFEFE"></path>
            </g>
        </g>
    </g>
</svg>