<?xml version="1.0" encoding="UTF-8" standalone="no"?>
<svg width="59px" height="61px" viewBox="0 0 59 61" version="1.1" xmlns="http://www.w3.org/2000/svg" xmlns:xlink="http://www.w3.org/1999/xlink">
    <!-- Generator: Sketch 41.2 (35397) - http://www.bohemiancoding.com/sketch -->
    <title>Page 1</title>
    <desc>Created with Sketch.</desc>
    <defs>
        <filter x="-50%" y="-50%" width="200%" height="200%" filterUnits="objectBoundingBox" id="filter-1">
            <feOffset dx="0" dy="2" in="SourceAlpha" result="shadowOffsetOuter1"></feOffset>
            <feGaussianBlur stdDeviation="2" in="shadowOffsetOuter1" result="shadowBlurOuter1"></feGaussianBlur>
            <feColorMatrix values="0 0 0 0 0   0 0 0 0 0   0 0 0 0 0  0 0 0 0.5 0" type="matrix" in="shadowBlurOuter1" result="shadowMatrixOuter1"></feColorMatrix>
            <feMerge>
                <feMergeNode in="shadowMatrixOuter1"></feMergeNode>
                <feMergeNode in="SourceGraphic"></feMergeNode>
            </feMerge>
        </filter>
    </defs>
    <g id="Page-1" stroke="none" stroke-width="1" fill="none" fill-rule="evenodd">
        <g id="MENU_2" transform="translate(-306.000000, -223.000000)" fill="#FFFFFF">
            <g id="Page-1" filter="url(#filter-1)" transform="translate(310.000000, 225.000000)">
                <path d="M45.33323,16.6495383 C42.2037058,16.6495383 39.6664599,19.1760379 39.6664599,22.293283 C39.6664599,22.5268794 39.6851099,22.7551284 39.7125197,22.9811258 C37.3499056,24.6495105 34.6103356,27.1098714 32.9942861,30.3287168 C31.5048304,33.2953908 31.9874694,39.4854132 32.1705783,41.3071835 C32.1734041,41.3375792 32.4285698,44.3627929 30.7054241,46.1749942 C29.6706325,47.263891 27.9980678,47.775833 25.7346377,47.6925263 C20.6355619,47.5079007 19.8030943,42.2106104 19.693455,41.2311943 L19.8146799,31.3115102 C22.7269035,30.7418728 25.2731918,29.3445162 27.4111584,27.1337939 C35.0966482,19.1870141 34.589425,3.25996307 34.5645584,2.58562944 C34.5131296,1.22120147 33.3873487,0.141029321 32.0162921,0.141029321 L27.6250681,0.141029321 C26.2169941,0.141029321 25.0751063,1.27805263 25.0751063,2.68075664 C25.0751063,4.08374209 26.2169941,5.2207654 27.6250681,5.2207654 L29.4423114,5.2207654 C29.276157,9.61744317 28.3600471,18.8385897 23.7323073,23.6163391 C21.8353777,25.574327 19.5340824,26.5261619 16.6973065,26.5261619 C14.5655565,26.5261619 12.7734624,25.768803 11.2181666,24.2113062 C6.92075767,19.9075041 5.50138069,10.4899116 5.17811426,5.07948181 L6.80038049,5.07948181 C8.20873702,5.07948181 9.35005966,3.9424585 9.35005966,2.53975449 C9.35005966,1.13705049 8.20873702,2.71727949e-05 6.80038049,2.71727949e-05 L2.55016167,2.71727949e-05 C1.14858695,2.71727949e-05 0.0095249131,1.12691859 0.00019992001,2.52314945 C-0.00432128876,3.23857352 -0.0289053614,20.1422263 7.59554808,27.786738 C9.63461323,29.8311284 12.0218115,31.0610274 14.7124958,31.4606742 L14.5921187,41.3105608 C14.5909883,41.3899273 14.5938141,41.4692937 14.6003133,41.5489417 C14.909451,45.303933 17.5953316,52.4806891 25.5489855,52.7686036 C25.7702422,52.776484 25.9878254,52.7804242 26.2034305,52.7804242 C29.7116059,52.7804242 32.4836721,51.7199529 34.4506804,49.6232144 C37.7028424,46.1569819 37.30102,41.333639 37.2456352,40.8064992 C36.9390407,37.752297 36.990752,33.726559 37.5559031,32.6005119 C38.6992038,30.3222437 40.7354432,28.4931559 42.5467525,27.2044357 C43.3701776,27.6685326 44.3193489,27.9370277 45.33323,27.9370277 C48.4624716,27.9370277 51,25.4105281 51,22.293283 C51,19.1760379 48.4624716,16.6495383 45.33323,16.6495383" id="Fill-1"></path>
            </g>
        </g>
    </g>
</svg>