<?xml version="1.0" encoding="UTF-8" standalone="no"?>
<svg width="58px" height="59px" viewBox="0 0 58 59" version="1.1" xmlns="http://www.w3.org/2000/svg" xmlns:xlink="http://www.w3.org/1999/xlink">
    <!-- Generator: Sketch 41.2 (35397) - http://www.bohemiancoding.com/sketch -->
    <title>Page 1</title>
    <desc>Created with Sketch.</desc>
    <defs>
        <filter x="-50%" y="-50%" width="200%" height="200%" filterUnits="objectBoundingBox" id="filter-1">
            <feOffset dx="0" dy="2" in="SourceAlpha" result="shadowOffsetOuter1"></feOffset>
            <feGaussianBlur stdDeviation="2" in="shadowOffsetOuter1" result="shadowBlurOuter1"></feGaussianBlur>
            <feColorMatrix values="0 0 0 0 0   0 0 0 0 0   0 0 0 0 0  0 0 0 0.5 0" type="matrix" in="shadowBlurOuter1" result="shadowMatrixOuter1"></feColorMatrix>
            <feMerge>
                <feMergeNode in="shadowMatrixOuter1"></feMergeNode>
                <feMergeNode in="SourceGraphic"></feMergeNode>
            </feMerge>
        </filter>
    </defs>
    <g id="Page-1" stroke="none" stroke-width="1" fill="none" fill-rule="evenodd">
        <g id="MENU_4" transform="translate(-1177.000000, -225.000000)" fill="#FFFFFF">
            <g id="Page-1" filter="url(#filter-1)" transform="translate(1181.000000, 227.000000)">
                <g id="Group-5" transform="translate(0.435067, 0.000000)">
                    <path d="M19.7587209,22.9241109 C19.8103692,23.36507 19.8109698,23.7080046 19.3884746,24.2699108 C18.9656792,24.8315153 18.419168,25.0420416 17.7270206,25.1433837 C17.6135144,25.1602741 17.5048128,25.1777677 17.392808,25.194658 C17.589492,27.8413173 18.4077573,32.3401857 20.832225,34.4101597 C21.7198552,35.1681147 22.7429121,35.5363849 23.9593499,35.5363849 C25.5784643,35.5363849 26.8918928,35.073408 27.9744053,34.1206107 C30.6156758,31.7954715 31.138765,27.3083661 31.2336538,25.1687193 L31.2276482,24.8550411 C31.1790027,24.8281975 31.1297566,24.8040684 31.0832131,24.7711926 C30.3442219,24.2457817 29.5694972,23.1542421 29.5523812,22.7600331 C29.3175616,17.320432 32.6446735,19.12197 32.7350581,13.7511367 C32.8530685,6.77300467 34.7079033,0.376383602 24.3461116,0.139616932 C14.4575626,-0.0865932623 15.2512049,7.51889508 15.9577658,14.6149581 C16.4766511,19.8268409 19.2191162,18.2783568 19.7587209,22.9241109" id="Fill-1"></path>
                    <path d="M34.143015,25.3216977 C34.0283077,27.8112163 33.3760977,32.9214554 30.0742093,35.8323281 C28.8538679,36.9081838 27.4008088,37.5880209 25.7387542,37.8655054 L25.6693893,42.6925293 C25.732148,43.1690788 26.2071924,45.7466685 29.1172142,45.8365494 C30.4093227,45.8772672 31.3639156,45.6281344 31.9545681,45.0981993 C32.9379879,44.2165828 32.7920514,42.7441052 32.79055,42.7293262 C32.6860522,41.8428838 32.4106947,38.8306689 33.2607898,37.3871462 C34.1829523,35.8208668 35.7468151,34.6231593 37.0953764,33.8112155 C37.0794615,33.7014281 37.0689517,33.5904343 37.0689517,33.476726 C37.0689517,31.9599112 37.6866294,30.4081093 39.8309351,30.3625657 C41.9794446,30.317022 42.9604622,31.5991814 43.070365,33.1120752 C43.2072931,34.9914295 42.1644176,36.3203389 40.3786474,36.3203389 C39.7997059,36.3203389 39.0231795,36.1794854 38.5535403,35.9535768 C37.5196733,36.5806315 36.5167352,37.3835269 35.8642249,38.49256 C35.5417232,39.0399887 35.5122957,40.9992706 35.6873595,42.4856224 C35.7188889,42.7422955 35.9483035,45.0894525 34.0922675,46.7763773 C32.9695174,47.7964345 31.3870372,48.3124954 29.3850647,48.3124954 C29.2619496,48.3124954 29.1376333,48.3106857 29.0115153,48.3067647 C24.4718693,48.1665144 22.9389355,44.6741306 22.7626706,42.8469555 C22.758767,42.8083489 22.7572655,42.7697424 22.7578661,42.7311358 L22.8266304,37.937591 C21.2909941,37.7433519 19.9286198,37.1449505 18.7647312,36.1499273 C15.6159861,33.4586292 14.7535795,28.4096176 14.517859,25.6911743 C5.75536316,27.4299767 1.73310102,30.6720212 0.049125949,39.6775998 L-0.000120112345,44.2144715 L0.111584368,46.6828771 C0.502850331,50.2738886 2.98497193,50.9727272 6.60725997,50.9727272 L43.1724605,50.9492014 C46.7950488,50.9492014 49.3219123,50.7787897 49.4336167,45.9535755 L49.6870538,39.6775998 L49.716181,39.6775998 C48.3129686,29.1723984 43.5261913,26.7543622 34.143015,25.3216977" id="Fill-3"></path>
                </g>
            </g>
        </g>
    </g>
</svg>