<?xml version="1.0" encoding="UTF-8" standalone="no"?>
<svg width="75px" height="64px" viewBox="0 0 75 64" version="1.1" xmlns="http://www.w3.org/2000/svg" xmlns:xlink="http://www.w3.org/1999/xlink">
    <!-- Generator: Sketch 41.2 (35397) - http://www.bohemiancoding.com/sketch -->
    <title>Group 7 Copy 2</title>
    <desc>Created with Sketch.</desc>
    <defs>
        <filter x="-50%" y="-50%" width="200%" height="200%" filterUnits="objectBoundingBox" id="filter-1">
            <feOffset dx="0" dy="2" in="SourceAlpha" result="shadowOffsetOuter1"></feOffset>
            <feGaussianBlur stdDeviation="2" in="shadowOffsetOuter1" result="shadowBlurOuter1"></feGaussianBlur>
            <feColorMatrix values="0 0 0 0 0   0 0 0 0 0   0 0 0 0 0  0 0 0 0.5 0" type="matrix" in="shadowBlurOuter1" result="shadowMatrixOuter1"></feColorMatrix>
            <feMerge>
                <feMergeNode in="shadowMatrixOuter1"></feMergeNode>
                <feMergeNode in="SourceGraphic"></feMergeNode>
            </feMerge>
        </filter>
    </defs>
    <g id="Page-1" stroke="none" stroke-width="1" fill="none" fill-rule="evenodd">
        <g id="MENU_1" transform="translate(-1251.000000, -224.000000)" fill="#FFFFFF">
            <g id="Group-7-Copy-2" filter="url(#filter-1)" transform="translate(1255.000000, 225.000000)">
                <path d="M66.5049623,52.3115706 C64.5908485,37.8495147 59.8879021,39.1914358 45.4274638,35.8448449 C45.023082,35.7512585 43.5729978,34.116214 42.9383032,33.9539832 C42.9383032,33.9539832 40.2914128,38.3339662 39.4781774,40.5487393 C38.664942,42.7635125 35.6713592,47.4179096 35.6713592,47.4179096 C35.6713592,47.4179096 31.9413121,44.9573315 29.1448187,42.3980232 C26.3483254,39.8387149 21.8259922,33.9539832 21.8259922,33.9539832 L19.6430685,36.8136245 C6.96670387,39.8333538 2.58615988,39.6093399 0.184992216,52.3115706 L0.794812575,52.3115706 L0.497926347,52.582221 C0.497926347,56.2840322 4.85693832,56.9421231 9.69658503,56.9421231 L58.5504174,56.9110322 C63.3904653,56.9110322 66.7653395,56.2840322 66.7653395,52.582221 L66.5049623,52.3115706 Z" id="Fill-17"></path>
                <path d="M32.0270689,19.2501473 C33.3309611,18.6606158 34.4615359,16.9920704 33.418021,16.304483 C32.374506,15.6176928 29.9404401,15.4211823 28.8102665,15.6176928 C27.6796916,15.8138046 27.8538114,16.6975039 27.8538114,17.7773151 C27.8538114,18.8575249 29.7663204,19.3482032 29.7663204,19.3482032 C29.7663204,19.3482032 30.7227755,19.8388816 32.0270689,19.2501473 Z" id="Fill-19"></path>
                <path d="M41.6274246,19.3482032 C41.6274246,19.3482032 40.6352629,19.8388816 39.2828258,19.2501473 C37.9303887,18.6610144 36.7576881,16.9920704 37.8401192,16.304483 C38.9221492,15.6176928 41.4468857,15.4211823 42.6191851,15.6176928 C43.7914845,15.8142032 43.6113468,16.6975039 43.6113468,17.7777137 C43.6113468,18.8575249 41.6274246,19.3482032 41.6274246,19.3482032" id="Fill-21"></path>
                <path d="M26.0032923,13.7329077 L28.491718,13.0210056 C29.3735503,12.401579 33.2608246,13.0210056 33.2608246,13.0210056 C33.2608246,13.0210056 34.4611386,14.2666152 35.117899,14.4627271 C35.7738571,14.658839 36.8049185,15.7611849 38.0239184,14.4627271 C39.3774151,13.0210056 42.4276898,13.1362014 43.8314802,13.0210056 C43.7564563,6.96625035 40.9058745,2.26015773 34.4614765,1.05803888 C29.3726183,0.108778416 24.8586077,2.13041548 23.6825728,6.67547053 C27.2697342,9.10613459 25.1353707,10.1020704 24.8586077,11.4570978 C24.6524028,12.4666742 20.5597923,2.43403764 19.0655311,8.52503551 C17.57127,14.6160334 22.1436556,12.7401251 22.1543222,13.7329077 L26.0032923,13.7329077 Z" id="Fill-23"></path>
                <path d="M38.2221782,20.2824289 C34.940783,19.2022191 37.6228593,18.0679147 35.6537815,17.5768378 C33.6851048,17.0861595 35.70424,17.607021 34.5792819,19.275965 C33.4543238,20.9449091 32.0424292,21.4531259 29.2296328,20.962049 C27.1967645,20.6072937 25.9638924,18.2456973 26.0244732,16.7102847 L20.9118614,15.5454545 C20.9190952,15.6925233 19.2027503,15.3976993 19.2112609,15.5454545 C19.2173527,15.6512167 19.1114162,17.9443093 19.2112609,19.275965 C19.6468932,25.0861079 22.2072106,20.4909982 22.2545911,20.962049 C23.2094414,30.4427832 24.0981728,27.346049 24.661053,32.1392308 C24.6879333,32.3672308 24.5487177,32.4708671 24.3368853,32.556965 L28.5199794,39.4675071 L35.6537815,44.7915779 C35.6530682,42.2656781 39.3589913,39.8775588 39.9116845,35.785245 C39.9182878,35.736352 41.3820339,34.6067937 40.98458,34.7925692 C40.587126,34.9783448 39.1527275,37.2017267 37.1649122,37.2017267 C36.7782486,37.2017267 36.0393699,36.3683721 35.6537815,36.3482111 C35.268193,36.3280501 32.067397,36.6949495 32.1382977,36.3482111 C32.1741842,36.1727092 31.1974331,33.7564531 32.1382977,33.948331 C33.0791624,34.1402089 35.2489436,34.7779002 37.1649122,34.7925692 C40.1878661,34.8157137 41.9654759,32.532525 42.3109147,32.1392308 C44.4275041,29.729419 44.1856774,27.8989307 44.2313185,25.2166637 C44.2461628,24.329377 43.6843278,21.1844639 43.7320703,20.2824289 C43.0889505,20.4908974 41.7496638,21.213965 40.98458,20.962049 L38.2221782,20.2824289 Z" id="Fill-25"></path>
            </g>
        </g>
    </g>
</svg>