<?xml version="1.0" encoding="UTF-8" standalone="no"?>
<svg width="36px" height="60px" viewBox="0 0 36 60" version="1.1" xmlns="http://www.w3.org/2000/svg" xmlns:xlink="http://www.w3.org/1999/xlink">
    <!-- Generator: Sketch 43.2 (39069) - http://www.bohemiancoding.com/sketch -->
    <title>Page 1</title>
    <desc>Created with Sketch.</desc>
    <defs></defs>
    <g id="Desktop" stroke="none" stroke-width="1" fill="none" fill-rule="evenodd">
        <g id="Pago-de-Cuenta---Pago---Paso-3" transform="translate(-181.000000, -760.000000)" fill="#3D7DDA">
            <g id="Page-1" transform="translate(181.000000, 760.000000)">
                <g id="Group-7">
                    <path d="M17.0790472,42.3044173 L11.1834567,48.1997717 C11.0377087,48.3459921 10.9644803,48.5186693 10.9644803,48.7180394 C10.9644803,48.9174094 11.0377087,49.0907953 11.1834567,49.2363071 C11.3296772,49.3820551 11.5021181,49.4550472 11.701252,49.4550472 L14.530937,49.4550472 L14.530937,59.3975669 C14.530937,59.6585906 14.7423543,59.8700079 15.003378,59.8700079 L20.1917244,59.8700079 C20.4525118,59.8700079 20.6641654,59.6585906 20.6641654,59.3975669 L20.6641654,49.4550472 L23.4931417,49.4550472 C23.6925118,49.4550472 23.8654252,49.3820551 24.010937,49.2363071 C24.1573937,49.0907953 24.2303858,48.9174094 24.2303858,48.7180394 C24.2303858,48.5186693 24.1573937,48.3459921 24.010937,48.1997717 L18.1153465,42.3044173 C17.9700709,42.1586693 17.7969213,42.0854409 17.5968425,42.0854409 C17.3977087,42.0854409 17.2252677,42.1586693 17.0790472,42.3044173" id="Fill-1"></path>
                    <g id="Group-5" transform="translate(0.000000, 0.106299)">
                        <path d="M28.7957244,28.1254724 C28.7957244,28.3423228 28.717063,28.5291732 28.5585591,28.6881496 C28.4000551,28.8461811 28.2127323,28.925315 27.9958819,28.925315 L26.3959606,28.925315 C26.1795827,28.925315 25.9922598,28.8461811 25.8337559,28.6881496 C25.6757244,28.5291732 25.5968268,28.3423228 25.5968268,28.1254724 L25.5968268,26.5255512 C25.5968268,26.3091732 25.6757244,26.1216142 25.8337559,25.9635827 C25.9922598,25.8055512 26.1795827,25.7259449 26.3959606,25.7259449 L27.9958819,25.7259449 C28.2127323,25.7259449 28.4000551,25.8055512 28.5585591,25.9635827 C28.7165906,26.1218504 28.7957244,26.3091732 28.7957244,26.5255512 L28.7957244,28.1254724 Z M25.5963543,20.126811 C25.5963543,19.9101969 25.675252,19.722874 25.8335197,19.5646063 C25.9917874,19.4061024 26.1793465,19.3269685 26.3957244,19.3269685 L27.9956457,19.3269685 C28.2124961,19.3269685 28.3995827,19.4061024 28.5583228,19.5646063 C28.7163543,19.7231102 28.7954882,19.9101969 28.7954882,20.126811 L28.7954882,21.7264961 C28.7954882,21.9431102 28.7165906,22.1304331 28.5583228,22.288937 C28.3995827,22.4472047 28.2124961,22.5263386 27.9956457,22.5263386 L26.3957244,22.5263386 C26.1793465,22.5263386 25.9917874,22.4472047 25.8335197,22.288937 C25.675252,22.1304331 25.5963543,21.9431102 25.5963543,21.7264961 L25.5963543,20.126811 Z M22.3965118,12.1279134 C22.3965118,12.3445276 22.317378,12.5318504 22.1595827,12.6901181 C22.0010787,12.848622 21.8137559,12.9277559 21.5969055,12.9277559 L19.9972205,12.9277559 C19.7806063,12.9277559 19.5930472,12.848622 19.4347795,12.6901181 C19.2769843,12.5318504 19.197378,12.3445276 19.197378,12.1279134 L19.197378,9.72814961 L15.9982441,9.72814961 L15.9982441,12.1279134 C15.9982441,12.3445276 15.918874,12.5318504 15.7606063,12.6901181 C15.6023386,12.848622 15.4147795,12.9277559 15.1981654,12.9277559 L13.5987165,12.9277559 C13.3821024,12.9277559 13.1945433,12.848622 13.0362756,12.6901181 C12.8780079,12.5318504 12.798874,12.3445276 12.798874,12.1279134 L12.798874,4.12901575 C12.798874,3.91240157 12.8780079,3.72484252 13.0362756,3.5665748 C13.1945433,3.40830709 13.3821024,3.32917323 13.5987165,3.32917323 L15.1981654,3.32917323 C15.4147795,3.32917323 15.6023386,3.40830709 15.7606063,3.5665748 C15.918874,3.72484252 15.9982441,3.91240157 15.9982441,4.12901575 L15.9982441,6.52877953 L19.197378,6.52877953 L19.197378,4.12901575 C19.197378,3.91240157 19.276748,3.72484252 19.4347795,3.5665748 C19.5932835,3.40830709 19.7806063,3.32917323 19.9972205,3.32917323 L21.5969055,3.32917323 C21.8137559,3.32917323 22.0010787,3.40830709 22.1595827,3.5665748 C22.3176142,3.72484252 22.3965118,3.91240157 22.3965118,4.12901575 L22.3965118,12.1279134 Z M22.3965118,21.7264961 C22.3965118,21.9431102 22.3176142,22.1304331 22.1595827,22.288937 C22.0010787,22.4472047 21.8137559,22.5263386 21.5969055,22.5263386 L19.9972205,22.5263386 C19.7806063,22.5263386 19.5932835,22.4472047 19.4347795,22.288937 C19.276748,22.1304331 19.197378,21.9431102 19.197378,21.7264961 L19.197378,20.126811 C19.197378,19.9101969 19.2769843,19.722874 19.4347795,19.5646063 C19.5930472,19.4061024 19.7806063,19.3269685 19.9972205,19.3269685 L21.5969055,19.3269685 C21.8137559,19.3269685 22.001315,19.4061024 22.1595827,19.5646063 C22.317378,19.7231102 22.3965118,19.9101969 22.3965118,20.126811 L22.3965118,21.7264961 Z M22.3965118,28.1254724 C22.3965118,28.3423228 22.3176142,28.5291732 22.1595827,28.6881496 C22.0010787,28.8461811 21.8137559,28.925315 21.5969055,28.925315 L19.9972205,28.925315 C19.7806063,28.925315 19.5932835,28.8461811 19.4347795,28.6881496 C19.276748,28.5291732 19.197378,28.3423228 19.197378,28.1254724 L19.197378,26.5255512 C19.197378,26.3091732 19.2769843,26.1218504 19.4347795,25.9635827 C19.5930472,25.8055512 19.7806063,25.7259449 19.9972205,25.7259449 L21.5969055,25.7259449 C21.8137559,25.7259449 22.001315,25.8055512 22.1595827,25.9635827 C22.317378,26.1218504 22.3965118,26.3091732 22.3965118,26.5255512 L22.3965118,28.1254724 Z M15.9977717,21.7264961 C15.9977717,21.9431102 15.9186378,22.1304331 15.7603701,22.288937 C15.6021024,22.4472047 15.4147795,22.5263386 15.1981654,22.5263386 L13.5984803,22.5263386 C13.3818661,22.5263386 13.1943071,22.4472047 13.0360394,22.288937 C12.8777717,22.1304331 12.7984016,21.9431102 12.7984016,21.7264961 L12.7984016,20.126811 C12.7984016,19.9101969 12.8777717,19.722874 13.0360394,19.5646063 C13.1943071,19.4061024 13.3818661,19.3269685 13.5984803,19.3269685 L15.1981654,19.3269685 C15.4147795,19.3269685 15.6021024,19.4061024 15.7603701,19.5646063 C15.9184016,19.7231102 15.9977717,19.9101969 15.9977717,20.126811 L15.9977717,21.7264961 Z M15.9977717,28.1254724 C15.9977717,28.3423228 15.9186378,28.5291732 15.7603701,28.6881496 C15.6021024,28.8461811 15.4147795,28.925315 15.1981654,28.925315 L13.5984803,28.925315 C13.3818661,28.925315 13.1943071,28.8461811 13.0360394,28.6881496 C12.8777717,28.5291732 12.7984016,28.3423228 12.7984016,28.1254724 L12.7984016,26.5255512 C12.7984016,26.3091732 12.8777717,26.1218504 13.0360394,25.9635827 C13.1943071,25.8055512 13.3818661,25.7259449 13.5984803,25.7259449 L15.1981654,25.7259449 C15.4147795,25.7259449 15.6021024,25.8055512 15.7603701,25.9635827 C15.9184016,26.1218504 15.9977717,26.3091732 15.9977717,26.5255512 L15.9977717,28.1254724 Z M9.59855906,21.7264961 C9.59855906,21.9431102 9.5194252,22.1304331 9.36115748,22.288937 C9.20288976,22.4472047 9.01533071,22.5263386 8.79871654,22.5263386 L7.1990315,22.5263386 C6.98241732,22.5263386 6.79509449,22.4472047 6.63659055,22.288937 C6.47832283,22.1304331 6.39918898,21.9431102 6.39918898,21.7264961 L6.39918898,20.126811 C6.39918898,19.9101969 6.47832283,19.722874 6.63659055,19.5646063 C6.79509449,19.4061024 6.98241732,19.3269685 7.1990315,19.3269685 L8.79871654,19.3269685 C9.01533071,19.3269685 9.20288976,19.4061024 9.36115748,19.5646063 C9.5194252,19.722874 9.59855906,19.9101969 9.59855906,20.126811 L9.59855906,21.7264961 Z M9.59855906,28.1254724 C9.59855906,28.3423228 9.5194252,28.5291732 9.36115748,28.6881496 C9.20288976,28.8461811 9.01533071,28.925315 8.79871654,28.925315 L7.1990315,28.925315 C6.98241732,28.925315 6.79509449,28.8461811 6.63659055,28.6881496 C6.47832283,28.5291732 6.39918898,28.3423228 6.39918898,28.1254724 L6.39918898,26.5255512 C6.39918898,26.3091732 6.47832283,26.1216142 6.63659055,25.9635827 C6.79509449,25.8055512 6.98241732,25.7259449 7.1990315,25.7259449 L8.79871654,25.7259449 C9.01533071,25.7259449 9.20288976,25.8055512 9.36115748,25.9635827 C9.5194252,26.1216142 9.59855906,26.3091732 9.59855906,26.5255512 L9.59855906,28.1254724 Z M34.719189,10.2034252 C34.4028898,9.88665354 34.0275354,9.72838583 33.5943071,9.72838583 L25.5961181,9.72838583 L25.5961181,2.52980315 C25.5961181,1.86295276 25.3629685,1.29602362 24.8964331,0.829488189 C24.4298976,0.363425197 23.8627323,0.12980315 23.1963543,0.12980315 L11.9980866,0.12980315 C11.3317087,0.12980315 10.7650157,0.363188976 10.2984803,0.829488189 C9.83170866,1.29625984 9.59855906,1.86295276 9.59855906,2.52980315 L9.59855906,9.72838583 L1.59989764,9.72838583 C1.16643307,9.72838583 0.791551181,9.88665354 0.474779528,10.2034252 C0.158244094,10.5199606 -2.36220466e-05,10.8948425 -2.36220466e-05,11.3280709 L-2.36220466e-05,43.3229528 C-2.36220466e-05,43.7564173 0.158244094,44.1312992 0.474779528,44.4480709 C0.791787402,44.7643701 1.16690551,44.9226378 1.59989764,44.9226378 L12.6694252,44.9226378 L12.6694252,38.6715354 C12.6694252,38.004685 12.9025748,37.4379921 13.3693465,36.9712205 C13.8358819,36.5049213 14.4025748,36.2715354 15.0689528,36.2715354 L20.1254882,36.2715354 C20.7918661,36.2715354 21.3590315,36.5051575 21.8255669,36.9712205 C22.2921024,37.4377559 22.525252,38.004685 22.525252,38.6715354 L22.525252,44.9226378 L33.5950157,44.9226378 C34.0282441,44.9226378 34.4033622,44.7643701 34.7198976,44.4480709 C35.0359606,44.1312992 35.194937,43.7564173 35.194937,43.3229528 L35.194937,11.3280709 C35.1947008,10.8948425 35.0364331,10.5199606 34.719189,10.2034252 L34.719189,10.2034252 Z" id="Fill-3"></path>
                    </g>
                </g>
            </g>
        </g>
    </g>
</svg>