<?xml version="1.0" encoding="UTF-8" standalone="no"?>
<svg width="40px" height="50px" viewBox="0 0 40 50" version="1.1" xmlns="http://www.w3.org/2000/svg" xmlns:xlink="http://www.w3.org/1999/xlink">
    <!-- Generator: Sketch 41.2 (35397) - http://www.bohemiancoding.com/sketch -->
    <title>Group 17 Copy</title>
    <desc>Created with Sketch.</desc>
    <defs>
        <filter x="-50%" y="-50%" width="200%" height="200%" filterUnits="objectBoundingBox" id="filter-1">
            <feOffset dx="0" dy="2" in="SourceAlpha" result="shadowOffsetOuter1"></feOffset>
            <feGaussianBlur stdDeviation="2" in="shadowOffsetOuter1" result="shadowBlurOuter1"></feGaussianBlur>
            <feColorMatrix values="0 0 0 0 0   0 0 0 0 0   0 0 0 0 0  0 0 0 0.5 0" type="matrix" in="shadowBlurOuter1" result="shadowMatrixOuter1"></feColorMatrix>
            <feMerge>
                <feMergeNode in="shadowMatrixOuter1"></feMergeNode>
                <feMergeNode in="SourceGraphic"></feMergeNode>
            </feMerge>
        </filter>
    </defs>
    <g id="Page-1" stroke="none" stroke-width="1" fill="none" fill-rule="evenodd">
        <g id="MENU_3" transform="translate(-1121.000000, -1134.000000)" fill="#FFFFFF">
            <g id="Group-17-Copy" filter="url(#filter-1)" transform="translate(1125.000000, 1136.000000)">
                <g id="Page-1" transform="translate(0.000000, 6.394534)">
                    <path d="M3.23757849,31.6676809 L23.0214611,31.6676809 L23.0214611,3.51557052 L3.23757849,3.51557052 L3.23757849,31.6676809 Z M23.7453341,0 L2.24359811,0 C1.00455464,0 0,1.04968938 0,2.34436489 L0,32.6257447 C0,33.9204202 1.00455464,34.9701096 2.24359811,34.9701096 L23.7453341,34.9701096 C24.9845631,34.9701096 25.9889322,33.9204202 25.9889322,32.6257447 L25.9889322,2.34436489 C25.9889322,1.04968938 24.9845631,0 23.7453341,0 Z M12.9003367,18.7831492 C13.8885661,18.7831492 14.6897982,17.9395686 14.6897982,16.8986705 C14.6897982,15.8577725 13.8885661,15.0141919 12.9003367,15.0141919 C11.9121072,15.0141919 11.1108752,15.8577725 11.1108752,16.8986705 C11.1108752,17.9395686 11.9121072,18.7831492 12.9003367,18.7831492 Z M17.8974162,18.7831492 C18.8856457,18.7831492 19.6868777,17.9395686 19.6868777,16.8986705 C19.6868777,15.8577725 18.8856457,15.0141919 17.8974162,15.0141919 C16.9091868,15.0141919 16.1079547,15.8577725 16.1079547,16.8986705 C16.1079547,17.9395686 16.9091868,18.7831492 17.8974162,18.7831492 Z M7.90325707,18.7831492 C8.89148653,18.7831492 9.69271857,17.9395686 9.69271857,16.8986705 C9.69271857,15.8577725 8.89148653,15.0141919 7.90325707,15.0141919 C6.91502761,15.0141919 6.11379557,15.8577725 6.11379557,16.8986705 C6.11379557,17.9395686 6.91502761,18.7831492 7.90325707,18.7831492 Z M13.0353904,19.8591736 C12.0471609,19.8591736 11.2459289,20.7027542 11.2459289,21.7436522 C11.2459289,22.7847456 12.0471609,23.6283262 13.0353904,23.6283262 C14.0236198,23.6283262 14.8248518,22.7847456 14.8248518,21.7436522 C14.8248518,20.7027542 14.0236198,19.8591736 13.0353904,19.8591736 Z M18.0324699,19.8591736 C17.0442405,19.8591736 16.2430084,20.7027542 16.2430084,21.7436522 C16.2430084,22.7847456 17.0442405,23.6283262 18.0324699,23.6283262 C19.0206994,23.6283262 19.8219314,22.7847456 19.8219314,21.7436522 C19.8219314,20.7027542 19.0206994,19.8591736 18.0324699,19.8591736 Z M8.03831077,19.8591736 C7.05008131,19.8591736 6.24884927,20.7027542 6.24884927,21.7436522 C6.24884927,22.7847456 7.05008131,23.6283262 8.03831077,23.6283262 C9.02654023,23.6283262 9.82777227,22.7847456 9.82777227,21.7436522 C9.82777227,20.7027542 9.02654023,19.8591736 8.03831077,19.8591736 Z M17.9649987,24.7043507 C16.9767693,24.7043507 16.1755372,25.5479313 16.1755372,26.5888293 C16.1755372,27.6297273 16.9767693,28.473308 17.9649987,28.473308 C18.9532282,28.473308 19.7544602,27.6297273 19.7544602,26.5888293 C19.7544602,25.5479313 18.9532282,24.7043507 17.9649987,24.7043507 Z M7.97082102,24.7043507 C6.98259156,24.7043507 6.18135952,25.5479313 6.18135952,26.5888293 C6.18135952,27.6297273 6.98259156,28.473308 7.97082102,28.473308 C8.95905049,28.473308 9.76028252,27.6297273 9.76028252,26.5888293 C9.76028252,25.5479313 8.95905049,24.7043507 7.97082102,24.7043507 Z M7.30685029,12.6862376 L19.014967,12.6862376 C19.8252892,12.6862376 20.4821919,11.9944546 20.4821919,11.1411057 L20.4821919,8.04459044 C20.4821919,7.19124162 19.8252892,6.49945861 19.014967,6.49945861 L7.30685029,6.49945861 C6.49652811,6.49945861 5.83962543,7.19124162 5.83962543,8.04459044 L5.83962543,11.1411057 C5.83962543,11.9944546 6.49652811,12.6862376 7.30685029,12.6862376 Z M12.9679006,24.7043507 C11.9796711,24.7043507 11.1784391,25.5479313 11.1784391,26.5888293 C11.1784391,27.6297273 11.9796711,28.473308 12.9679006,28.473308 C13.9561301,28.473308 14.7573621,27.6297273 14.7573621,26.5888293 C14.7573621,25.5479313 13.9561301,24.7043507 12.9679006,24.7043507 Z" id="Combined-Shape"></path>
                </g>
                <path d="M7.75429108,0 C6.48894838,0 5.46341463,1.04232069 5.46341463,2.32790774 L5.46341463,5.00670007 L8.76902774,5.00670007 L8.76902774,3.49089165 L28.9699967,3.49089165 L28.9699967,31.4453777 L27.3181539,31.4453777 L27.3181539,34.7246238 L29.7091236,34.7246238 C30.9744663,34.7246238 32,33.6823031 32,32.396716 L32,23.4088674 L32,2.32790774 C32,1.04232069 30.9744663,0 29.7091236,0 L7.75429108,0 Z" id="Page-1"></path>
            </g>
        </g>
    </g>
</svg>