<?xml version="1.0" encoding="utf-8"?>
<!-- Generator: Adobe Illustrator 20.1.0, SVG Export Plug-In . SVG Version: 6.00 Build 0)  -->
<svg version="1.1" id="Layer_1" xmlns="http://www.w3.org/2000/svg" xmlns:xlink="http://www.w3.org/1999/xlink" x="0px" y="0px"
	 viewBox="0 0 106 91" style="enable-background:new 0 0 106 91;" xml:space="preserve">
<title>Page 1</title>
<desc>Created with Sketch.</desc>
<g id="Clip-4">
</g>
<g id="Clip-75">
</g>
<path d="M56.5,17.4c6.3,0,12,2.4,16,6.4c1,4.7,5.4,8.2,10.7,8.2c6,0,10.9-4.5,10.9-10.1c0-5.5-4.7-9.9-10.6-10.1
	C76.6,5.6,67,1.7,56.5,1.7c-16.2,0-30.1,9.1-36,22.1h20C44.5,19.9,50.2,17.4,56.5,17.4z M83.2,13c5.4,0,9.7,4,9.7,9
	c0,4.9-4.3,9-9.7,9c-5.4,0-9.7-4-9.7-9C73.5,17,77.9,13,83.2,13z M15.9,65.1c-1,0-1.9-0.4-2.6-1.4c-0.9-1.3-0.6-3.1,0.9-4l0,0
	c1.5-0.9,3.4-0.5,4.4,0.9c0.7,1,0.7,1.8,0.3,2.6l-1.5-0.5c0.2-0.5,0.2-0.9-0.1-1.4c-0.5-0.7-1.4-0.8-2.1-0.3l0,0
	c-0.8,0.5-1,1.3-0.6,1.9c0.3,0.5,0.8,0.6,1.4,0.7L15.9,65.1z M19.6,68.9l-1.1,0.9l-2.9-3.3l4.6-3.6l1.1,1.2l-3.5,2.7L19.6,68.9z
	 M24.7,67.7l-4.3,3.9l-1.2-1.1l4.3-3.9L24.7,67.7z M24,66.4l1.8-0.4l0.7,1.3l-1.7-0.1L24,66.4z M31.9,72.9l-3.4,4.6l-1.4-0.9
	l3.4-4.6L31.9,72.9z M34.6,78.4l0.7,1.3c-0.9,0.4-1.8,0.5-3-0.1c-1.5-0.8-2.1-2.4-1.3-3.9l0,0c0.8-1.4,2.7-2,4.3-1.2
	c1.1,0.5,1.5,1.3,1.7,2.1L35.4,77c-0.1-0.5-0.3-0.9-0.8-1.2c-0.7-0.4-1.6,0-2,0.7l0,0c-0.4,0.7-0.2,1.6,0.5,1.9
	C33.6,78.7,34,78.6,34.6,78.4z M39.8,76.6L35.3,81l1.7,0.6l0.8-0.8l2.2,0.7l0,1.1l1.7,0.6l-0.3-6.1L39.8,76.6z M38.6,79.8l1.2-1.3
	l0,1.7L38.6,79.8z M50.3,83L50.3,83c-0.2,1.1-1.3,1.7-2.7,1.4c-1.1-0.2-2-0.6-2.6-1.4l1.1-0.9c0.5,0.5,1.1,0.9,1.8,1
	c0.4,0.1,0.7,0,0.8-0.3l0,0c0-0.2-0.1-0.4-0.9-0.7c-1.2-0.5-2.1-1-1.9-2.1l0,0c0.2-1,1.2-1.6,2.6-1.4c1,0.2,1.8,0.5,2.3,1.1l-1,0.9
	c-0.5-0.4-1-0.7-1.6-0.8c-0.4-0.1-0.6,0.1-0.7,0.3l0,0c0,0.3,0.1,0.4,0.9,0.7C49.7,81.4,50.5,82,50.3,83z M53.4,79.3l-2.8,5.5
	l1.8,0.1l0.5-1l2.3,0.1l0.4,1l1.8,0.1L55,79.4L53.4,79.3z M53.4,82.7l0.7-1.6l0.6,1.6L53.4,82.7z M63.6,78.9l0.6,5.6l-1.5,0.1
	l-2.9-2.8l0.3,3L58.5,85l-0.6-5.6l1.6-0.1l2.8,2.7l-0.3-2.9L63.6,78.9z M69.5,79l-1.8,0.4l1.1,4.1l-1.6,0.4l-1.1-4.1l-1.8,0.4
	L64,78.8l5.2-1.1L69.5,79z M70.8,77.1l-0.3,6.1l1.7-0.6l0-1.1l2.2-0.7l0.8,0.8l1.7-0.6l-4.5-4.5L70.8,77.1z M72.2,80.3l0-1.7
	l1.2,1.3L72.2,80.3z M82.4,71.6l3.2,4.7l-1.4,0.8l-1.8-2.7l-0.1,2.6l0,0L79.7,76l1.8,2.7l-1.4,0.8L77,74.8l1.5-0.9l2.5,1.1l0-2.5
	L82.4,71.6z M84.6,69.9l2,5.8l1.3-1.1l-0.4-1l1.8-1.4l1,0.5l1.4-1.1L85.8,69L84.6,69.9z M88.1,71.6l-1,0.8l-0.6-1.6L88.1,71.6z
	 M93.1,64.8L93.1,64.8c-0.5-0.4-0.9-0.5-1.4-0.5c-0.6,0-1.2,0.3-1.8,1l-1.9,2l4.5,3.7l1.1-1.2l-1.4-1.1l0.5-0.5l0,0l2.2,0.3l1.3-1.3
	l-2.5-0.3C93.9,66.1,93.7,65.4,93.1,64.8z M92,67.1l-0.7,0.8L90.1,67l0.7-0.8c0.4-0.4,0.8-0.5,1.1-0.2l0,0
	C92.3,66.3,92.3,66.7,92,67.1z M92.8,61.8l4.9,3.3l-1,1.3L91.8,63L92.8,61.8z M90.9,61.1l1.3-0.9l0.1,1.5l-0.7,0.9L90.9,61.1z
	 M95.2,58.2l-0.8,1.3l4,4.9l0.9-1.4l-0.7-0.8l1.2-1.9l1.2,0.2l0.9-1.4L95.2,58.2z M97.7,61.1l-1.1-1.3l1.8,0.3L97.7,61.1z
	 M29.7,71.6l-3.8,4.3l-1.1-0.9l0.1-3.9l-2.1,2.4l-1.3-1l3.8-4.3l1.2,0.9l-0.1,3.7l2-2.3L29.7,71.6z M13.6,33.9
	c-0.1,0.1-0.3,0.2-0.5,0.3c-0.2,0.1-0.5,0.2-0.8,0.3c-0.3,0.1-0.6,0.1-1,0.2c-0.4,0.1-0.8,0.1-1.2,0.1c-0.9,0-1.7-0.1-2.4-0.3
	c-0.7-0.2-1.4-0.6-2-1.1c-0.5-0.5-1-1.1-1.3-1.7C4.2,30.9,4,30.1,4,29.3c0-0.9,0.2-1.6,0.5-2.3c0.3-0.7,0.7-1.3,1.3-1.8
	c0.6-0.5,1.2-0.8,2-1.1c0.8-0.2,1.6-0.4,2.5-0.4c0.7,0,1.4,0.1,2,0.2c0.6,0.1,1.1,0.3,1.6,0.5l0.2,0.1L14,24.8
	c-0.1,0.1-0.1,0.3-0.2,0.5c-0.1,0.2-0.1,0.4-0.1,0.6l0,0.1l-0.4,0.1L13.1,26c-0.1-0.1-0.2-0.2-0.4-0.4c-0.2-0.1-0.4-0.3-0.6-0.4
	c-0.2-0.1-0.5-0.2-0.8-0.3c-0.3-0.1-0.6-0.1-1-0.1c-0.6,0-1.2,0.1-1.7,0.3c-0.5,0.2-0.9,0.4-1.3,0.8c-0.4,0.4-0.7,0.8-0.9,1.4
	c-0.2,0.6-0.3,1.3-0.3,2c0,0.8,0.1,1.5,0.3,2.1c0.2,0.6,0.5,1,0.9,1.4c0.4,0.4,0.8,0.6,1.3,0.8c0.5,0.2,1.1,0.3,1.7,0.3
	c0.4,0,0.7,0,1-0.1c0.3-0.1,0.6-0.2,0.9-0.3c0.3-0.1,0.5-0.3,0.7-0.4c0.2-0.1,0.4-0.3,0.5-0.4l0.2-0.1l0.3,0.3L13.6,33.9L13.6,33.9z
	 M14.3,32.7c0.2,0.5,0.6,0.9,1,1.2c0.4,0.3,0.8,0.5,1.3,0.7c0.5,0.1,1,0.2,1.5,0.2c0.5,0,1-0.1,1.5-0.2c0.5-0.1,0.9-0.3,1.3-0.7
	c0.4-0.3,0.7-0.7,1-1.2c0.2-0.5,0.4-1.1,0.4-1.8c0-0.7-0.1-1.3-0.4-1.8c-0.2-0.5-0.6-0.9-1-1.2c-0.4-0.3-0.8-0.5-1.3-0.7
	c-1-0.3-2-0.3-2.9,0c-0.5,0.1-0.9,0.4-1.3,0.7c-0.4,0.3-0.7,0.7-1,1.2c-0.2,0.5-0.4,1.1-0.4,1.8C14,31.5,14.1,32.1,14.3,32.7z
	 M16,29.7c0.1-0.4,0.2-0.7,0.4-1c0.2-0.3,0.4-0.5,0.7-0.6c0.3-0.2,0.6-0.2,1.1-0.2s0.8,0.1,1.1,0.2c0.3,0.2,0.5,0.4,0.7,0.6
	c0.2,0.3,0.3,0.6,0.4,1c0.1,0.4,0.1,0.8,0.1,1.2c0,0.4,0,0.8-0.1,1.2c-0.1,0.4-0.2,0.7-0.4,1c-0.2,0.3-0.4,0.5-0.7,0.6
	c-0.3,0.2-0.6,0.2-1.1,0.2s-0.8-0.1-1.1-0.2c-0.3-0.2-0.5-0.4-0.7-0.6c-0.2-0.3-0.3-0.6-0.4-1c-0.1-0.4-0.1-0.8-0.1-1.2
	C15.9,30.4,15.9,30,16,29.7z M24.8,27.3c0,0.2,0,0.4,0,0.5c0.2-0.2,0.5-0.4,0.7-0.5c0.5-0.3,1-0.4,1.6-0.4c0.3,0,0.6,0,1,0.1
	c0.3,0.1,0.7,0.2,0.9,0.5c0.3,0.2,0.5,0.5,0.7,0.9c0.2,0.3,0.3,0.8,0.3,1.3c0,0.4,0,0.9,0,1.3c0,0.4,0,0.9,0,1.4l0,1.5l0,0.6l-0.3,0
	c-0.4,0-0.9,0-1.3,0l-0.3,0l0.1-1.8c0-0.5,0-1.1,0-1.7v-0.9c0-0.7-0.1-1.2-0.4-1.5c-0.3-0.3-0.6-0.5-1.1-0.5c-0.7,0-1.2,0.2-1.5,0.5
	c-0.3,0.4-0.5,0.9-0.5,1.7v1.3c0,0.4,0,0.9,0,1.4c0,0.5,0.1,0.9,0.1,1.3l0,0.3l-0.3,0c-0.5,0-0.9,0-1.4,0l-0.3,0l0-0.3
	c0.1-0.4,0.1-0.8,0.1-1.3c0-0.5,0-1,0-1.4v-1.5c0-0.4,0-0.9,0-1.4c0-0.5,0-1-0.1-1.4l0-0.3l0.3,0.1c0.3,0,0.5,0.1,0.7,0.1
	c0.1,0,0.2,0,0.2,0c0.1,0,0.2,0,0.4-0.1l0.3,0L24.8,27.3z M37.7,27.1l0.5-0.1L38,27.4c-0.6,1.2-1.1,2.4-1.7,3.5
	c-0.6,1.2-1.1,2.3-1.5,3.5l-0.1,0.2l-0.2,0c-0.3,0-0.6,0-0.9,0l-0.2,0l-0.1-0.2c-0.5-1.2-1-2.3-1.5-3.5c-0.5-1.2-1-2.3-1.6-3.5
	L30,27l0.4,0.1c0.1,0,0.3,0,0.4,0.1c0.2,0,0.4,0,0.7,0l0.5-0.1l0.1,0.2c0.3,1,0.7,1.9,1.1,2.9c0.3,0.8,0.7,1.6,1.1,2.4
	c0.1-0.3,0.3-0.6,0.4-0.8c0.2-0.5,0.4-1,0.6-1.5c0.2-0.5,0.4-1,0.6-1.5l0.7-1.7l0.2,0.1C37.2,27.2,37.4,27.2,37.7,27.1z M44.3,27.9
	c-0.3-0.3-0.7-0.5-1.1-0.7c-0.4-0.2-1-0.3-1.6-0.3c-1.3,0-2.3,0.4-2.9,1.1c-0.7,0.7-1,1.7-1,3c0,0.5,0.1,1,0.3,1.5
	c0.2,0.5,0.5,0.8,0.9,1.2c0.4,0.3,0.8,0.6,1.3,0.8c0.5,0.2,1.1,0.3,1.7,0.3c0.5,0,1.1-0.1,1.6-0.3c0.5-0.2,0.9-0.4,1.3-0.6l0.1-0.1
	l0.1-1l-0.4-0.2l-0.1,0.1c-0.1,0.1-0.3,0.3-0.5,0.4c-0.2,0.1-0.4,0.2-0.5,0.3c-0.2,0.1-0.4,0.2-0.6,0.2c-0.6,0.1-1.2,0.1-1.7-0.1
	c-0.3-0.1-0.6-0.3-0.8-0.5c-0.2-0.2-0.4-0.5-0.5-0.8c-0.1-0.3-0.2-0.7-0.2-1V31v0l0.8,0c0.9,0,1.9,0,2.8,0l1.9,0l0-0.2
	c0-0.1,0-0.2,0-0.3c0-0.1,0-0.2,0-0.3c0-0.4-0.1-0.9-0.2-1.2C44.8,28.5,44.6,28.2,44.3,27.9z M42.5,30c-0.7,0-1.4,0-2.1,0l-0.8,0
	c0-0.2,0.1-0.4,0.1-0.6c0.1-0.3,0.2-0.5,0.4-0.8c0.2-0.2,0.4-0.4,0.6-0.6c0.2-0.1,0.5-0.2,0.9-0.2c0.4,0,0.7,0.1,0.9,0.2
	c0.2,0.1,0.4,0.3,0.5,0.6c0.1,0.2,0.2,0.5,0.3,0.8c0,0.2,0.1,0.4,0.1,0.6L42.5,30z M45.9,31.6v-1.5c0-0.4,0-0.9,0-1.4
	c0-0.5,0-0.9-0.1-1.4l0-0.3l0.3,0.1c0.3,0,0.5,0.1,0.7,0.1c0.1,0,0.2,0,0.2,0c0.1,0,0.2,0,0.4-0.1l0.3,0l0,0.3c0,0.2,0,0.4,0,0.5
	c0.2-0.2,0.5-0.4,0.7-0.5c0.5-0.3,1-0.4,1.6-0.4c0.3,0,0.6,0,1,0.1c0.3,0.1,0.7,0.2,0.9,0.5c0.3,0.2,0.5,0.5,0.7,0.9
	c0.2,0.3,0.3,0.8,0.3,1.3c0,0.4,0,0.9,0,1.3c0,0.4,0,0.9,0,1.4v1.4l0.1,0.7l-0.3,0c-0.4,0-0.9,0-1.3,0l-0.3,0l0-0.3
	c0-0.5,0-1,0.1-1.6c0-0.5,0-1.1,0-1.7v-0.9c0-0.7-0.1-1.2-0.4-1.5c-0.3-0.3-0.6-0.5-1.1-0.5c-0.7,0-1.2,0.2-1.5,0.5
	c-0.3,0.4-0.5,0.9-0.5,1.7v1.3c0,0.4,0,0.9,0,1.4c0,0.5,0.1,0.9,0.1,1.3l0,0.3l-0.3,0c-0.5,0-0.9,0-1.4,0l-0.3,0l0-0.3
	c0.1-0.4,0.1-0.8,0.1-1.3C45.9,32.5,45.9,32,45.9,31.6z M54.5,31.6v-1.5c0-0.4,0-0.9,0-1.4c0-0.5,0-0.9-0.1-1.4l0-0.3l0.3,0.1
	c0.3,0,0.5,0.1,0.7,0.1c0.2,0,0.4,0,0.7-0.1l0.3-0.1l0,0.3c-0.1,0.4-0.1,0.9-0.1,1.4c0,0.5,0,0.9,0,1.4v1.5c0,0.4,0,0.9,0,1.4
	c0,0.5,0.1,0.9,0.1,1.3l0,0.3l-0.3,0c-0.5,0-0.9,0-1.4,0l-0.3,0l0-0.3c0.1-0.4,0.1-0.8,0.1-1.3C54.5,32.5,54.5,32,54.5,31.6z
	 M56.1,24c0.2,0.2,0.3,0.4,0.3,0.7s-0.1,0.5-0.3,0.7c-0.2,0.2-0.5,0.3-0.8,0.3c-0.3,0-0.5-0.1-0.7-0.3c-0.2-0.2-0.3-0.4-0.3-0.7
	s0.1-0.5,0.3-0.7C55,23.6,55.6,23.6,56.1,24z M64.2,27.8c-0.4-0.3-0.8-0.5-1.3-0.7c-1-0.3-2-0.3-2.9,0c-0.5,0.1-0.9,0.4-1.3,0.7
	c-0.4,0.3-0.7,0.7-1,1.2c-0.2,0.5-0.4,1.1-0.4,1.8s0.1,1.3,0.4,1.8c0.2,0.5,0.6,0.9,1,1.2c0.4,0.3,0.9,0.5,1.3,0.7
	c0.5,0.1,1,0.2,1.5,0.2c0.5,0,1-0.1,1.5-0.2c0.5-0.1,0.9-0.3,1.3-0.7c0.4-0.3,0.7-0.7,1-1.2c0.2-0.5,0.4-1.1,0.4-1.8
	c0-0.7-0.1-1.3-0.4-1.8C64.9,28.5,64.6,28.1,64.2,27.8z M63.5,32c-0.1,0.4-0.2,0.7-0.4,1c-0.2,0.3-0.4,0.5-0.7,0.6
	c-0.3,0.2-0.6,0.2-1.1,0.2c-0.4,0-0.8-0.1-1.1-0.2c-0.3-0.2-0.5-0.4-0.7-0.6c-0.2-0.3-0.3-0.6-0.4-1c-0.1-0.4-0.1-0.8-0.1-1.2
	s0-0.8,0.1-1.2c0.1-0.4,0.2-0.7,0.4-1c0.2-0.3,0.4-0.5,0.7-0.6c0.3-0.2,0.6-0.2,1.1-0.2c0.4,0,0.8,0.1,1.1,0.2
	c0.3,0.2,0.5,0.4,0.7,0.6c0.2,0.3,0.3,0.6,0.4,1c0.1,0.4,0.1,0.8,0.1,1.2C63.6,31.2,63.6,31.6,63.5,32z M46.2,46.1l-0.5-0.2
	l-0.6,0.2l-0.5,0.4c0,0,0-0.1,0-0.1c0-0.3-0.2-0.6-0.5-1l-0.1-0.1h-0.2c-0.4,0-0.8,0.1-1.1,0.4l-0.1,0.1l0,0.1
	c0,0.1-0.1,0.2-0.4,0.3l-0.1,0L42,46.2c-0.1,0.1-0.2,0.2-0.3,0.2l-0.5,0.2l-0.2,0L40.7,47l-0.1,0l-0.3,0.2L40,47.2l-0.8,0v-0.1
	L38.5,47l-0.1-0.1l-0.1,0c0,0-0.1-0.1-0.1-0.2l0-0.1l-0.1-0.1c-0.1,0-0.1-0.1-0.1-0.1v0c0,0,0-0.1,0-0.1c0-0.1,0-0.2,0-0.3l0.1-0.1
	v-0.1c0-0.1,0-0.3-0.1-0.7l0.1-0.3l0-0.2l0.2-0.1l0-0.1c0-0.1,0-0.2,0-0.2l0.3,0.1l0.7-0.3h0.4l0.5-0.3c0.4,0,0.7-0.1,0.9-0.4
	c0.4-0.2,0.9-0.5,1.4-0.8l0.1-0.1l0-0.4l0.4-0.5l0.2-0.6l0.3-0.2l-0.1-0.9l0.1-0.2l0-0.1c0-0.5-0.2-1-0.6-1.3v-0.1l-0.5-0.4l0,0
	c-0.2-0.1-0.4-0.2-0.6-0.3l-0.3-0.2l-0.1,0c-0.1-0.1-0.3-0.1-0.4-0.1c-0.1,0-0.3,0-0.9,0.2l-0.1,0l-0.1,0.1c-0.1,0-0.1,0.1-0.2,0.1
	l0,0c-0.1,0.1-0.2,0.2-0.3,0.3c-0.5,0.2-0.5,0.3-0.5,0.3c0,0,0,0-0.1,0.2l-0.2,0.1l0,0.1h-0.2l-0.1,0.2c-0.1,0.3-0.1,0.4-0.1,0.5
	l-0.1,0.1c-0.2,0.3-0.4,0.6-0.6,1c-0.1,0-0.1,0.1-0.1,0.1c-0.1,0-0.2-0.1-0.3-0.2L36.9,40l-0.2,0.4c-0.1,0.2-0.2,0.5-0.2,0.7
	c0,0.1,0,0.2,0.1,0.5c0.1,0.2,0.1,0.3,0.1,0.3c0,0,0,0,0,0c-0.3,0.2-0.4,0.5-0.4,0.8l0.1,0.6v0c-0.1,0.2-0.1,0.3-0.1,0.5L36.1,44
	l0,0.2L36,44.5l0,0.5l-0.1,0.3l-0.1,0.9l0.3,1v0.4l0.3,0.2l0.2,0.4l0.3,0.1l0,0c0.2,0.4,0.6,0.7,1.3,0.8l0.2,0.1h0.4
	c0.2,0.1,0.4,0.1,0.6,0.1c0.1,0,0.2,0,0.2,0l0.5,0.4l0.2-0.2c0.1-0.1,0.3-0.3,0.4-0.3c0.1,0,0.1,0,0.1,0l0.2,0.1l0.2-0.3
	c0.1,0,0.2-0.1,0.3-0.1l0.4,0.1l0.3-0.5l0.4-0.2l0.5-0.1l0.3-0.4l0.1,0l0.1-0.1c0.2-0.2,0.3-0.4,0.4-0.6c0.2-0.2,0.3-0.4,0.4-0.5
	v0.2c0,1.1,0.6,1.5,1,1.5c0.1,0,0.2,0.1,0.3,0.1l0.1,0l0.4,0.2l0.1-0.1c0.2-0.1,0.4-0.1,0.5,0l0.2,0c0.1,0,0.2,0,0.6,0
	c0.3,0.1,0.4,0.1,0.4,0.2l0.1,0.1l0.4-0.2l0.1,0l0.1,0l0.1,0c0.3,0,0.5,0,0.7,0l0.3,0.1l0.3-0.2l0.3,0l1.1,0.1v-0.2l0,0l0.3,0.1
	l0.3-0.2h0.5L53,48l0.5,0l0.2-0.4l0.2-0.1l0.3-0.6l0.3-0.3v-0.2c0-0.2,0-0.3-0.1-0.5l0.1-0.3L54,45.4c-0.2-0.1-0.3-0.3-0.4-0.4
	l0-0.1l-0.8-0.4h-0.2l0-0.1L52,44.3c-0.4-0.2-0.6-0.3-0.9-0.3l0,0l-1-0.2l-0.2-0.1l-0.5-0.1l-0.3-0.2h-0.5c-0.1-0.1-0.3-0.2-0.5-0.3
	L48,43v-0.1l-0.2-0.1c-0.1,0-0.2-0.1-0.2-0.1c0,0,0-0.1,0-0.3c0-0.1,0-0.2,0.1-0.3l0.2-0.1l0.2-0.3l0,0l0.2-0.2l0.1,0l0.1,0l0.3-0.1
	l0.2-0.1h0.3l0.1-0.1c0.2-0.1,0.3-0.2,0.5-0.2h0.1l0.1,0c0.1-0.1,0.2-0.1,0.4-0.1h0.1l0.1-0.1l0.2,0.2l0.4-0.1l0,0
	c0.2,0.3,0.5,0.4,0.8,0.4c0.3,0,0.7-0.1,0.9-0.7l0.3-0.8l-0.4-0.2v-0.1l-0.1-0.1c-0.2-0.2-0.3-0.3-0.4-0.4l-0.1-0.2l-1.6-0.1
	L49.8,39l-0.4,0L49,39.1l-1.4,0.5l-0.4,0.3c-0.2,0.1-0.3,0.2-0.4,0.3l-0.4,0.1v0.2c0,0.1,0,0.2-0.2,0.3l0,0l0,0
	c-0.2,0.3-0.4,0.6-0.4,0.9l-0.1,0.1l0.1,1.2l0.3,0.4l0.4,0.7l0.6,0.4l0.1,0.2l0.9,0.2l0.2,0.1l0.7,0.3l0.4,0.3h0l0.2,0.2l0.4-0.1
	l0.1,0h0.2c0.2,0.1,0.4,0.1,0.6,0.1c0,0,0.1,0,0.1,0l0.2,0.2l0.1,0l0.1,0.2h0.2l0.1,0.1c-0.2,0.1-0.3,0.1-0.5,0.1l-0.1,0l0,0.1
	l-0.4,0l0,0.1l-0.6,0.1l-2.8,0.2l0,0l-0.1,0v-0.3l-0.3,0c-0.1-0.1-0.2-0.2-0.3-0.3v-0.2H46.2z M39.7,41.1l0.4-0.6l0.2-0.2l0.4-0.5
	l0.3,0l0.2-0.1c0.1,0,0.2,0,0.2,0h0c0,0,0,0,0,0c0,0.1,0,0.1,0,0.2l-0.3,0.4l0,0.2l-0.4,0.1v0.2l-0.1,0L40.5,41l-0.1,0h-0.3L40,41.3
	l-0.4,0L39.7,41.1z M39.6,41.3L39.6,41.3l0,0.1C39.5,41.3,39.5,41.3,39.6,41.3z M39.5,41.4L39.5,41.4l0,0.1
	C39.5,41.5,39.5,41.5,39.5,41.4z M44.5,46.4c0,0,0,0.1-0.1,0.1L44.5,46.4L44.5,46.4z M57.1,39.6c0.1,0,0.1,0,0.2-0.1
	c0.2-0.4,1-0.5,1.3-0.5l0,0l0,0c0.6,0.1,1,0.3,1.2,0.5c0.1,0,0.3,0.1,0.4,0.2l0.5,0l0.4,0.5c0.1,0.1,0.1,0.3,0.2,0.4l0.2,0.2
	l-0.1,0.4c0,0.1,0,0.2,0,0.3l0.1,0.1V42l0.1,0.7l-0.1,0.1c-0.4,0.3-0.8,0.5-1.2,0.6l-0.2,0l-0.1-0.1c-0.2-0.3-0.4-0.6-0.7-0.7
	l-0.1-0.1l0-0.8l-0.1-0.2v-0.1L59,41.2l-0.1,0h-0.3c-0.1,0-0.3,0.1-0.4,0.3c-0.2,0.2-0.3,0.4-0.5,0.6l0,0.2l-0.1,0.1v0.4l-0.3,0.3
	l-0.3,0.8l0,0.3l-0.2,0.4l0.1,0.6l-0.2,0.1l0,0.4l0,0l0.3,0.2l0.1,0.4l0.3,0.1l0,0.1l0.4,0.1c0.1,0,0.3-0.1,0.4-0.1h0.1
	c0.2-0.1,0.3-0.1,0.5-0.1c0.1,0,0.2-0.1,0.3-0.1c0.2-0.2,0.5-0.4,0.9-0.4h0.1c0.2-0.3,0.5-0.5,0.9-0.5c0.5-0.4,0.6-0.6,0.6-0.7
	l0-0.1l0.1-0.1c0.1-0.1,0.2-0.2,0.3-0.4l0-0.1l0.1-0.1l0.1-0.6l0.3,0c1,0.1,1.3,0.7,1.3,1.2V45l-0.4,0.4l0,0
	c-0.1,0.3-0.2,0.5-0.4,0.7c-0.4,0.6-0.9,1.1-1.6,1.4l-0.4,0.3l-0.3,0l-0.4,0.3l-0.3,0l-0.6,0.3l-0.4,0l-0.4,0.2l-0.3-0.1l-0.1,0.1
	l-0.5-0.1l-0.5,0.1l-0.2-0.2l-0.4-0.1l-0.7-0.5l-0.4-0.4C55.1,47.2,55,47,55,46.7l-0.2-0.3v-0.3c0-0.2-0.1-0.3-0.1-0.5v-0.1
	l-0.1-0.4l0.1-0.2l-0.1-0.2l0.3-0.4l-0.1-0.3l0.2-0.7l0.1-0.1l0.1-0.4l-0.1-0.2l0.3-0.3l0-0.2l0.2-0.5l0.3-0.7l0.4-0.3l0.1-0.1
	l0.1-0.2l0-0.2L57.1,39.6L57.1,39.6z M65.2,42c0,0.2,0,0.3-0.1,0.5l0,0.1v0.1l0.1,0.2c0,0-0.1,0.1-0.1,0.1L65,43.2v0.4l-0.1,0.3
	l0,0.1c-0.2,0.3-0.3,0.5-0.3,0.7c-0.2,0.2-0.2,0.4-0.2,0.7c0,0.1,0,0.2,0,0.4L64.2,46l0.1,0.5l-0.2,0.3l0.4,0.7l-0.1,0.4l0.6,0.6
	l0.4,0.6l1.1,0.1l0.4,0.2l0.4-0.1l0.3,0l0.3-0.2l0.2-0.1l0.2-0.1c0.2,0,0.4-0.1,0.5-0.1c0.4,0,0.7-0.2,0.9-0.5h0
	c0.3-0.1,0.6-0.3,0.8-0.5l0.5-0.2l0-0.3l0.2-0.1l0.2-0.4l0.3-0.2l0.1-0.2l0.2-0.1l0.2-0.6l0.3-0.2l0.1-0.3l0.1-0.2v-0.2l0.1-0.2l0,0
	c0-0.2,0.1-0.5,0.1-0.9l0.1-0.4l-0.2-0.8v-0.2l-0.4-1l-0.5-0.7l-0.1-0.1l-0.1-0.1c-0.3-0.3-0.5-0.5-0.7-0.7l-0.1-0.1h-0.2l-0.3-0.2
	h-0.2L70,39.4l-0.4-0.4l-0.7,0.2l-0.1,0c-0.3-0.1-0.6-0.1-1,0h-0.4l0,0.2c0,0.2-0.1,0.4-0.3,0.5l-0.7,0.2l0,0.6L66.1,41h-0.3
	l0.1,0.2L65.2,42L65.2,42z M66.3,46.6l0-0.7l0-0.1l0.2-0.5l0-0.2l0.1-0.1v-0.2c0.1-0.1,0.1-0.2,0.1-0.3c0.2-0.2,0.2-0.4,0.2-0.6
	v-0.1l0.2-0.2v-0.1c0-0.1,0-0.2,0.1-0.4l0.3-0.1l0.1-0.5l0.2-0.1l0.1-0.2l0.5-0.2l0.3-0.6l0.3-0.3c0,0,0.1,0,0.1,0l0.1,0l0.4,0.1
	l0.1,0.1l0.3,0.5l0.1,0c0,0.2,0.1,0.3,0.2,0.4c0.1,0.1,0.2,0.2,0.3,0.3l0,0l0,0.4l0.2,0.3l0,0.1l0,0.1c0,0.1,0.1,0.2,0.2,0.3l0,0
	c-0.1,0.2-0.2,0.4-0.2,0.5c0,0.1,0,0.2,0.1,0.3l-0.1,0.2L70.4,45v0.3l-0.1,0.2l0,0L70,45.7L69.7,46l-0.5,0.3l0,0.1
	c-0.3,0.1-0.6,0.3-0.7,0.4l-0.2,0L68.2,47l-0.2,0.1l-0.1,0l-0.2,0c-0.1,0-0.1,0-0.2,0h-0.3l-0.1,0.2l-0.5,0l-0.1,0.1l-0.3-0.1
	L66.3,47l0-0.2L66.3,46.6z M73.7,43.2l0.2,0.4c0,0.1,0,0.4-0.1,1l0,0c0,0.1,0,0.2,0,0.3l0,0.5l0,0.5l0.1,0.8l0.2,0.2l0.1,0.4
	l0.1,0.1c0.1,0.1,0.1,0.1,0.1,0.2v0.1l0.2,0.3l0.5,0.2c0.1,0.1,0.4,0.1,0.8,0.1c0.4,0,0.8-0.1,1-0.2c0.2,0,0.4,0,0.6-0.1l0.1,0
	c0.1-0.2,0.3-0.3,0.6-0.3l0.1,0l0.1-0.1l0.2,0l0.4-0.2l0.2-0.1l0.2-0.3l0.2-0.1c0.3-0.2,0.5-0.4,0.6-0.6c0.1-0.1,0.2-0.2,0.2-0.3
	l0.1,0.3l0,0.2l-0.1,0.1l0,0.1c0,0.6,0.4,1.1,1.2,1.5c0.2,0.3,0.6,0.4,1,0.4l0.1,0l0.3-0.2l0.5-0.1l0.8-0.8l0.8-0.4l0.1-0.3l0.4-0.4
	l0.2-0.3l0.5-0.5l0.3-0.5l0.2-0.1l0.2-0.5l-0.1,0.6l0.1,1.2v0.1c0,0.2,0,0.5,0.1,0.8v0.4l0.9,1l0.2-0.1l0.1,0.1l0.6-0.3
	c0.2-0.1,0.4-0.2,0.5-0.3l0.4-0.4l0-0.1c0-0.2-0.1-0.3-0.2-0.5l-0.1-0.1l0-0.1l-0.4-0.6l-0.3,0c0,0,0-0.1,0-0.1v0l0.2-0.7l-0.2,0
	l0.3-0.4l-0.2-0.1l0.1-0.1l-0.1-0.4l0.1-0.3v-0.3l0.3-0.3l-0.3-0.3l0-0.1l0.2-0.2l-0.1-0.3l0.1-0.2l0-0.1c0,0,0-0.1,0-0.2
	c0-0.1,0-0.2-0.1-0.3c0.1-0.1,0.2-0.3,0.2-0.6v0l0,0l0.1-0.5l0.3-0.4L89.8,40l0.3-0.4l-0.6-0.2l-0.3-0.6l-1,0.2L88,39l-0.9-0.7v0.3
	c-0.1,0-0.3-0.1-0.4-0.1l-0.3-0.1v-0.2l-2-0.1l-1,0.4l-0.2-0.2L83,38.6c-0.1,0.2-0.3,0.4-0.5,0.7c-0.3,0.3-0.4,0.5-0.5,0.7l0,0v0.1
	c-0.1,0.1-0.1,0.2-0.1,0.3c0,0,0,0,0,0l-0.1,0.1l0,0.4c-0.2,0.2-0.3,0.5-0.3,0.8l-0.3,0.4l0.1,0.2c-0.1,0.1-0.1,0.2-0.1,0.3
	c-0.2,0.1-0.3,0.3-0.3,0.5c0,0.1,0,0.1,0,0.1c0,0,0,0.1,0,0.1c0,0,0,0.1,0,0.1l0,0.1c-0.1,0.3-0.2,0.4-0.2,0.6c0,0.1,0,0.1,0,0.2
	c0,0.1,0,0.1,0,0.2c0,0,0,0.1,0,0.1l-0.2,0.7l0,0.4L80.4,46c0,0.1,0,0.1,0,0.2l0,0l0.1-0.1c0,0,0,0,0-0.1c0-0.3-0.1-0.6-0.2-0.7
	c-0.1-0.2-0.4-0.3-0.7-0.3l-0.1,0l-0.1,0.1c0,0-0.1,0-0.3,0h-0.1l0,0c-0.4,0.1-0.5,0.4-0.5,0.5c-0.1,0.1-0.2,0.2-0.3,0.2
	c-0.2,0.1-0.4,0.2-0.6,0.3l-0.1,0.1l0,0c0,0.1-0.1,0.1-0.2,0.1h0c-0.1,0-0.2,0-0.3,0l-0.3,0l-0.1,0.1l-0.1,0l-0.1,0
	c0-0.1-0.1-0.1-0.1-0.2l0-0.1l-0.1-0.3l0-0.3l-0.1-0.3c0-0.1,0-0.3,0-0.5c0,0,0-0.1,0-0.1l0.1-0.6l0.1-0.6L76,43.4l0.1-0.9L76,42.2
	l0.1-0.4l0-0.5l0.1-0.7l0-0.2c0.1-0.1,0.1-0.3,0.1-0.4c0,0,0-0.1,0-0.2l0.1-0.3l-0.2-0.3l0,0c0-0.1,0-0.3,0-0.3
	c0.1-0.2,0.1-0.4,0.1-0.6l0.2-0.5l-0.1-0.4l0-0.4c0-0.1,0.1-0.2,0.1-0.5l0-0.1l0-0.1l0.2-0.5l-0.4-0.4l0-0.1l0-0.1
	C76,35.1,75.8,35,75.6,35l0,0h-0.2v0.2l0,0l-0.1-0.2c0,0-0.1,0-0.8,0.2l-0.2,0l-0.2,1.5l0.1,0.2l-0.1,0.5l0,0.7l0.1,0.2l-0.1,0.9
	l0,0.8l-0.1,0.1l0,0.8l0,0.1l-0.2,0.3l0.1,0.4L73.9,42l0,0.4l-0.1,0.4L73.7,43.2z M82.6,45.2l0.2-0.4l-0.1-0.1c0-0.1,0-0.2,0-0.3
	l0.1-0.1v-0.2l0,0l0.1-0.2l0.2-0.2v-0.4l0.2-0.2V43c0-0.2,0.1-0.4,0.2-0.7l0.1-0.1l0,0l0.4-0.3l-0.3-0.4l0.2-0.6
	c0.1-0.1,0.2-0.2,0.5-0.4l0.1,0l0.1-0.1l0.7-0.2h0.1l0.2,0.1l0.1,0l0.5,0l0.4,0.1l0.7,0.5l0.1,0l0,0.1l-0.2,0.2l-0.1,0.3l-0.2,0.3
	l0,0.1l-0.1,0.2l-1.1,1.4c-0.1,0.1-0.2,0.2-0.2,0.3c0,0-0.1,0.1-0.1,0.1l-0.5,0.1l0.1,0.3h-0.1l-0.2,0.4c-0.1,0.1-0.2,0.1-0.3,0.1
	l-0.1,0L84.2,45l-0.1,0l-1.4,1.1l0,0.1l-0.1,0l0.1-0.1l-0.2-0.4l0.2-0.2L82.6,45.2z M93.9,42.4l0.3-0.3l0.2-0.3
	c0.2-0.2,0.4-0.3,0.6-0.4l0.3-0.4l0.3,0l0.1-0.1l0.3-0.1l0.2-0.2l0.2,0l0,0l0.1-0.1l0.3-0.2l0.4-0.2l0.6-0.2c0.3,0,0.4,0,0.4,0h0.1
	c0,0,0,0,0,0c0.1-0.1,0.3-0.1,0.5-0.1c0.1,0,0.2,0,0.3,0c0.5,0,0.8,0.3,0.9,0.7l0,0l-0.2,0.9l-1,0.1l-0.5,0.3l-0.3-0.1l-0.2,0.1
	l-0.3,0.1l-0.1,0.1V42l-0.6,0.2l-0.4,0.4h-0.2c-0.2,0.2-0.3,0.3-0.4,0.4l-0.3,0.5l-0.1,0c0,0.1-0.1,0.2-0.1,0.4l0,0.1l-0.3,0.1
	l-0.1,0.2l-0.1,0.2L94.5,45L94.3,45v0.2c0,0,0,0,0,0.1l0.2,0.2l-0.5,0.2l0,0.2l-0.2,0.3l0.1,0.3l-0.3,0.4c0,0.1,0,0.2,0,0.2l0,0.2
	c0,0,0,0,0,0l0,0.1l0.5,0.5l-0.4,0.7l-0.4,0.2l-0.7,0.3l-1.1-0.4v-0.6l-0.1-0.2l0.1-0.3c0-0.2,0-0.4,0-0.5c0-0.1,0-0.1,0-0.2l0-0.2
	c-0.1-0.1-0.2-0.3-0.2-0.4c0-0.1,0.1-0.3,0.2-0.4c0-0.1,0-0.2,0-0.5l0-0.1l0.1,0l0-0.2l0-0.2l0-0.1l0.1-0.4l-0.2-0.2l0.1-0.3
	l-0.1-0.2l0-0.1c0-0.1,0-0.2,0-0.3c0-0.2,0-0.3,0-0.3l-0.1-0.1l0.1-0.2l-0.1-0.2l-0.2-0.3l0.1-0.3l-0.1-0.1l-0.1-0.6v-0.1
	c-0.1-0.1-0.1-0.2-0.1-0.4c0-0.6,0.9-0.9,1.2-0.9l0.1,0l0.8,0.1l0.1,0.5l0.3,0.3L93.3,41c0,0.3,0.1,0.6,0.2,0.9l0.1,0.3
	c0,0,0,0.1,0.1,0.3l0,0c0,0.1,0,0.2-0.1,0.3l0,0.2l0.1-0.2l0.3-0.2L93.9,42.4z M76.6,22.8v-3.4c4.4,0,8.1,3.2,9,7.6
	c0,0.2,0,0.3-0.1,0.4c-0.2,0.2-0.4,0.3-0.7,0.3l-3.8,0v-4.1h-3.7C77,23.6,76.6,23.3,76.6,22.8z M81.1,19.5v-3.3
	c0-0.4,0.4-0.8,0.9-0.8h3.7v4.1h3.7c0.5,0,0.9,0.4,0.9,0.8v3.4l0,0C88.1,20.8,84.4,19.5,81.1,19.5z M20,52.1h19.9
	c4,4,9.8,6.5,16.2,6.5c6.4,0,12.1-2.5,16.2-6.5h19.9c-5.9,13-19.8,22.2-36.1,22.2S25.9,65.1,20,52.1z"/>
</svg>
