<?xml version="1.0" encoding="UTF-8" standalone="no"?>
<svg width="79px" height="65px" viewBox="0 0 79 65" version="1.1" xmlns="http://www.w3.org/2000/svg" xmlns:xlink="http://www.w3.org/1999/xlink">
    <!-- Generator: Sketch 41.2 (35397) - http://www.bohemiancoding.com/sketch -->
    <title>Page 1</title>
    <desc>Created with Sketch.</desc>
    <defs>
        <filter x="-50%" y="-50%" width="200%" height="200%" filterUnits="objectBoundingBox" id="filter-1">
            <feOffset dx="0" dy="2" in="SourceAlpha" result="shadowOffsetOuter1"></feOffset>
            <feGaussianBlur stdDeviation="2" in="shadowOffsetOuter1" result="shadowBlurOuter1"></feGaussianBlur>
            <feColorMatrix values="0 0 0 0 0   0 0 0 0 0   0 0 0 0 0  0 0 0 0.5 0" type="matrix" in="shadowBlurOuter1" result="shadowMatrixOuter1"></feColorMatrix>
            <feMerge>
                <feMergeNode in="shadowMatrixOuter1"></feMergeNode>
                <feMergeNode in="SourceGraphic"></feMergeNode>
            </feMerge>
        </filter>
    </defs>
    <g id="Page-1" stroke="none" stroke-width="1" fill="none" fill-rule="evenodd">
        <g id="MENU_2" transform="translate(-602.000000, -220.000000)" fill="#FFFFFF">
            <g id="Page-1" filter="url(#filter-1)" transform="translate(606.000000, 222.000000)">
                <path d="M11.7867453,44.7365857 C13.1577122,39.4286061 15.9890823,36.969851 26.0863807,35.8465245 C27.0074193,30.3838306 23.240889,32.8212592 22.8627453,24.1619122 C22.5375575,16.7181776 26.5535685,12.531198 31.173668,11.0150755 C30.8041541,3.11921837 26.999574,0.528626531 22.0535022,0.528626531 C16.6531873,0.528626531 11.8981486,3.61632041 12.2755077,12.7204224 C12.6148171,20.9113612 17.3733862,18.0280143 15.3779331,25.1599939 C3.55741381,26.8292796 1.05750773,27.9902184 0.0737066298,37.4231367 L0.0270270718,38.6655041 C0.0270270718,38.6655041 -0.239320994,41.0459327 0.904524309,42.7121163 C1.89420939,44.1541776 4.6530105,44.6156061 6.96580608,44.7365857 L9.97448011,44.7365857 C10.3271265,44.7183612 10.5346348,44.7016878 10.5346348,44.7016878 L10.4903088,44.7365857 L11.7867453,44.7365857 Z" id="Fill-1"></path>
                <path d="M70.6240138,37.8721184 C70.4608315,29.0173429 67.4941298,26.6070571 53.8197652,24.1762204 C51.5171685,17.1958531 57.2454171,20.9830571 57.5043122,12.7952204 C57.8110635,3.08350612 53.7687707,7.75510198e-05 48.3684558,7.75510198e-05 C43.261163,7.75510198e-05 38.7340304,2.76477143 38.5759475,10.7645469 C43.4345442,12.0138939 47.7043508,16.2148327 47.4242735,24.6174857 C47.1359586,33.2741184 42.2051851,31.2942408 43.5867431,35.6948735 C54.0684613,37.3839347 57.9365884,39.4359347 59.3099088,44.2080367 L64.5482182,44.2080367 C66.6907707,44.0323837 69.016511,43.5294653 69.9077376,42.2304857 C70.6683398,41.1226694 70.6463729,39.1044041 70.6240138,37.8721184" id="Fill-3"></path>
                <path d="M51.5518448,56.9402857 C53.6943972,56.7646327 56.0205298,56.2617143 56.9113641,54.9627347 C57.6723586,53.8549184 57.6499994,51.8366531 57.6276403,50.6043673 C57.464458,41.7495918 54.4981486,39.3393061 40.8233917,36.9084694 C38.520795,29.928102 44.2490436,33.7153061 44.5079387,25.5274694 C44.8150823,15.8157551 40.7727895,12.7323265 35.3720823,12.7323265 C29.9713751,12.7323265 25.2163365,15.8200204 25.5936956,24.9241224 C25.933005,33.1150612 30.6919663,30.2317143 28.696121,37.3636939 C16.8759939,39.0329796 14.3760878,40.1939184 13.3922867,49.6268367 L13.3452149,50.8692041 C13.3452149,50.8692041 13.0792591,53.2496327 14.2231044,54.9158163 C15.2123972,56.3578776 17.9715906,56.8193061 20.2843862,56.9402857 L23.2930602,56.9402857 C23.6453144,56.9220612 23.8532149,56.9053878 23.8532149,56.9053878 L23.8084967,56.9402857 L51.5518448,56.9402857 Z" id="Fill-5"></path>
            </g>
        </g>
    </g>
</svg>