<?xml version="1.0" encoding="UTF-8" standalone="no"?>
<svg width="21px" height="20px" viewBox="0 0 21 20" version="1.1" xmlns="http://www.w3.org/2000/svg" xmlns:xlink="http://www.w3.org/1999/xlink">
    <!-- Generator: Sketch 41.2 (35397) - http://www.bohemiancoding.com/sketch -->
    <title>Page 1</title>
    <desc>Created with Sketch.</desc>
    <defs></defs>
    <g id="Symbols" stroke="none" stroke-width="1" fill="none" fill-rule="evenodd">
        <g id="Cabecera" transform="translate(-1288.000000, -7.000000)" fill="#252424">
            <g id="Page-1" transform="translate(1288.000000, 7.000000)">
                <g id="Group-3">
                    <path d="M20.3709,19.1858661 C19.9509,19.7019375 19.3209,19.9903304 18.6459,19.9903304 L2.2059,19.9903304 C1.5459,19.9903304 0.9159,19.7019375 0.4959,19.1858661 C0.0759,18.6849732 -0.0891,18.0171161 0.0459,17.3796161 C0.7659,14.1162232 3.0609,11.4751518 6.0309,10.1394375 C7.2459,11.0805089 8.7609,11.6572946 10.4259,11.6572946 C12.0909,11.6572946 13.6209,11.0805089 14.8359,10.1394375 C17.1909,11.1867589 19.1259,13.0537232 20.1909,15.4822946 C20.4609,16.0894375 20.6709,16.7269375 20.8059,17.3796161 C20.9559,18.0171161 20.7909,18.6849732 20.3709,19.1858661 M10.4259,0.000151785714 C7.7409,0.000151785714 5.5659,2.12515179 5.5659,4.75104464 C5.5659,7.3769375 7.7409,9.48675893 10.4259,9.48675893 C13.1109,9.48675893 15.3009,7.3769375 15.3009,4.75104464 C15.3009,2.12515179 13.1109,0.000151785714 10.4259,0.000151785714" id="Fill-1"></path>
                </g>
            </g>
        </g>
    </g>
</svg>