<?xml version="1.0" encoding="UTF-8" standalone="no"?>
<svg width="74px" height="67px" viewBox="0 0 74 67" version="1.1" xmlns="http://www.w3.org/2000/svg" xmlns:xlink="http://www.w3.org/1999/xlink">
    <!-- Generator: Sketch 41.2 (35397) - http://www.bohemiancoding.com/sketch -->
    <title>Group 4 Copy 2</title>
    <desc>Created with Sketch.</desc>
    <defs>
        <filter x="-50%" y="-50%" width="200%" height="200%" filterUnits="objectBoundingBox" id="filter-1">
            <feOffset dx="0" dy="2" in="SourceAlpha" result="shadowOffsetOuter1"></feOffset>
            <feGaussianBlur stdDeviation="2" in="shadowOffsetOuter1" result="shadowBlurOuter1"></feGaussianBlur>
            <feColorMatrix values="0 0 0 0 0   0 0 0 0 0   0 0 0 0 0  0 0 0 0.5 0" type="matrix" in="shadowBlurOuter1" result="shadowMatrixOuter1"></feColorMatrix>
            <feMerge>
                <feMergeNode in="shadowMatrixOuter1"></feMergeNode>
                <feMergeNode in="SourceGraphic"></feMergeNode>
            </feMerge>
        </filter>
    </defs>
    <g id="Page-1" stroke="none" stroke-width="1" fill="none" fill-rule="evenodd">
        <g id="MENU_1" transform="translate(-465.000000, -222.000000)" fill="#FFFFFF">
            <g id="Group-4-Copy-2" filter="url(#filter-1)" transform="translate(469.000000, 224.000000)">
                <path d="M25.8404623,33.7752524 C25.2840072,34.5229871 24.5647257,34.8031367 23.6537677,34.9379939 C22.6451928,35.0877014 21.680091,35.2466401 20.7493725,35.4148102 C21.5749653,37.393919 25.7096479,46.1652524 33.8964144,45.4528374 C41.5709892,44.7845721 44.8634802,37.6339327 45.7527018,35.2526605 C45.0812407,35.1454973 44.3951569,35.0419463 43.6865461,34.9420075 C43.0644862,34.8541095 42.0258754,35.0118442 41.2322946,34.442715 C40.2596838,33.7435449 39.2175162,32.2918478 39.2175162,31.7668442 C39.2175162,27.2165602 44.3034683,30.0476784 43.6865461,20.9277014 C43.6135894,19.8491805 25.6918635,15.4407014 25.8404623,14.4140211 C26.1946625,14.428305 26.8236108,14.4768248 27.655071,14.5507759 C33.4587119,15.066959 42.7155171,16.9392408 43.6865461,16.9392408 C47.1114323,16.9392408 54.8425222,14.4140211 54.8425222,14.4140211 L49.7047976,12.8085789 L44.301097,11.1738374 C44.2939832,10.331783 44.1252287,7.61457211 44.0398635,6.92222517 C43.4486299,2.12998027 40.375085,0.177361224 30.7347377,0.0990959184 C24.4050611,0.0477217687 21.4959234,1.24618435 20.5908934,5.45043605 C20.448618,6.11107551 20.2616838,10.5079803 20.1956838,11.2031367 C19.8166778,15.1794156 20.1956838,16.9392408 22.3086256,24.4445071 C24.1536941,30.9982752 25.6175641,25.8026265 26.3277557,31.984783 C26.3957317,32.5715721 26.3965222,33.027919 25.8404623,33.7752524 Z" id="Fill-5"></path>
                <path d="M65.7175042,54.2787156 L65.7558395,54.2787156 C64.0738275,41.5463551 58.7005581,37.7410558 48.4247138,35.723015 C47.5856838,38.9013891 44.110606,48.7973347 33.3692048,48.7973347 C25.0350251,48.7973347 18.4318635,38.6778313 16.9518036,36.2215048 C7.12570778,38.6681986 2.43812695,43.1895252 0.387384431,54.2787156 L0.988102994,54.2787156 L0.695647904,54.5512395 C0.695647904,58.2786748 4.9896,58.9409197 9.75701317,58.9409197 L57.8816838,58.910015 C62.6494922,58.910015 65.9739952,58.2786748 65.9739952,54.5512395 L65.7175042,54.2787156 Z" id="Fill-7"></path>
            </g>
        </g>
    </g>
</svg>