<?xml version="1.0" encoding="UTF-8" standalone="no"?>
<svg width="40px" height="47px" viewBox="0 0 40 47" version="1.1" xmlns="http://www.w3.org/2000/svg" xmlns:xlink="http://www.w3.org/1999/xlink">
    <!-- Generator: Sketch 41.2 (35397) - http://www.bohemiancoding.com/sketch -->
    <title>Page 1</title>
    <desc>Created with Sketch.</desc>
    <defs>
        <filter x="-50%" y="-50%" width="200%" height="200%" filterUnits="objectBoundingBox" id="filter-1">
            <feOffset dx="0" dy="2" in="SourceAlpha" result="shadowOffsetOuter1"></feOffset>
            <feGaussianBlur stdDeviation="2" in="shadowOffsetOuter1" result="shadowBlurOuter1"></feGaussianBlur>
            <feColorMatrix values="0 0 0 0 0   0 0 0 0 0   0 0 0 0 0  0 0 0 0.5 0" type="matrix" in="shadowBlurOuter1" result="shadowMatrixOuter1"></feColorMatrix>
            <feMerge>
                <feMergeNode in="shadowMatrixOuter1"></feMergeNode>
                <feMergeNode in="SourceGraphic"></feMergeNode>
            </feMerge>
        </filter>
        <polygon id="path-2" points="31.5044559 0.0830029833 0 0.0830029833 0 38.3646907 31.5044559 38.3646907 31.5044559 0.0830029833"></polygon>
    </defs>
    <g id="Page-1" stroke="none" stroke-width="1" fill="none" fill-rule="evenodd">
        <g id="MENU_5" transform="translate(-428.000000, -440.000000)">
            <g id="Page-1" filter="url(#filter-1)" transform="translate(432.000000, 442.000000)">
                <g id="Group-5" transform="translate(0.000000, 0.037762)">
                    <mask id="mask-3" fill="white">
                        <use xlink:href="#path-2"></use>
                    </mask>
                    <g id="Clip-4"></g>
                    <path d="M26.9550386,15.4750497 C26.7250407,16.6998262 25.6868388,17.6245615 24.4404019,17.6245615 C24.3186243,17.6245615 24.1988683,17.6150307 24.0816098,17.5980199 C23.6231598,18.3198321 22.8360054,18.7963754 21.9413442,18.7963754 C21.8871151,18.7963754 21.8333616,18.7940832 21.7800839,18.7905845 C21.3242503,19.2239373 20.7172649,19.4883887 20.0508178,19.4883887 C19.2264403,19.4883887 18.4936339,19.0835079 18.0248376,18.4553152 C17.8347979,18.4830633 17.6410716,18.4982644 17.4437775,18.4982644 C15.917038,18.4982644 14.5836681,17.6409691 13.8633487,16.3649189 C13.57377,16.4628817 13.2649258,16.5164476 12.9440703,16.5164476 C11.4330287,16.5164476 10.1865918,15.3436685 9.99976305,13.8269337 C9.76215396,13.8905131 9.51289037,13.9245346 9.2561346,13.9245346 C7.61617998,13.9245346 6.28685345,12.5435242 6.28685345,10.8401534 C6.28685345,9.56760188 7.02881697,8.47529227 8.08771153,8.00393666 C8.08081397,7.92214012 8.07653272,7.83937842 8.07653272,7.75565158 C8.07653272,6.21551192 9.27849221,4.96696849 10.7611111,4.96696849 C11.1087244,4.96696849 11.4405209,5.03633872 11.7453217,5.16120513 C12.1538238,3.9649005 13.2523199,3.10796709 14.5439477,3.10796709 C15.0431884,3.10796709 15.5135307,3.23657345 15.9265519,3.46278071 C16.5602951,2.80008393 17.4379503,2.38965348 18.4081279,2.38965348 C19.6196013,2.38965348 20.6870583,3.02966921 21.3148553,4.00157624 C21.7031404,3.80794283 22.1382814,3.69960463 22.5978017,3.69960463 C23.7402995,3.69960463 24.7316455,4.37038455 25.228151,5.35314953 C25.3872706,5.32202341 25.5513849,5.30513327 25.7193049,5.30513327 C27.1795661,5.30513327 28.3632114,6.5347356 28.3632114,8.05159099 C28.3632114,8.36972888 28.3105283,8.67495787 28.214676,8.95931548 C29.2245741,9.56543029 29.9045785,10.6983969 29.9045785,11.9968869 C29.9045785,13.783502 28.6180644,15.2569255 26.9550386,15.4750497 L26.9550386,15.4750497 Z M22.6132617,22.6914835 L19.4586978,28.1175622 L19.4501353,21.128904 L22.6132617,21.128904 L22.6132617,22.6914835 Z M17.4296256,0.0829426614 C9.65607422,0.0829426614 3.35467643,6.31009671 3.35467643,13.991492 C3.35467643,14.4043353 3.37394203,14.8129561 3.40961907,15.2166305 L0.125666429,22.7123549 C-0.0748385384,23.1700777 -0.0334531715,23.6995836 0.235551713,24.1196656 C0.504556597,24.5395063 0.964790418,24.7929791 1.45844173,24.7929791 L3.24823993,24.7929791 L3.24823993,26.3843924 C3.24823993,29.9733062 6.08991619,32.8825125 9.59530433,32.8825125 L10.9390206,32.8825125 L10.9390206,38.3646907 L26.2537469,38.3646907 L26.2537469,24.826518 C29.4554046,22.2770718 31.5044559,18.3709851 31.5044559,13.9916126 C31.5044559,6.31009671 25.2030581,0.0829426614 17.4296256,0.0829426614 L17.4296256,0.0829426614 Z" id="Fill-3" fill="#FFFFFF" mask="url(#mask-3)"></path>
                </g>
            </g>
        </g>
    </g>
</svg>