<?xml version="1.0" encoding="UTF-8" standalone="no"?>
<svg width="71px" height="58px" viewBox="0 0 71 58" version="1.1" xmlns="http://www.w3.org/2000/svg" xmlns:xlink="http://www.w3.org/1999/xlink">
    <!-- Generator: Sketch 41.2 (35397) - http://www.bohemiancoding.com/sketch -->
    <title>Page 1</title>
    <desc>Created with Sketch.</desc>
    <defs>
        <filter x="-50%" y="-50%" width="200%" height="200%" filterUnits="objectBoundingBox" id="filter-1">
            <feOffset dx="0" dy="2" in="SourceAlpha" result="shadowOffsetOuter1"></feOffset>
            <feGaussianBlur stdDeviation="2" in="shadowOffsetOuter1" result="shadowBlurOuter1"></feGaussianBlur>
            <feColorMatrix values="0 0 0 0 0   0 0 0 0 0   0 0 0 0 0  0 0 0 0.5 0" type="matrix" in="shadowBlurOuter1" result="shadowMatrixOuter1"></feColorMatrix>
            <feMerge>
                <feMergeNode in="shadowMatrixOuter1"></feMergeNode>
                <feMergeNode in="SourceGraphic"></feMergeNode>
            </feMerge>
        </filter>
    </defs>
    <g id="Page-1" stroke="none" stroke-width="1" fill="none" fill-rule="evenodd">
        <g id="MENU_3" transform="translate(-915.000000, -226.000000)" fill="#FFFFFF">
            <g id="Page-1" filter="url(#filter-1)" transform="translate(919.000000, 228.000000)">
                <path d="M25.5492868,23.6997705 C25.5492868,21.3209991 23.6346671,19.3923529 21.2731959,19.3923529 L12.1889971,19.3923529 C9.82716958,19.3923529 7.91290622,21.3209991 7.91290622,23.6997705 L7.91290622,33.5555008 C7.91290622,35.9342722 9.82716958,37.8629184 12.1889971,37.8629184 L21.2731959,37.8629184 C23.6346671,37.8629184 25.5492868,35.9342722 25.5492868,33.5555008 L25.5492868,23.6997705 Z M47.105061,28.6981696 C47.105061,27.6855675 46.2904657,26.8650045 45.2855844,26.8650045 L31.1481152,26.8650045 C30.1432338,26.8650045 29.3286385,27.6855675 29.3286385,28.6981696 C29.3286385,29.7104127 30.1432338,30.5309758 31.1481152,30.5309758 L45.2855844,30.5309758 C46.2904657,30.5309758 47.105061,29.7104127 47.105061,28.6981696 L47.105061,28.6981696 Z M43.6478415,36.6686869 C43.6478415,35.6564437 43.0003701,34.8355217 42.2014538,34.8355217 L30.8537776,34.8355217 C30.0552176,34.8355217 29.4073898,35.6564437 29.4073898,36.6686869 C29.4073898,37.68093 30.0552176,38.5014931 30.8537776,38.5014931 L42.2014538,38.5014931 C43.0003701,38.5014931 43.6478415,37.68093 43.6478415,36.6686869 L43.6478415,36.6686869 Z M46.9650191,21.366227 C46.9650191,20.3539839 46.1504237,19.5334208 45.1455424,19.5334208 L30.8683875,19.5334208 C29.8631498,19.5334208 29.0485545,20.3539839 29.0485545,21.366227 C29.0485545,22.3784701 29.8631498,23.1990332 30.8683875,23.1990332 L45.1455424,23.1990332 C46.1504237,23.1990332 46.9650191,22.3784701 46.9650191,21.366227 L46.9650191,21.366227 Z M46.8253334,13.4703716 C46.8253334,12.380236 45.9480221,11.4964975 44.8658148,11.4964975 L9.45265528,11.4964975 C8.37044794,11.4964975 7.49313663,12.380236 7.49313663,13.4703716 C7.49313663,14.5605072 8.37044794,15.4442457 9.45265528,15.4442457 L44.8658148,15.4442457 C45.9480221,15.4442457 46.8253334,14.5605072 46.8253334,13.4703716 L46.8253334,13.4703716 Z M52.2459913,46.1812596 C52.0150824,45.8201545 51.83905,45.56494 51.683329,45.298598 C51.0893087,44.2809706 50.9884643,43.1628368 50.9888206,42.0195764 C50.9916713,29.5072462 50.9906023,16.9941981 50.9906023,4.48150904 L50.9906023,3.85693349 L3.90549636,3.85693349 L3.90549636,4.38315634 C3.90549636,16.8958454 3.90549636,29.4085345 3.90620904,41.9215826 C3.90620904,42.1347998 3.9076344,42.3483759 3.92473877,42.5608752 C4.06050465,44.2228204 5.06289163,45.6105268 6.48041576,45.9773752 C7.06766558,46.1299296 7.69874533,46.1722859 8.30986999,46.1726448 C22.7498726,46.1830544 37.1898753,46.1812596 51.6295216,46.1812596 L52.2459913,46.1812596 Z M0,43.0102824 L0,0 L54.8693731,0 L54.8693731,7.67689497 L62.7159999,7.67689497 L62.7159999,43.6003986 C62.5510141,44.2824064 62.3974311,44.9665679 62.218548,45.6442682 C61.5496961,48.1834909 59.1515218,49.9997853 56.4782523,49.9997853 C40.3883913,50.0001443 24.2981739,50.0001443 8.20831283,49.9990674 C7.89116942,49.9990674 7.57366967,50.0005032 7.25723894,49.9850683 C3.65285065,49.8099 1.19801813,47.8248984 0.335673136,44.3911687 C0.220218681,43.9313519 0.111534704,43.4704582 0,43.0102824 L0,43.0102824 Z" id="Fill-1"></path>
            </g>
        </g>
    </g>
</svg>