<?xml version="1.0" encoding="UTF-8" standalone="no"?>
<svg width="80px" height="57px" viewBox="0 0 80 57" version="1.1" xmlns="http://www.w3.org/2000/svg" xmlns:xlink="http://www.w3.org/1999/xlink">
    <!-- Generator: Sketch 41.2 (35397) - http://www.bohemiancoding.com/sketch -->
    <title>Page 1</title>
    <desc>Created with Sketch.</desc>
    <defs>
        <filter x="-50%" y="-50%" width="200%" height="200%" filterUnits="objectBoundingBox" id="filter-1">
            <feOffset dx="0" dy="2" in="SourceAlpha" result="shadowOffsetOuter1"></feOffset>
            <feGaussianBlur stdDeviation="2" in="shadowOffsetOuter1" result="shadowBlurOuter1"></feGaussianBlur>
            <feColorMatrix values="0 0 0 0 0   0 0 0 0 0   0 0 0 0 0  0 0 0 0.5 0" type="matrix" in="shadowBlurOuter1" result="shadowMatrixOuter1"></feColorMatrix>
            <feMerge>
                <feMergeNode in="shadowMatrixOuter1"></feMergeNode>
                <feMergeNode in="SourceGraphic"></feMergeNode>
            </feMerge>
        </filter>
    </defs>
    <g id="Page-1" stroke="none" stroke-width="1" fill="none" fill-rule="evenodd">
        <g id="MENU_5" transform="translate(-1162.000000, -224.000000)" fill="#FEFEFE">
            <g id="Page-1" filter="url(#filter-1)" transform="translate(1166.000000, 226.000000)">
                <path d="M8.68646259,11.6702011 L8.68646259,36.0799379 C8.68646259,38.6728116 11.1688988,40.7803274 14.2195816,40.7803274 L14.7750791,40.7803274 C17.826369,40.7803274 20.3081981,38.6712642 20.3081981,36.0799379 L20.3081981,11.6702011 L30.3423643,11.6702011 L30.3423643,36.0799379 C30.3423643,38.6728116 32.8248005,40.7803274 35.8754833,40.7803274 L36.4309808,40.7803274 C39.4822707,40.7803274 41.9640998,38.6712642 41.9640998,36.0799379 L41.9640998,11.6702011 L51.5951509,11.6702011 L51.5951509,36.0799379 C51.5951509,38.6728116 54.0775871,40.7803274 57.1282699,40.7803274 L57.6837674,40.7803274 C60.7344502,40.7803274 63.2168864,38.6712642 63.2168864,36.0799379 L63.2168864,11.6702011 L67.9273835,11.6702011 L67.9273835,41.6638747 L3.64266704,41.6638747 L3.64266704,11.6702011 L8.68646259,11.6702011 Z M12.4523104,17.0519484 L12.4523104,36.2326116 C12.4523104,36.4172642 12.2750369,36.5694221 12.0564805,36.5694221 C11.8373171,36.5694221 11.6600436,36.4172642 11.6600436,36.2326116 L11.6600436,17.0519484 C11.6600436,16.8657484 11.8373171,16.7146221 12.0564805,16.7146221 C12.2750369,16.7146221 12.4523104,16.8657484 12.4523104,17.0519484 L12.4523104,17.0519484 Z M8.35255701,2.35401158 C8.35255701,2.07187474 8.62332408,1.84131684 8.95662256,1.84131684 L20.0356097,1.84131684 C20.3695153,1.84131684 20.6390681,2.07187474 20.6390681,2.35401158 C20.6396753,2.63666421 20.3701224,2.86619053 20.0368239,2.86619053 L18.9567911,2.86619053 C18.5184642,2.86619053 18.1596674,3.06838 18.1542035,3.31802211 L18.1432757,3.76933789 L18.1414544,14.1155589 C18.1414544,14.4874432 17.7875145,14.7881484 17.3497946,14.7881484 L11.6460802,14.7881484 C11.2077533,14.7881484 10.8538134,14.4874432 10.8538134,14.1155589 L10.8538134,3.53826421 C10.8538134,3.16689579 10.4998734,2.86619053 10.0615465,2.86619053 L8.95662256,2.86619053 C8.62332408,2.86619053 8.35255701,2.63666421 8.35255701,2.35401158 L8.35255701,2.35401158 Z M34.1088192,22.9938432 L34.1088192,36.2326116 C34.1088192,36.4172642 33.9309386,36.5694221 33.7123823,36.5694221 C33.4932188,36.5694221 33.3165524,36.4172642 33.3165524,36.2326116 L33.3165524,22.9938432 C33.3165524,22.8086747 33.4932188,22.6575484 33.7123823,22.6575484 C33.9309386,22.6575484 34.1088192,22.8086747 34.1088192,22.9938432 L34.1088192,22.9938432 Z M30.0090658,2.35401158 C30.0090658,2.07187474 30.2792258,1.84131684 30.6125243,1.84131684 L41.6915114,1.84131684 C42.025417,1.84131684 42.295577,2.07187474 42.295577,2.35401158 C42.295577,2.63666421 42.0266312,2.86619053 41.6927256,2.86619053 L40.6126928,2.86619053 C40.174973,2.86619053 39.8155691,3.06838 39.8101052,3.31802211 L39.7991774,3.76933789 L39.7979632,20.0579695 C39.7979632,20.4298537 39.4434162,20.7305589 39.0056963,20.7305589 L33.3019819,20.7305589 C32.863655,20.7305589 32.5097151,20.4298537 32.5097151,20.0579695 L32.5097151,3.53826421 C32.5097151,3.16689579 32.1557751,2.86619053 31.7174482,2.86619053 L30.6125243,2.86619053 C30.2792258,2.86619053 30.0090658,2.63666421 30.0090658,2.35401158 L30.0090658,2.35401158 Z M55.3609987,19.3368958 L55.3609987,36.2326116 C55.3609987,36.4172642 55.1837252,36.5694221 54.9651689,36.5694221 C54.7460054,36.5694221 54.5687319,36.4172642 54.5687319,36.2326116 L54.5687319,19.3368958 C54.5687319,19.1512116 54.7460054,19.0006011 54.9651689,19.0006011 C55.1837252,19.0006011 55.3609987,19.1512116 55.3609987,19.3368958 L55.3609987,19.3368958 Z M51.2612453,2.35401158 C51.2612453,2.07187474 51.5314053,1.84131684 51.8653109,1.84131684 L62.944298,1.84131684 C63.2775965,1.84131684 63.5477565,2.07187474 63.5477565,2.35401158 C63.5483636,2.63666421 63.2788107,2.86619053 62.9455122,2.86619053 L61.8648723,2.86619053 C61.4271525,2.86619053 61.0683558,3.06838 61.0622847,3.31802211 L61.051964,3.76933789 L61.0501427,16.4010221 C61.0501427,16.7734221 60.6955957,17.0741274 60.2578758,17.0741274 L54.5547685,17.0741274 C54.1164416,17.0741274 53.7625017,16.7734221 53.7625017,16.4010221 L53.7625017,3.53826421 C53.7625017,3.16689579 53.4085618,2.86619053 52.9696277,2.86619053 L51.8653109,2.86619053 C51.5314053,2.86619053 51.2612453,2.63666421 51.2612453,2.35401158 L51.2612453,2.35401158 Z M63.2168864,8.57546421 L63.2168864,5.36983263 C63.2168864,4.99743263 63.5787186,4.67661158 63.9842621,4.53786421 C64.998728,4.18764316 65.7175356,3.34123263 65.7175356,2.35452737 C65.7163214,1.05680105 64.4729785,-5.1578947e-05 62.9455122,-5.1578947e-05 L51.865918,-5.1578947e-05 C50.3378446,-5.1578947e-05 49.0951088,1.05628526 49.0951088,2.35401158 C49.0951088,3.34071684 49.8127022,4.18764316 50.8283823,4.53683263 C51.2339258,4.67609579 51.5951509,4.99691684 51.5951509,5.36983263 L51.5951509,8.57546421 L41.9640998,8.57546421 L41.9640998,5.36983263 C41.9640998,4.99743263 42.325932,4.67661158 42.7320826,4.53786421 C43.7459414,4.18764316 44.4653561,3.34123263 44.4653561,2.35452737 C44.4635348,1.05680105 43.220799,-5.1578947e-05 41.6927256,-5.1578947e-05 L30.6137385,-5.1578947e-05 C29.0856651,-5.1578947e-05 27.8423222,1.05628526 27.8423222,2.35401158 C27.8423222,3.34071684 28.5599156,4.18764316 29.5755957,4.53683263 C29.9811392,4.67609579 30.3423643,4.99691684 30.3423643,5.36983263 L30.3423643,8.57546421 L20.3081981,8.57546421 L20.3081981,5.36983263 C20.3081981,4.99743263 20.6700303,4.67661158 21.0761809,4.53786421 C22.0900397,4.18764316 22.8088473,3.34123263 22.8088473,2.35452737 C22.8076331,1.05680105 21.5642902,-5.1578947e-05 20.0368239,-5.1578947e-05 L8.95722966,-5.1578947e-05 C7.42915631,-5.1578947e-05 6.18642045,1.05628526 6.18642045,2.35401158 C6.18642045,3.34071684 6.9040139,4.18764316 7.91969396,4.53683263 C8.32523747,4.67609579 8.68646259,4.99691684 8.68646259,5.36983263 L8.68646259,8.57546421 L6.07100956e-05,8.57546421 L6.07100956e-05,48.5821589 L71.5699898,48.5821589 L71.5699898,8.57546421 L63.2168864,8.57546421 Z" id="Fill-1"></path>
            </g>
        </g>
    </g>
</svg>