<?xml version="1.0" encoding="UTF-8" standalone="no"?>
<svg width="35px" height="51px" viewBox="0 0 35 51" version="1.1" xmlns="http://www.w3.org/2000/svg" xmlns:xlink="http://www.w3.org/1999/xlink">
    <!-- Generator: Sketch 41.2 (35397) - http://www.bohemiancoding.com/sketch -->
    <title>Page 1</title>
    <desc>Created with Sketch.</desc>
    <defs>
        <filter x="-50%" y="-50%" width="200%" height="200%" filterUnits="objectBoundingBox" id="filter-1">
            <feOffset dx="0" dy="2" in="SourceAlpha" result="shadowOffsetOuter1"></feOffset>
            <feGaussianBlur stdDeviation="2" in="shadowOffsetOuter1" result="shadowBlurOuter1"></feGaussianBlur>
            <feColorMatrix values="0 0 0 0 0   0 0 0 0 0   0 0 0 0 0  0 0 0 0.5 0" type="matrix" in="shadowBlurOuter1" result="shadowMatrixOuter1"></feColorMatrix>
            <feMerge>
                <feMergeNode in="shadowMatrixOuter1"></feMergeNode>
                <feMergeNode in="SourceGraphic"></feMergeNode>
            </feMerge>
        </filter>
        <polygon id="path-2" points="0 13.913407 0 0.143838028 26.8275 0.143838028 26.8275 13.913407 26.8275 27.6829761 0 27.6829761"></polygon>
    </defs>
    <g id="Page-1" stroke="none" stroke-width="1" fill="none" fill-rule="evenodd">
        <g id="MENU_3" transform="translate(-212.000000, -407.000000)">
            <g id="Page-1" filter="url(#filter-1)" transform="translate(216.000000, 409.000000)">
                <g id="Group-3" transform="translate(0.000000, 0.158979)">
                    <mask id="mask-3" fill="white">
                        <use xlink:href="#path-2"></use>
                    </mask>
                    <g id="Clip-2"></g>
                    <path d="M14.7879,5.75146197 C17.9835,6.29895493 20.5464,8.72179296 21.327,11.8592789 C21.3273,11.8601873 21.3273,11.8604901 21.3276,11.8613986 C22.2438,12.0639831 22.9329,12.8852225 22.9329,13.8705887 C22.9332,14.857469 22.2447,15.681131 21.327,15.8818986 C20.4375,19.4581662 17.2323,22.1066028 13.4139,22.1066028 L13.4136,22.1066028 C9.5949,22.1066028 6.39,19.4581662 5.5005,15.8818986 C4.5825,15.681131 3.8943,14.857469 3.8943,13.8705887 C3.8943,12.8852225 4.5837,12.0639831 5.4999,11.8613986 C5.5002,11.8604901 5.5002,11.8598845 5.5005,11.8592789 C6.2136,8.99251127 8.4156,6.72320141 11.2281,5.93496901 C11.2281,5.93496901 12.966,5.25423662 14.7879,5.75146197 M13.4136,0.143595775 C6.0054,0.143595775 0,6.20568732 0,13.6834479 L0,18.7250465 L13.4985,27.6829761 L26.8275,18.7038493 L26.8275,13.6834479 C26.8275,6.20568732 20.8218,0.143595775 13.4136,0.143595775" id="Fill-1" fill="#FFFFFF" mask="url(#mask-3)"></path>
                </g>
                <path d="M9.55986,11.8635486 C10.28106,11.8635486 10.86606,12.4537387 10.86606,13.1820134 C10.86606,13.9099852 10.28106,14.5001754 9.55986,14.5001754 C8.83896,14.5001754 8.25366,13.9099852 8.25366,13.1820134 C8.25366,12.4537387 8.83896,11.8635486 9.55986,11.8635486" id="Fill-4" fill="#FFFFFF"></path>
                <path d="M17.025,11.8635486 C17.7459,11.8635486 18.3312,12.4537387 18.3312,13.1820134 C18.3312,13.9099852 17.7459,14.5001754 17.025,14.5001754 C16.3038,14.5001754 15.7191,13.9099852 15.7191,13.1820134 C15.7191,12.4537387 16.3038,11.8635486 17.025,11.8635486" id="Fill-6" fill="#FFFFFF"></path>
                <path d="M16.97607,30.1499648 C16.97607,30.1499648 25.07967,35.5289014 25.26597,35.6615352 C26.26257,33.7689296 26.82747,31.6092394 26.82747,29.3163099 L26.82747,23.5137324 L16.97607,30.1499648 Z" id="Fill-8" fill="#FFFFFF"></path>
                <path d="M0,23.5137324 L0,29.3163099 C0,36.7940704 6.0054,42.856162 13.4136,42.856162 C17.172,42.856162 20.5692,41.2960493 23.0049,38.7820634 C22.9947,38.7729789 0,23.5137324 0,23.5137324" id="Fill-10" fill="#FFFFFF"></path>
                <path d="M14.70294,14.8964718 C14.70294,15.6244437 14.11824,16.2146338 13.39674,16.2146338 C12.67494,16.2146338 12.09054,15.6244437 12.09054,14.8964718" id="Fill-12" fill="#FFFFFF"></path>
            </g>
        </g>
    </g>
</svg>