<?xml version="1.0" encoding="UTF-8" standalone="no"?>
<svg width="32px" height="42px" viewBox="0 0 32 42" version="1.1" xmlns="http://www.w3.org/2000/svg" xmlns:xlink="http://www.w3.org/1999/xlink">
    <!-- Generator: Sketch 41.2 (35397) - http://www.bohemiancoding.com/sketch -->
    <title>Page 1</title>
    <desc>Created with Sketch.</desc>
    <defs>
        <filter x="-50%" y="-50%" width="200%" height="200%" filterUnits="objectBoundingBox" id="filter-1">
            <feOffset dx="0" dy="2" in="SourceAlpha" result="shadowOffsetOuter1"></feOffset>
            <feGaussianBlur stdDeviation="2" in="shadowOffsetOuter1" result="shadowBlurOuter1"></feGaussianBlur>
            <feColorMatrix values="0 0 0 0 0   0 0 0 0 0   0 0 0 0 0  0 0 0 0.5 0" type="matrix" in="shadowBlurOuter1" result="shadowMatrixOuter1"></feColorMatrix>
            <feMerge>
                <feMergeNode in="shadowMatrixOuter1"></feMergeNode>
                <feMergeNode in="SourceGraphic"></feMergeNode>
            </feMerge>
        </filter>
        <polygon id="path-2" points="11.9080868 0 23.816129 0 23.816129 34 11.9080868 34 4.45161349e-05 34 4.45161349e-05 0"></polygon>
    </defs>
    <g id="Page-1" stroke="none" stroke-width="1" fill="none" fill-rule="evenodd">
        <g id="MENU_5" transform="translate(-635.000000, -443.000000)">
            <g id="Page-1" filter="url(#filter-1)" transform="translate(639.000000, 445.000000)">
                <mask id="mask-3" fill="white">
                    <use xlink:href="#path-2"></use>
                </mask>
                <g id="Clip-2"></g>
                <path d="M12.2216139,30.7096774 C12.2216139,30.7096774 18.1973477,24.5528258 18.4690074,14.916129 C18.4690074,14.916129 23.9014219,25.891329 12.2216139,30.7096774 M12.6871413,0 C12.6871413,0 4.45161349e-05,15.783129 4.45161349e-05,22.2645161 C4.45161349e-05,28.7459032 5.33140742,34 11.908109,34 C18.4846994,34 23.8161735,28.7459032 23.8161735,22.2645161 C23.8161735,15.783129 12.6871413,0 12.6871413,0" id="Fill-1" fill="#FFFFFF" mask="url(#mask-3)"></path>
            </g>
        </g>
    </g>
</svg>