<?xml version="1.0" encoding="utf-8"?>
<!-- Generator: Adobe Illustrator 20.1.0, SVG Export Plug-In . SVG Version: 6.00 Build 0)  -->
<svg version="1.1" id="Layer_1" xmlns="http://www.w3.org/2000/svg" xmlns:xlink="http://www.w3.org/1999/xlink" x="0px" y="0px"
	 viewBox="0 0 71 68" enable-background="new 0 0 71 68" xml:space="preserve">
<title>Group 3 Copy 2</title>
<desc>Created with Sketch.</desc>
<g>
	<path id="path-1_1_" d="M46.002,21.731c-0.394,4.358-2.287,16.968-10.97,16.385c-10.487-0.704-9.389-20.066-9.389-20.066
		l-2.276-0.064c0,0-1.606,10.41,2.836,17.246c-2.778,0.056-7.442,1.758-7.137-3.369c1.167-19.6,1.464-27.63,17.436-27.783
		c10.849-0.104,11.828,10.722,17.959,23.534c2.656,5.548-5.478,4.337-9.074,7.061c2.591-4.973,3.289-11.486,3.467-13.975
		c0.117-0.06,0.177-0.094,0.177-0.094s-0.059-0.009-0.169-0.027c0.04-0.577,0.049-0.906,0.049-0.906L46.451,20.2
		c-2.256-0.35-5.554-0.853-8.058-1.2C34.19,18.42,27.753,13.4,27.753,13.4s0.879,5.601,8.361,7.97
		C40.207,22.666,43.689,22.315,46.002,21.731z M43.842,37.119c-0.025,0.135-0.043,0.274-0.056,0.419
		c-0.048,0.562-0.244,1.197,0.79,1.95c0.844,0.612,1.389,0.642,2.051,0.736c1.443,0.206,2.783,0.448,4.038,0.73l-4.038,7.483
		c0,0-3.493,8.934-11.018,8.934c-5.79,0-9.622-9.542-9.622-9.542l-4.071-6.983c1.074-0.237,2.207-0.446,3.41-0.626
		c0.968-0.146,1.733-0.448,2.325-1.252c0.418-0.569,0.463-0.982,0.483-1.398c1.544,1.466,3.544,2.588,6.128,3.13
		C38.622,41.616,41.688,39.905,43.842,37.119z"/>
	<g>
		<path id="path-3_1_" d="M66.715,58.555c-1.884-10.083-5.783-14.832-14.368-17.184l-3.265,7.162c0,0-3.31,12.313-12.379,11.435
			C26.925,59.022,23.64,48.044,23.64,48.044l-4.221-6.56c-9.06,2.648-13.049,7.907-15.291,17.071h0.461L4.41,58.746
			c0,4.104,4.109,4.834,8.67,4.834l46.048-0.034c4.562,0,7.743-0.696,7.743-4.8L66.715,58.555z"/>
	</g>
</g>
</svg>
