<?xml version="1.0" encoding="UTF-8" standalone="no"?>
<svg width="73px" height="61px" viewBox="0 0 73 61" version="1.1" xmlns="http://www.w3.org/2000/svg" xmlns:xlink="http://www.w3.org/1999/xlink">
    <!-- Generator: Sketch 41.2 (35397) - http://www.bohemiancoding.com/sketch -->
    <title>Page 1</title>
    <desc>Created with Sketch.</desc>
    <defs>
        <filter x="-50%" y="-50%" width="200%" height="200%" filterUnits="objectBoundingBox" id="filter-1">
            <feOffset dx="0" dy="2" in="SourceAlpha" result="shadowOffsetOuter1"></feOffset>
            <feGaussianBlur stdDeviation="2" in="shadowOffsetOuter1" result="shadowBlurOuter1"></feGaussianBlur>
            <feColorMatrix values="0 0 0 0 0   0 0 0 0 0   0 0 0 0 0  0 0 0 0.5 0" type="matrix" in="shadowBlurOuter1" result="shadowMatrixOuter1"></feColorMatrix>
            <feMerge>
                <feMergeNode in="shadowMatrixOuter1"></feMergeNode>
                <feMergeNode in="SourceGraphic"></feMergeNode>
            </feMerge>
        </filter>
    </defs>
    <g id="Page-1" stroke="none" stroke-width="1" fill="none" fill-rule="evenodd">
        <g id="MENU_2" transform="translate(-912.000000, -225.000000)" fill="#FFFFFF">
            <g id="Page-1" filter="url(#filter-1)" transform="translate(948.500000, 253.500000) scale(-1, 1) translate(-948.500000, -253.500000) translate(916.000000, 227.000000)">
                <path d="M60.8007684,13.3184991 C59.5997245,13.3184991 58.5337564,13.8878407 57.8487289,14.7696582 L43.2894817,29.8068973 L32.9951048,29.8886574 L27.6912151,22.2068487 C27.6912151,22.2068487 19.5806754,22.2886088 14.9791135,22.451798 C10.8569711,22.5977745 8.3064995,23.5292439 7.81842986,23.7222242 L7.81842986,21.5689874 C7.81842986,21.451147 7.81144318,21.3356236 7.79946601,21.2207622 L7.8041238,21.0625382 C7.8041238,21.0625382 7.78915233,21.0420154 7.76785959,21.0125553 C7.47974213,19.266464 5.86448779,17.9278491 3.90921493,17.9278491 C1.74999749,17.9278491 0,19.5580861 0,21.5689874 L0,49.0430309 C0,51.0539323 1.74999749,52.6841692 3.90921493,52.6841692 C6.06776697,52.6841692 7.81842986,51.0539323 7.81842986,49.0430309 L7.81842986,39.9229725 L57.057903,40.041806 L57.057903,48.9311487 C57.057903,51.0039494 58.7333759,52.6841692 60.8007684,52.6841692 C62.8678281,52.6841692 64.5436337,51.0039494 64.5436337,48.9311487 L64.5436337,17.0715196 C64.5436337,14.9987189 62.8678281,13.3184991 60.8007684,13.3184991 L60.8007684,13.3184991 Z M53.8097613,0.828070696 C51.0746416,-0.0623531224 48.0750262,1.85387866 47.110864,5.10872528 C46.1457038,8.36290987 47.581966,11.7226875 50.316753,12.6124493 C53.052538,13.5032041 56.0521535,11.5869723 57.0163156,8.3321257 C57.9808104,5.07761009 56.5452136,1.7181635 53.8097613,0.828070696 L53.8097613,0.828070696 Z M31.5292324,21.4488299 C31.5292324,21.4488299 39.6683842,16.923557 42.5881519,15.8672959 C45.2510758,14.9040493 45.293994,14.9815062 47.4761677,14.6716785 C47.4761677,14.6716785 50.7619044,14.6716785 51.7972642,15.3340346 C52.1362846,15.5508479 52.0311517,16.4783451 52.0311517,16.4783451 L41.786347,26.6314937 L35.0548452,26.5517197 L31.5292324,21.4488299 Z" id="Fill-1"></path>
            </g>
        </g>
    </g>
</svg>