<?xml version="1.0" encoding="UTF-8" standalone="no"?>
<svg width="40px" height="45px" viewBox="0 0 40 45" version="1.1" xmlns="http://www.w3.org/2000/svg" xmlns:xlink="http://www.w3.org/1999/xlink">
    <!-- Generator: Sketch 43.2 (39069) - http://www.bohemiancoding.com/sketch -->
    <title>Group 53</title>
    <desc>Created with Sketch.</desc>
    <defs>
        <polygon id="path-1" points="2.05387423e-20 0.228238252 2.05387423e-20 11.5640714 4.39912382 11.5640714 8.79824764 11.5640714 8.79824764 0.228238252 0 0.228238252"></polygon>
        <polygon id="path-3" points="6.74696902 11.1944472 6.74696902 0.0746795561 0.286518859 0.0746795561 0.286518859 11.1944472"></polygon>
    </defs>
    <g id="Desktop" stroke="none" stroke-width="1" fill="none" fill-rule="evenodd">
        <g id="Pago-de-Cuenta---Pago---Paso-3" transform="translate(-819.000000, -609.000000)">
            <g id="Group-53" transform="translate(819.000000, 609.000000)">
                <g id="Page-1">
                    <path d="M11.5051583,36.1774063 C11.5051583,35.774794 11.7830995,35.4354798 12.1513639,35.2814951 C12.675421,35.0642122 13.4443815,34.7550255 13.8738718,34.4777921 C14.3051807,34.2002544 14.7980186,33.5198001 15.1059665,33.0885819 C15.289341,32.8095226 15.597289,32.6558422 15.9052369,32.6558422 L17.012152,32.6558422 C17.5346935,32.6558422 17.9660025,33.1187094 17.9660025,33.643353 L17.9660025,42.9098261 C17.9660025,43.4347741 17.5346935,43.7756098 17.012152,43.7756098 L15.7518691,43.7756098 C15.1978053,43.7756098 14.8898574,43.4347741 14.8898574,42.9098261 L14.8898574,38.3079343 C14.8898574,37.6283929 14.1521161,37.1649171 13.5362203,37.4126317 C13.3828525,37.4744082 13.0752077,37.5361847 12.8287887,37.6283929 C12.2128929,37.8137224 11.5051583,37.3806783 11.5051583,36.7023543 L11.5051583,36.1774063 Z" id="Fill-1" fill="#3D7DDA"></path>
                    <g id="Group-5" transform="translate(0.000000, 32.581163)">
                        <mask id="mask-2" fill="white">
                            <use xlink:href="#path-1"></use>
                        </mask>
                        <g id="Clip-4"></g>
                        <path d="M5.38354176,8.41316629 C5.29079367,8.7543064 5.13742591,8.97006763 4.98436125,9.09331628 C4.79977436,9.21717357 4.58336215,9.27925438 4.36846542,9.27925438 C4.1535687,9.27925438 3.96898181,9.21717357 3.78409183,9.09331628 C3.69104064,9.03123548 3.50796924,8.84621033 3.35308599,8.3513898 C3.19971823,7.91986735 3.13849237,7.1164687 3.13849237,5.91289232 C3.13849237,4.70749003 3.23002806,3.87365962 3.38430512,3.37883908 C3.47644701,3.03922057 3.63102717,2.82406797 3.78409183,2.700515 C3.96898181,2.57635339 4.18387854,2.5145769 4.40029075,2.5145769 C4.61488437,2.5145769 4.79977436,2.57635339 4.98436125,2.700515 C5.10772227,2.76229149 5.26109003,2.97744408 5.41445779,3.44091989 C5.56873485,3.87365962 5.63026381,4.67614531 5.63026381,5.88093896 C5.63026381,7.08603693 5.53721262,7.91986735 5.38354176,8.41316629 M7.47643579,1.43333622 C6.73748204,0.629328941 5.69179277,0.228238252 4.40029075,0.228238252 C3.10697014,0.228238252 2.06128087,0.629328941 1.32384261,1.40168719 C0.431521105,2.32955176 -9.0929503e-05,3.84201058 -9.0929503e-05,5.88093896 C-9.0929503e-05,7.98194815 0.399998877,9.4329348 1.20078469,10.2987186 C2.03127414,11.1322447 3.10697014,11.5640714 4.40029075,11.5640714 C5.69179277,11.5640714 6.73748204,11.1626764 7.47643579,10.3906225 C8.33723507,9.46458384 8.79824764,7.95029912 8.79824764,5.94271545 C8.79824764,3.87365962 8.33723507,2.35937489 7.47643579,1.43333622" id="Fill-3" fill="#3D7DDA" mask="url(#mask-2)"></path>
                    </g>
                    <g id="Group-8" transform="translate(32.734621, 32.581163)">
                        <mask id="mask-4" fill="white">
                            <use xlink:href="#path-3"></use>
                        </mask>
                        <g id="Clip-7"></g>
                        <path d="M0.286518859,3.59624363 C0.286518859,3.19363135 0.564460036,2.85431715 0.932421419,2.70033241 C1.45647845,2.48304959 2.22543893,2.17386284 2.65523238,1.89662944 C3.08654131,1.61909173 3.57907611,0.93863742 3.88702402,0.507419282 C4.07039852,0.228359979 4.37834643,0.0746795561 4.68629434,0.0746795561 L5.79351257,0.0746795561 C6.31605411,0.0746795561 6.74705995,0.537546731 6.74705995,1.06219039 L6.74705995,10.3286634 C6.74705995,10.8536114 6.31605411,11.1944472 5.79351257,11.1944472 L4.53322968,11.1944472 C3.97886282,11.1944472 3.67091491,10.8536114 3.67091491,10.3286634 L3.67091491,5.72677163 C3.67091491,5.04723028 2.93317355,4.58375447 2.31727773,4.83146905 C2.16421307,4.89324553 1.85626515,4.95502202 1.60984621,5.04723028 C0.993950382,5.23255974 0.286518859,4.79951569 0.286518859,4.12119161 L0.286518859,3.59624363 Z" id="Fill-6" fill="#3D7DDA" mask="url(#mask-4)"></path>
                    </g>
                    <path d="M26.8996744,40.9943289 C26.8063202,41.335469 26.6532555,41.5512303 26.5001908,41.6744789 C26.3153009,41.7983362 26.0988886,41.860417 25.8845981,41.860417 C25.6693983,41.860417 25.4848114,41.7983362 25.2999214,41.6744789 C25.2071733,41.6123981 25.0241019,41.427373 24.8689156,40.9325525 C24.7158509,40.50103 24.654322,39.6976314 24.654322,38.494055 C24.654322,37.2886527 24.7458577,36.4548223 24.9001347,35.9600017 C24.9922766,35.6203832 25.1468568,35.4052306 25.2999214,35.2816776 C25.4848114,35.157516 25.6997081,35.0957396 25.9161203,35.0957396 C26.130714,35.0957396 26.3153009,35.157516 26.5001908,35.2816776 C26.6235519,35.3434541 26.7766165,35.5586067 26.9302874,36.0220825 C27.0845644,36.4548223 27.1460934,37.257308 27.1460934,38.4621016 C27.1460934,39.6671996 27.0527391,40.50103 26.8996744,40.9943289 M28.9922654,34.0144989 C28.2533116,33.2104916 27.2073193,32.8094009 25.9161203,32.8094009 C24.6227997,32.8094009 23.5771105,33.2104916 22.8393691,33.9828498 C21.9473507,34.9107144 21.5160418,36.4231732 21.5160418,38.4621016 C21.5160418,40.5631108 21.9158285,42.0140975 22.7166143,42.8798812 C23.5471037,43.7134073 24.6227997,44.1452341 25.9161203,44.1452341 C27.2073193,44.1452341 28.2533116,43.7438391 28.9922654,42.9717852 C29.8530647,42.0457465 30.3137741,40.5314618 30.3137741,38.5238781 C30.3137741,36.4548223 29.8530647,34.9405375 28.9922654,34.0144989" id="Fill-9" fill="#3D7DDA"></path>
                    <path d="M25.5031792,26.6202186 C25.5031792,23.0892207 22.6549641,20.2234612 19.1390233,20.2234612 L17.4944118,20.2234612 C16.6399775,20.2234612 15.9461855,19.5283996 15.9461855,18.6760058 C15.9461855,18.355255 16.0725775,18.0533719 16.3020229,17.8293941 C17.2534486,16.8923999 18.0596902,15.6349593 18.6437607,14.2856148 C18.7595442,14.3705194 18.8862393,14.4377736 19.0293018,14.4377736 C19.9573889,14.4377736 21.0409654,12.3881941 21.0409654,10.992289 C21.0409654,9.5942536 20.9088145,8.46432209 19.9864863,8.46432209 C19.8788864,8.46432209 19.7585564,8.4816682 19.6439852,8.5127086 C19.5779097,4.72182339 18.6270903,3.04317675e-05 12.8627661,3.04317675e-05 C6.85990346,3.04317675e-05 6.15550292,4.71573704 6.08912438,8.49992726 C6.00486304,8.4816682 5.91999551,8.46432209 5.84300853,8.46432209 C4.91492142,8.46432209 4.78852941,9.5942536 4.78852941,10.992289 C4.78852941,12.3881941 5.87240907,14.4377736 6.80049618,14.4377736 C6.90809609,14.4377736 7.015696,14.4021685 7.11299057,14.3479999 C7.69675797,15.6772595 8.49117872,16.9103547 9.43138976,17.8293941 C9.65992591,18.0533719 9.78662101,18.355255 9.78662101,18.6760058 C9.78662101,19.534486 9.09434441,20.2295475 8.2383947,20.2295475 L6.60105748,20.2295475 C3.07905478,20.2234612 0.230233498,23.0892207 0.230233498,26.6202186 L0.230233498,28.3916517 C0.230233498,29.5042371 1.13346655,30.4111038 2.24189717,30.4111038 L23.4921217,30.4111038 C24.6044926,30.4111038 25.5031792,29.5042371 25.5031792,28.3916517 L25.5031792,26.6202186 Z" id="Fill-11" fill="#3D7DDA"></path>
                    <path d="M39.443187,27.5997563 L39.443187,22.2370703 L26.0874618,22.2370703 C26.8882476,23.5066836 27.351685,25.0060568 27.351685,26.6201577 L27.351685,27.5997563 L39.443187,27.5997563 Z" id="Fill-13" fill="#3D7DDA"></path>
                    <path d="M39.443187,2.6837471 L20.3786046,2.6837471 C20.8965997,3.82767722 21.2636518,5.22966872 21.4145947,6.97097442 C21.7998327,7.20590766 22.0829266,7.58691339 22.3178278,8.04643307 L39.443187,8.04643307 L39.443187,2.6837471 Z" id="Fill-15" fill="#3D7DDA"></path>
                    <path d="M39.443187,12.4605304 L22.679121,12.4605304 C22.2575112,14.0566766 21.2218242,15.7316411 19.7893815,16.178988 C19.7463415,16.257502 19.69239,16.3238432 19.6511686,16.4029658 L19.6511686,17.8235207 L39.443187,17.8235207 L39.443187,12.4605304 Z" id="Fill-17" fill="#3D7DDA"></path>
                </g>
            </g>
        </g>
    </g>
</svg>