<?xml version="1.0" encoding="UTF-8" standalone="no"?>
<svg width="44px" height="44px" viewBox="0 0 44 44" version="1.1" xmlns="http://www.w3.org/2000/svg" xmlns:xlink="http://www.w3.org/1999/xlink">
    <!-- Generator: Sketch 41.2 (35397) - http://www.bohemiancoding.com/sketch -->
    <title>Page 1</title>
    <desc>Created with Sketch.</desc>
    <defs>
        <filter x="-50%" y="-50%" width="200%" height="200%" filterUnits="objectBoundingBox" id="filter-1">
            <feOffset dx="0" dy="2" in="SourceAlpha" result="shadowOffsetOuter1"></feOffset>
            <feGaussianBlur stdDeviation="2" in="shadowOffsetOuter1" result="shadowBlurOuter1"></feGaussianBlur>
            <feColorMatrix values="0 0 0 0 0   0 0 0 0 0   0 0 0 0 0  0 0 0 0.5 0" type="matrix" in="shadowBlurOuter1" result="shadowMatrixOuter1"></feColorMatrix>
            <feMerge>
                <feMergeNode in="shadowMatrixOuter1"></feMergeNode>
                <feMergeNode in="SourceGraphic"></feMergeNode>
            </feMerge>
        </filter>
        <polygon id="path-2" points="26.1738571 0.0982283497 0.0465983569 0.0982283497 0.0465983569 26.0803813 26.1738571 26.0803813"></polygon>
        <polygon id="path-4" points="0 0.150461528 0 16.0000614 15.9380637 16.0000614 15.9380637 0.150461528 0 0.150461528"></polygon>
    </defs>
    <g id="Page-1" stroke="none" stroke-width="1" fill="none" fill-rule="evenodd">
        <g id="MENU_5" transform="translate(-837.000000, -442.000000)">
            <g id="Page-1" filter="url(#filter-1)" transform="translate(841.000000, 444.000000)">
                <g id="Group-3" transform="translate(10.183207, 0.104304)">
                    <mask id="mask-3" fill="white">
                        <use xlink:href="#path-2"></use>
                    </mask>
                    <g id="Clip-2"></g>
                    <path d="M24.0087036,7.23094325 C24.5040148,7.72350273 25.3070625,7.72350273 25.8023737,7.23094325 C26.2976849,6.73838377 26.2976849,5.93979742 25.8023737,5.44723794 L20.7948834,0.467566944 C20.2995721,-0.0249925327 19.4967281,-0.0249925327 19.0012132,0.467566944 C18.505902,0.960126422 18.505902,1.75871278 19.0012132,2.25127225 L20.608327,3.8492551 L18.0380855,6.40521752 L13.0179679,1.41319203 C12.5228604,0.920632549 11.7198126,0.920632549 11.2245014,1.41319203 C10.7291902,1.9057515 10.7291902,2.70413533 11.2245014,3.1966948 L12.5145101,4.47973933 L9.68867008,7.28967773 L13.174993,10.7564296 C13.6701005,11.2487866 13.6701005,12.0473729 13.174993,12.5399324 C12.6796817,13.0324919 11.876634,13.0324919 11.3813228,12.5399324 L7.89540726,9.07338304 L5.93412152,11.0237727 L9.42003707,14.4903221 C9.91534827,14.9828816 9.91534827,15.7812654 9.42003707,16.2738249 C8.92472586,16.7663843 8.12167813,16.7665869 7.62636692,16.2738249 L4.14045138,12.8072755 L0.418081761,16.5091678 C-0.0772294446,17.0017273 -0.0772294446,17.8001111 0.418081761,18.2926706 L7.87809581,25.7110376 C8.37299969,26.2033946 9.17645475,26.2035971 9.67156229,25.7110376 L21.767787,13.6818116 L23.058203,14.9650587 C23.5535142,15.4574156 24.356562,15.4576182 24.8518732,14.9650587 C25.3469807,14.4722967 25.3469807,13.6739129 24.8518732,13.1813534 L19.8315519,8.18892283 L22.4017935,5.63296041 L24.0087036,7.23094325 Z" id="Fill-1" fill="#FFFFFF" mask="url(#mask-3)"></path>
                </g>
                <g id="Group-6" transform="translate(0.000000, 20.357572)">
                    <mask id="mask-5" fill="white">
                        <use xlink:href="#path-4"></use>
                    </mask>
                    <g id="Clip-5"></g>
                    <path d="M8.36216476,0.921098374 C7.86685355,1.41365785 7.86685355,2.21224421 8.36216476,2.70480368 L9.96927854,4.30278653 L0.371401939,13.8471391 C-0.123909267,14.339496 -0.123909267,15.1380824 0.371401939,15.6306418 C0.866509481,16.1232013 1.66976088,16.1232013 2.16486842,15.6306418 L11.7625414,6.08649184 L13.3694515,7.68447468 C13.864559,8.17683163 14.6680141,8.17703416 15.1631216,7.68447468 L15.9380637,6.91383783 L9.13710684,0.150461528 L8.36216476,0.921098374 Z" id="Fill-4" fill="#FFFFFF" mask="url(#mask-5)"></path>
                </g>
            </g>
        </g>
    </g>
</svg>