<?xml version="1.0" encoding="utf-8"?>
<!-- Generator: Adobe Illustrator 20.1.0, SVG Export Plug-In . SVG Version: 6.00 Build 0)  -->
<svg version="1.1" id="Layer_1" xmlns="http://www.w3.org/2000/svg" xmlns:xlink="http://www.w3.org/1999/xlink" x="0px" y="0px"
	 viewBox="0 0 116 57" style="enable-background:new 0 0 116 57;" xml:space="preserve">
<title>Group 2</title>
<desc>Created with Sketch.</desc>
<path id="Page-1" d="M111.8,46.2c-1.6-9.3-6.7-11.2-16.5-12.5c-0.5-0.1-1.3,0-1.9-0.3c-0.7-0.5-1.1-1.4-1.2-1.8
	c-0.2-5,5.9-3.7,6-8.6c0.1-6.4,3.2-19.7-11.5-19.9C73,2.8,74.9,15.5,75.6,22c0.5,4.8,6.1,4.6,6.7,8.9c0.1,0.4-0.1,1.4-0.5,2
	c-0.4,0.5-1,0.7-1.7,0.8C69.4,35.1,64.6,37.6,63,46.3l0,0c0,3.4,3.2,4,6.8,4l36.1,0c3.6,0,6.1-0.6,6.1-4L111.8,46.2z M111.8,46.2
	c-1.6-9.3-6.7-11.2-16.5-12.5c-0.5-0.1-1.3,0-1.9-0.3c-0.7-0.5-1.1-1.4-1.2-1.8c-0.2-5,5.9-3.7,6-8.6c0.1-6.4,3.2-19.7-11.5-19.9
	C73,2.8,74.9,15.5,75.6,22c0.5,4.8,6.1,4.6,6.7,8.9c0.1,0.4-0.1,1.4-0.5,2c-0.4,0.5-1,0.7-1.7,0.8C69.4,35.1,64.6,37.6,63,46.3l0,0
	c0,3.4,3.2,4,6.8,4l36.1,0c3.6,0,6.1-0.6,6.1-4L111.8,46.2z M56.2,46.2c-1.6-9.1-6.5-11-16.1-12.2c-0.5-0.1-1.2,0-1.8-0.3
	c-0.7-0.5-1.1-1.4-1.1-1.7c-0.2-4.9,5.7-3.6,5.8-8.4c0.1-2.8,0.5-3.3,0-4.7c-0.6-1.6-5.3,0.6-10-5.3c-4.1,5.8-10.8,3.2-12.1,4.4
	c-1.3,1.2-0.3,1.6,0,4.7c0.5,4.7,6,4.5,6.5,8.7c0.1,0.4-0.1,1.4-0.5,1.9c-0.4,0.5-0.9,0.7-1.6,0.8c-10.5,1.4-15.2,3.8-16.7,12.3
	c0,3.4,3.1,4,6.6,4l35.3,0c3.5,0,5.9-0.6,5.9-3.9L56.2,46.2z M45.4,11.9c0,0,3.3-3.2,6.9-1.6S55,16.1,57,18c2,1.9,4.2,2.7,4.2,2.7
	s-6.2,0.9-8.9,0.4c-2.7-0.4-3.5-4.5-3.5-4.5l-0.4-2.6l-2.8-0.3L45.4,11.9z M18.8,12.8c0,0-3.3-3.2-6.9-1.6S9.2,17,7.2,18.9
	c-2,1.9-4.2,2.7-4.2,2.7s6.2,0.9,8.9,0.4c2.7-0.4,3.5-4.5,3.5-4.5l0.4-2.6l2.8-0.3L18.8,12.8z M19.7,15.4c0,0,4.9,0.7,7.2-0.9
	s6.2-4.2,6.2-4.2s2.6,3,5,4.2s6,1.4,6,1.4s0.3-7.4-1.4-9.6c-1.7-2.2-10.9-4-10.9-4s-9,2.1-11,5.1S19.7,15.4,19.7,15.4z"/>
</svg>
