<?xml version="1.0" encoding="UTF-8" standalone="no"?>
<svg width="69px" height="45px" viewBox="0 0 69 45" version="1.1" xmlns="http://www.w3.org/2000/svg" xmlns:xlink="http://www.w3.org/1999/xlink">
    <!-- Generator: Sketch 41.2 (35397) - http://www.bohemiancoding.com/sketch -->
    <title>Page 1</title>
    <desc>Created with Sketch.</desc>
    <defs>
        <filter x="-50%" y="-50%" width="200%" height="200%" filterUnits="objectBoundingBox" id="filter-1">
            <feOffset dx="0" dy="2" in="SourceAlpha" result="shadowOffsetOuter1"></feOffset>
            <feGaussianBlur stdDeviation="2" in="shadowOffsetOuter1" result="shadowBlurOuter1"></feGaussianBlur>
            <feColorMatrix values="0 0 0 0 0   0 0 0 0 0   0 0 0 0 0  0 0 0 0.5 0" type="matrix" in="shadowBlurOuter1" result="shadowMatrixOuter1"></feColorMatrix>
            <feMerge>
                <feMergeNode in="shadowMatrixOuter1"></feMergeNode>
                <feMergeNode in="SourceGraphic"></feMergeNode>
            </feMerge>
        </filter>
    </defs>
    <g id="Page-1" stroke="none" stroke-width="1" fill="none" fill-rule="evenodd">
        <g id="MENU_3" transform="translate(-810.000000, -411.000000)" fill="#FFFFFF">
            <g id="Page-1" filter="url(#filter-1)" transform="translate(814.000000, 413.000000)">
                <path d="M3.48007133,3.4300892 L46.7205399,3.4300892 L46.7205399,7.25118011 L50.2018056,7.91423693 L50.2018056,1.71400398 C50.2018056,0.767140341 49.4222427,2.10227272e-05 48.4615993,2.10227272e-05 L1.74007832,2.10227272e-05 C0.778368531,2.10227272e-05 8.53146921e-05,0.767140341 8.53146921e-05,1.71400398 L8.53146921e-05,31.6699187 C8.53146921e-05,32.6186744 0.778368531,33.386004 1.74007832,33.386004 L14.9088266,33.4280494 L13.5832497,29.9979812 L3.48007133,29.9557256 L3.48007133,3.4300892 Z" id="Fill-1"></path>
                <path d="M39.4474203,15.6625835 C39.4474203,16.446521 39.573686,17.1993449 39.804249,17.9050778 C39.4066825,18.0888165 39.1289832,18.5040153 39.1289832,18.9894301 C39.1289832,19.6487028 39.639165,20.1807881 40.2675077,20.1807881 C40.2741196,20.1807881 40.281158,20.1797369 40.2877699,20.1797369 C40.5225986,23.3140153 43.0280776,26.4495551 46.088742,26.4495551 C49.1472734,26.4495551 51.6527524,23.3140153 51.8880077,20.1797369 C51.8958993,20.1797369 51.9025112,20.1807881 51.9093364,20.1807881 C52.5374657,20.1807881 53.0470077,19.6487028 53.0470077,18.9894301 C53.0470077,18.5040153 52.7688818,18.0888165 52.3725951,17.9050778 C52.603158,17.1993449 52.7294238,16.446521 52.7294238,15.6625835 C52.7294238,11.8280381 49.7564203,8.72045852 46.088742,8.72045852 C42.4202105,8.72045852 39.4474203,11.8280381 39.4474203,15.6625835" id="Fill-3"></path>
                <polygon id="Fill-5" points="5.91145455 10.7295795 31.4348357 10.7295795 31.4348357 7.77315341 5.91145455 7.77315341"></polygon>
                <polygon id="Fill-7" points="6.19576573 16.7561648 24.4673986 16.7561648 24.4673986 13.7997386 6.19576573 13.7997386"></polygon>
                <path d="M60.626535,33.7043511 C58.488549,31.6579989 55.9762448,30.0947489 53.2649441,29.0925955 C53.0525105,29.0148114 52.8400769,28.9389193 52.6252972,28.8676523 C52.4785559,28.8188795 52.3316014,28.7698966 52.182514,28.7251182 C51.8067028,28.6050784 51.4270524,28.4959705 51.0431364,28.4022091 C50.9537692,28.3544875 50.8520315,28.32905 50.7481608,28.32905 L50.4250315,28.32905 C50.3230804,28.32905 50.2215559,28.3534364 50.1328287,28.400317 C49.0585035,28.969192 47.582986,29.2952545 46.0886993,29.2952545 C44.5918531,29.2952545 43.1188951,28.969192 42.0411573,28.400317 C41.9517902,28.3534364 41.8526119,28.3265273 41.7493811,28.3265273 L41.5147657,28.3265273 C41.5081538,28.3265273 41.5017552,28.3288398 41.4953566,28.32905 L41.4087622,28.32905 C41.3046783,28.32905 41.2031538,28.3544875 41.1137867,28.4022091 C40.7298706,28.4959705 40.3502203,28.6050784 39.9741958,28.7251182 C39.8251084,28.7698966 39.6781538,28.8188795 39.5314126,28.8676523 C39.3166329,28.9389193 39.1041993,29.0148114 38.891979,29.0925955 C38.0294476,29.4113 37.1871783,29.7876068 36.3702902,30.2175216 L28.0295,33.0944818 L23.5242448,26.8448455 L23.201542,27.0338398 L19.2998881,19.871817 C19.2998881,19.871817 18.5870839,19.028175 18.018035,19.2552205 C17.3171748,19.5348227 17.6428636,20.5252034 17.6428636,20.5252034 L18.5772727,22.9438682 L16.6414825,24.4705386 C16.6414825,24.4705386 16.1568951,24.7640159 16.0822448,25.8696011 C16.0391608,26.5057489 17.4157133,28.7530784 17.4157133,28.7530784 L18.3183427,29.8935614 L18.140035,29.9980443 L21.0398811,36.8577602 L31.7136014,36.8796239 C31.7893182,36.9124193 31.8727133,36.9313398 31.9608007,36.9313398 L31.9806364,36.9313398 L31.9814895,36.9313398 L60.1961224,36.9313398 C60.5371678,36.9313398 60.8129476,36.6572034 60.8129476,36.32105 L60.8129476,34.140783 C60.8129476,33.976175 60.7464021,33.8203966 60.626535,33.7043511" id="Fill-8"></path>
            </g>
        </g>
    </g>
</svg>