<?xml version="1.0" encoding="UTF-8" standalone="no"?>
<svg width="51px" height="51px" viewBox="0 0 51 51" version="1.1" xmlns="http://www.w3.org/2000/svg" xmlns:xlink="http://www.w3.org/1999/xlink">
    <!-- Generator: Sketch 43.2 (39069) - http://www.bohemiancoding.com/sketch -->
    <title>Group 13</title>
    <desc>Created with Sketch.</desc>
    <defs></defs>
    <g id="Page-1" stroke="none" stroke-width="1" fill="none" fill-rule="evenodd">
        <g id="RESERVA-DE-HORA---NUEVO-Paso-2---DIA-(Ambas-Clinicas)" transform="translate(-152.000000, -721.000000)">
            <g id="Group-21" transform="translate(152.000000, 720.000000)">
                <g id="Group-16" transform="translate(0.000000, 1.000000)">
                    <g id="Group-13">
                        <circle id="Oval" fill="#FFB535" cx="25.5" cy="25.5" r="25.5"></circle>
                        <path d="M23,12 L29.372,12 L29.372,16.464 L28.292,29.424 L24.044,29.424 L23,16.464 L23,12 Z M23,34.284 C23,33.3959956 23.3059969,32.6460031 23.918,32.034 C24.5300031,31.4219969 25.2799956,31.116 26.168,31.116 C27.0560044,31.116 27.8059969,31.4219969 28.418,32.034 C29.0300031,32.6460031 29.336,33.3959956 29.336,34.284 C29.336,35.1720044 29.0300031,35.9219969 28.418,36.534 C27.8059969,37.1460031 27.0560044,37.452 26.168,37.452 C25.2799956,37.452 24.5300031,37.1460031 23.918,36.534 C23.3059969,35.9219969 23,35.1720044 23,34.284 Z" id="!" fill="#FFFFFF"></path>
                    </g>
                </g>
            </g>
        </g>
    </g>
</svg>