<?xml version="1.0" encoding="UTF-8" standalone="no"?>
<svg width="142px" height="42px" viewBox="0 0 142 42" version="1.1" xmlns="http://www.w3.org/2000/svg" xmlns:xlink="http://www.w3.org/1999/xlink">
    <!-- Generator: Sketch 41.2 (35397) - http://www.bohemiancoding.com/sketch -->
    <title>Page 1</title>
    <desc>Created with Sketch.</desc>
    <defs>
        <filter x="-50%" y="-50%" width="200%" height="200%" filterUnits="objectBoundingBox" id="filter-1">
            <feOffset dx="0" dy="2" in="SourceAlpha" result="shadowOffsetOuter1"></feOffset>
            <feGaussianBlur stdDeviation="2" in="shadowOffsetOuter1" result="shadowBlurOuter1"></feGaussianBlur>
            <feColorMatrix values="0 0 0 0 0   0 0 0 0 0   0 0 0 0 0  0 0 0 0.5 0" type="matrix" in="shadowBlurOuter1" result="shadowMatrixOuter1"></feColorMatrix>
            <feMerge>
                <feMergeNode in="shadowMatrixOuter1"></feMergeNode>
                <feMergeNode in="SourceGraphic"></feMergeNode>
            </feMerge>
        </filter>
    </defs>
    <g id="Page-1" stroke="none" stroke-width="1" fill="none" fill-rule="evenodd">
        <g id="MENU_3" transform="translate(-1182.000000, -234.000000)" fill="#FFFFFF">
            <g id="Page-1" filter="url(#filter-1)" transform="translate(1186.000000, 236.000000)">
                <path d="M100.026206,21.0396259 C99.0033009,21.2709751 97.2659216,21.4681127 95.7113483,22.0931762 C94.8432362,22.4423032 94.0068914,23.3977053 93.6502319,24.2703825 C93.2563181,25.2341974 93.3911845,26.5631233 94.6194216,27.0345148 C96.0489474,27.5830228 97.6341328,28.1604143 99.1471198,27.3328852 C100.889409,26.3805677 102.040538,24.9007741 102.414525,22.958282 C102.783025,21.0435519 102.704184,20.9874672 100.026206,21.0396259 M50.8248138,11.055155 C52.953219,8.14323968 55.6609431,6.43966825 59.0262491,6.35189577 C62.5041845,6.2607582 65.1579043,7.93488519 66.3673698,10.8877423 C68.1408483,9.6454672 69.7107276,8.13847249 71.5971241,7.30982169 C75.4213224,5.6295254 80.6014043,6.23608095 82.6581888,10.0708693 C83.6845595,11.9841974 84.1587578,14.292081 84.3785293,16.4692873 C84.6638569,19.2928693 84.4443741,22.1644037 84.4461069,25.0154672 C84.4472621,26.7756841 84.4810509,26.7998005 86.1580724,26.5367635 C86.5239733,25.0011656 86.7578957,23.5011815 87.2474,22.0844831 C88.0280078,19.8251127 90.019525,18.7359487 92.1167405,17.8716841 C95.163219,16.6162291 98.3587147,16.1958746 101.650956,16.5049011 C102.897676,16.622118 103.134486,16.0626735 102.885258,14.9934196 C102.304206,12.4996153 100.598883,11.4642926 97.68265,11.9970968 C96.3903009,12.2332132 94.892331,12.3305201 95.0329733,14.2690862 C95.0485681,14.4816471 94.3713483,14.9255571 93.9950509,14.9482714 C92.6048009,15.0326788 91.1937578,15.0859593 89.8165034,14.9320069 C89.348081,14.8795677 88.6526672,14.2287053 88.577581,13.7713349 C88.0294517,10.4199963 90.1457276,7.60062063 93.6046026,6.89535608 C94.3525767,6.7425254 95.0944862,6.55548307 95.8473698,6.43125556 C100.017831,5.74449894 103.776184,6.72177407 107.003447,9.32578466 C108.797719,10.7736101 109.463676,12.8641656 109.553491,15.0842767 C109.651969,17.5107794 109.632042,19.9420492 109.714348,22.3696735 C109.755357,23.5763349 109.850947,24.7888852 110.056568,25.9764778 C110.106818,26.2678376 110.653215,26.5948111 111.029512,26.6907159 C111.792215,26.8858905 112.594771,26.9344037 113.434003,27.0504989 C113.897516,26.4674989 114.503404,25.8539328 114.927641,25.138573 C115.561831,24.0698799 116.130176,24.2403772 116.946883,24.9543349 C119.094637,26.8323296 121.570749,27.8749434 124.541275,27.5457265 C125.528947,27.4363614 126.342189,27.1503296 126.569469,26.0973402 C126.797038,25.0409857 126.197215,24.4052661 125.292426,24.0045413 C123.040417,23.0076365 120.738447,22.1100016 118.523693,21.0415889 C114.834072,19.2611815 112.398103,15.856282 113.605547,11.9934513 C114.351788,9.60536667 117.022835,7.46713915 119.982387,6.94891693 C123.334409,6.36227143 126.5764,6.67494339 129.783447,7.69287989 C131.34293,8.18810741 132.733469,9.98197513 132.726538,11.6157212 C132.710943,15.4210651 133.138934,14.794319 129.483969,14.8759222 C128.859309,14.889663 128.203172,14.9592079 127.618366,14.8032926 C127.192684,14.6897212 126.517486,14.2149646 126.543478,13.9564143 C126.682387,12.5542979 125.616741,12.2620968 124.688271,11.8439857 C123.552736,11.3324937 121.346357,11.7494831 120.475068,12.5929963 C119.649697,13.3919222 119.642766,14.4247212 120.672603,14.9182661 C122.92721,15.9981762 125.279141,16.8845942 127.56696,17.9019698 C129.57234,18.7934354 131.516784,19.7631392 132.796137,21.6531921 C135.569995,25.7498958 132.918297,30.6104725 129.074172,32.0793296 C123.583926,34.1768958 118.487016,33.3911497 113.872969,29.7888323 C113.727417,29.6752608 113.567137,29.5790757 113.10218,29.2635995 C113.10218,30.1141233 113.208167,30.7515254 113.069258,31.3339646 C112.95634,31.8081603 112.544232,32.5995148 112.276521,32.595028 C109.903797,32.5549275 107.500749,32.5456735 105.180297,32.1351339 C104.309008,31.9811815 103.63121,30.7947106 102.745193,29.9666206 C100.935904,32.2885254 98.1060207,33.2024249 95.1941198,33.2080333 C92.2466974,33.2136418 89.4867017,32.1415836 87.5460121,29.5238323 C87.5460121,30.0527106 87.5205983,30.582991 87.5512103,31.1101868 C87.6193655,32.2826365 87.0940509,32.8524566 85.8594603,32.8289011 C84.4160724,32.8014196 82.9715293,32.8238534 81.5278526,32.8185254 C78.3970466,32.8061868 77.0267233,31.5529751 77.0287448,28.4792556 C77.0307664,25.0264037 77.1823828,21.5735519 77.2430293,18.1204196 C77.2563138,17.3761762 77.2283009,16.6181921 77.1000767,15.8862873 C76.5637879,12.8235042 73.8748353,11.736864 71.1448741,13.4415571 C68.619956,15.0186577 67.7864991,17.506573 67.6588526,20.1649857 C67.5135897,23.1840228 67.5869431,26.2311021 67.83415,29.2450915 C68.0943526,32.4121921 67.8353052,32.8549804 64.5566371,32.8115148 C63.5981328,32.7988958 62.6090164,32.7921656 61.6981629,32.5524037 C61.244469,32.4329434 60.7231974,31.8415307 60.6111457,31.3771497 C60.4286284,30.6236524 60.5710034,29.7989275 60.5525207,29.0047688 C60.4479776,24.4383561 60.3708698,19.8708217 60.2094345,15.306372 C60.1476328,13.5545677 59.4961155,13.0713984 57.7133957,12.9143614 C54.0965509,12.5958005 51.9121198,15.1916788 51.5109862,18.3831762 C51.0064647,22.3977159 51.0951241,26.4848852 50.9839388,30.5420492 C50.9261802,32.6390545 50.8554259,32.7630016 48.7050724,32.7618799 C47.5501888,32.761319 46.3950164,32.7630016 45.239844,32.7604778 C44.2943353,32.7587952 43.7785509,32.2677741 43.790969,31.377991 C43.8585466,26.5263878 43.957025,21.6756259 44.0442405,16.8240228 C44.0552147,16.2171868 44.0699431,15.6100704 44.0705207,15.002954 C44.0725422,13.0957952 44.058969,13.1527212 42.0665853,12.7797582 C41.6157793,12.6953508 41.2622966,12.0722503 40.891775,11.6729275 C40.8175552,11.5927265 40.8649172,11.4014778 40.8649172,11.2615466 C40.8594302,6.33478995 40.3635724,7.1292291 44.963469,7.06024497 C45.7331026,7.04874762 46.5059129,7.03977407 47.2723698,7.09557831 C49.5307319,7.26102804 50.4112621,8.13118148 50.6087966,10.3182026 C50.6241026,10.4870175 50.7038095,10.6507847 50.8248138,11.055155" id="Fill-1"></path>
                <path d="M23.8056776,16.2924243 L34.333919,16.2924243 C33.8395052,13.4764138 32.3938069,11.9553979 30.1062767,11.7004931 C28.0769276,11.4741915 25.0466216,12.6141122 23.8056776,16.2924243 M23.5864836,21.2009534 C24.59235,27.5138423 31.1511302,29.5241968 38.284031,24.4252603 C39.1639836,25.8343873 40.094475,27.1994878 40.8534233,28.6487153 C41.000419,28.929419 40.6082379,29.7120804 40.2440698,29.9728741 C36.6379103,32.5558529 32.6473672,33.7681228 28.1384405,32.968636 C23.5954362,32.1626995 19.884156,30.2174032 17.6633371,26.0545196 C16.6158845,24.0904349 16.2436302,21.9934296 16.2338112,19.8641757 C16.2098414,14.7756148 18.1834534,10.6651704 22.8575698,8.00815979 C25.5655828,6.46919683 28.5225353,6.37273122 31.4985483,6.71120212 C37.8479534,7.43385291 41.0119707,12.1152392 41.4102164,18.1039587 C41.6071733,21.0641069 41.5520138,21.0649481 38.5052466,21.0641069 C34.2238888,21.0627048 29.942531,21.060181 25.6611733,21.0722392 C25.0018586,21.0742021 24.3422552,21.1518794 23.5864836,21.2009534" id="Fill-3"></path>
                <g id="Group-7" transform="translate(0.000000, 0.137127)">
                    <path d="M10.3670659,18.8086344 C10.4710315,20.3422693 10.5016435,21.8848778 10.6974453,23.4070153 C10.9356996,25.2575286 12.2320918,26.3523011 14.1540099,26.4981212 C14.4890099,26.5236397 14.8306522,26.5525233 15.1624754,26.5188725 C16.4135272,26.3915603 16.9137168,26.9005286 16.8221694,28.1299042 C16.7387082,29.2448672 16.8845487,30.3791794 16.7569022,31.4860101 C16.7075185,31.9158989 16.2151263,32.6177984 15.8743504,32.6475233 C11.7099539,33.0089889 7.74395819,32.4893646 5.05125129,28.9652852 C3.11056164,26.4254915 2.95057026,23.3941159 3.18622543,20.3083381 C3.36700991,17.9432481 3.32744526,15.5616132 3.35805733,13.1867085 C3.36932026,12.3154333 2.70827284,12.3140312 2.04289353,12.3016926 C-0.00493836207,12.2632746 -0.00464956896,12.2526185 0.000548706898,10.2652587 C0.000837500002,10.0316661 0.000837500002,9.79835397 0.0011262931,9.56476138 C0.00170387931,7.07348095 -2.88793088e-05,7.04627989 2.55838922,6.8741 C3.38289353,6.81913704 3.61652716,6.49132222 3.59024698,5.73389894 C3.53999698,4.28803651 3.60035474,2.83880899 3.55905733,1.39238571 C3.53335474,0.494750794 3.89607888,0.118422751 4.83147974,0.146745503 C6.17638922,0.187967725 7.52534181,0.193856614 8.86967371,0.14562381 C9.85561336,0.110290476 10.2737858,0.466708466 10.2388418,1.4476291 C10.1888806,2.84638042 10.2859151,4.2518619 10.2070746,5.64836984 C10.1522039,6.61330635 10.581928,6.88671905 11.4691004,6.86540688 C12.6225401,6.83764497 13.7898418,6.76108942 14.9247987,6.90382487 C15.3675185,6.95906825 16.0155703,7.50561323 16.0892125,7.91110529 C16.2876134,9.00391481 16.2318763,10.1407508 16.268553,11.260481 C16.2974323,12.1525074 15.8391177,12.5336026 14.929997,12.475555 C13.8285401,12.4048884 12.7204409,12.4068513 11.6238935,12.2969254 C10.4138504,12.1763434 10.1221694,12.735227 10.2166047,13.778682 C10.3682211,15.4483222 10.4551478,17.1232905 10.5692211,18.7957349 C10.5019323,18.8002217 10.4343547,18.804428 10.3670659,18.8086344" id="Fill-5"></path>
                </g>
            </g>
        </g>
    </g>
</svg>