<?xml version="1.0" encoding="UTF-8" standalone="no"?>
<svg width="36px" height="60px" viewBox="0 0 36 60" version="1.1" xmlns="http://www.w3.org/2000/svg" xmlns:xlink="http://www.w3.org/1999/xlink">
    <!-- Generator: Sketch 43.2 (39069) - http://www.bohemiancoding.com/sketch -->
    <title>Page 1</title>
    <desc>Created with Sketch.</desc>
    <defs>
        <polygon id="path-1" points="13.3643858 17.9527559 0.098480315 17.9527559 0.098480315 0.16823622 13.3643858 0.16823622 13.3643858 17.9527559"></polygon>
    </defs>
    <g id="Desktop" stroke="none" stroke-width="1" fill="none" fill-rule="evenodd">
        <g id="Pago-de-Cuenta---Pago---Paso-3" transform="translate(-508.000000, -760.000000)">
            <g id="Page-1" transform="translate(508.000000, 760.000000)">
                <g id="Group-3" transform="translate(10.866142, 41.917323)">
                    <mask id="mask-2" fill="white">
                        <use xlink:href="#path-1"></use>
                    </mask>
                    <g id="Clip-2"></g>
                    <path d="M7.2498189,17.7338268 L13.1454094,11.8384724 C13.2911575,11.692252 13.3643858,11.5195748 13.3643858,11.3202047 C13.3643858,11.1208346 13.2911575,10.9474488 13.1454094,10.801937 C12.999189,10.656189 12.826748,10.5831969 12.6276142,10.5831969 L9.79792913,10.5831969 L9.79792913,0.640677165 C9.79792913,0.379653543 9.58651181,0.16823622 9.32548819,0.16823622 L4.13714173,0.16823622 C3.87635433,0.16823622 3.66470079,0.379653543 3.66470079,0.640677165 L3.66470079,10.5831969 L0.835724409,10.5831969 C0.636354331,10.5831969 0.463440945,10.656189 0.317929134,10.801937 C0.171472441,10.9474488 0.098480315,11.1208346 0.098480315,11.3202047 C0.098480315,11.5195748 0.171472441,11.692252 0.317929134,11.8384724 L6.21351969,17.7338268 C6.35879528,17.8795748 6.53194488,17.9528031 6.73202362,17.9528031 C6.93115748,17.9528031 7.10359843,17.8795748 7.2498189,17.7338268" id="Fill-1" fill="#3D7DDA" mask="url(#mask-2)"></path>
                </g>
                <g id="Group-6" transform="translate(0.000000, 0.106299)" fill="#3D7DDA">
                    <path d="M28.7957244,28.1255669 C28.7957244,28.3424173 28.717063,28.5292677 28.5585591,28.6882441 C28.4000551,28.8462756 28.2127323,28.9254094 27.9958819,28.9254094 L26.3959606,28.9254094 C26.1795827,28.9254094 25.9922598,28.8462756 25.8337559,28.6882441 C25.6757244,28.5292677 25.5968268,28.3424173 25.5968268,28.1255669 L25.5968268,26.5256457 C25.5968268,26.3092677 25.6757244,26.1217087 25.8337559,25.9636772 C25.9922598,25.8056457 26.1795827,25.7260394 26.3959606,25.7260394 L27.9958819,25.7260394 C28.2127323,25.7260394 28.4000551,25.8056457 28.5585591,25.9636772 C28.7165906,26.1219449 28.7957244,26.3092677 28.7957244,26.5256457 L28.7957244,28.1255669 Z M25.5963543,20.1269055 C25.5963543,19.9102913 25.675252,19.7229685 25.8335197,19.5647008 C25.9917874,19.4061969 26.1793465,19.327063 26.3957244,19.327063 L27.9956457,19.327063 C28.2124961,19.327063 28.3995827,19.4061969 28.5583228,19.5647008 C28.7163543,19.7232047 28.7954882,19.9102913 28.7954882,20.1269055 L28.7954882,21.7265906 C28.7954882,21.9432047 28.7165906,22.1305276 28.5583228,22.2890315 C28.3995827,22.4472992 28.2124961,22.5264331 27.9956457,22.5264331 L26.3957244,22.5264331 C26.1793465,22.5264331 25.9917874,22.4472992 25.8335197,22.2890315 C25.675252,22.1305276 25.5963543,21.9432047 25.5963543,21.7265906 L25.5963543,20.1269055 Z M22.3965118,12.1280079 C22.3965118,12.344622 22.317378,12.5319449 22.1595827,12.6902126 C22.0010787,12.8487165 21.8137559,12.9278504 21.5969055,12.9278504 L19.9972205,12.9278504 C19.7806063,12.9278504 19.5930472,12.8487165 19.4347795,12.6902126 C19.2769843,12.5319449 19.197378,12.344622 19.197378,12.1280079 L19.197378,9.72824409 L15.9982441,9.72824409 L15.9982441,12.1280079 C15.9982441,12.344622 15.918874,12.5319449 15.7606063,12.6902126 C15.6023386,12.8487165 15.4147795,12.9278504 15.1981654,12.9278504 L13.5987165,12.9278504 C13.3821024,12.9278504 13.1945433,12.8487165 13.0362756,12.6902126 C12.8780079,12.5319449 12.798874,12.344622 12.798874,12.1280079 L12.798874,4.12911024 C12.798874,3.91249606 12.8780079,3.72493701 13.0362756,3.56666929 C13.1945433,3.40840157 13.3821024,3.32926772 13.5987165,3.32926772 L15.1981654,3.32926772 C15.4147795,3.32926772 15.6023386,3.40840157 15.7606063,3.56666929 C15.918874,3.72493701 15.9982441,3.91249606 15.9982441,4.12911024 L15.9982441,6.52887402 L19.197378,6.52887402 L19.197378,4.12911024 C19.197378,3.91249606 19.276748,3.72493701 19.4347795,3.56666929 C19.5932835,3.40840157 19.7806063,3.32926772 19.9972205,3.32926772 L21.5969055,3.32926772 C21.8137559,3.32926772 22.0010787,3.40840157 22.1595827,3.56666929 C22.3176142,3.72493701 22.3965118,3.91249606 22.3965118,4.12911024 L22.3965118,12.1280079 Z M22.3965118,21.7265906 C22.3965118,21.9432047 22.3176142,22.1305276 22.1595827,22.2890315 C22.0010787,22.4472992 21.8137559,22.5264331 21.5969055,22.5264331 L19.9972205,22.5264331 C19.7806063,22.5264331 19.5932835,22.4472992 19.4347795,22.2890315 C19.276748,22.1305276 19.197378,21.9432047 19.197378,21.7265906 L19.197378,20.1269055 C19.197378,19.9102913 19.2769843,19.7229685 19.4347795,19.5647008 C19.5930472,19.4061969 19.7806063,19.327063 19.9972205,19.327063 L21.5969055,19.327063 C21.8137559,19.327063 22.001315,19.4061969 22.1595827,19.5647008 C22.317378,19.7232047 22.3965118,19.9102913 22.3965118,20.1269055 L22.3965118,21.7265906 Z M22.3965118,28.1255669 C22.3965118,28.3424173 22.3176142,28.5292677 22.1595827,28.6882441 C22.0010787,28.8462756 21.8137559,28.9254094 21.5969055,28.9254094 L19.9972205,28.9254094 C19.7806063,28.9254094 19.5932835,28.8462756 19.4347795,28.6882441 C19.276748,28.5292677 19.197378,28.3424173 19.197378,28.1255669 L19.197378,26.5256457 C19.197378,26.3092677 19.2769843,26.1219449 19.4347795,25.9636772 C19.5930472,25.8056457 19.7806063,25.7260394 19.9972205,25.7260394 L21.5969055,25.7260394 C21.8137559,25.7260394 22.001315,25.8056457 22.1595827,25.9636772 C22.317378,26.1219449 22.3965118,26.3092677 22.3965118,26.5256457 L22.3965118,28.1255669 Z M15.9977717,21.7265906 C15.9977717,21.9432047 15.9186378,22.1305276 15.7603701,22.2890315 C15.6021024,22.4472992 15.4147795,22.5264331 15.1981654,22.5264331 L13.5984803,22.5264331 C13.3818661,22.5264331 13.1943071,22.4472992 13.0360394,22.2890315 C12.8777717,22.1305276 12.7984016,21.9432047 12.7984016,21.7265906 L12.7984016,20.1269055 C12.7984016,19.9102913 12.8777717,19.7229685 13.0360394,19.5647008 C13.1943071,19.4061969 13.3818661,19.327063 13.5984803,19.327063 L15.1981654,19.327063 C15.4147795,19.327063 15.6021024,19.4061969 15.7603701,19.5647008 C15.9184016,19.7232047 15.9977717,19.9102913 15.9977717,20.1269055 L15.9977717,21.7265906 Z M15.9977717,28.1255669 C15.9977717,28.3424173 15.9186378,28.5292677 15.7603701,28.6882441 C15.6021024,28.8462756 15.4147795,28.9254094 15.1981654,28.9254094 L13.5984803,28.9254094 C13.3818661,28.9254094 13.1943071,28.8462756 13.0360394,28.6882441 C12.8777717,28.5292677 12.7984016,28.3424173 12.7984016,28.1255669 L12.7984016,26.5256457 C12.7984016,26.3092677 12.8777717,26.1219449 13.0360394,25.9636772 C13.1943071,25.8056457 13.3818661,25.7260394 13.5984803,25.7260394 L15.1981654,25.7260394 C15.4147795,25.7260394 15.6021024,25.8056457 15.7603701,25.9636772 C15.9184016,26.1219449 15.9977717,26.3092677 15.9977717,26.5256457 L15.9977717,28.1255669 Z M9.59855906,21.7265906 C9.59855906,21.9432047 9.5194252,22.1305276 9.36115748,22.2890315 C9.20288976,22.4472992 9.01533071,22.5264331 8.79871654,22.5264331 L7.1990315,22.5264331 C6.98241732,22.5264331 6.79509449,22.4472992 6.63659055,22.2890315 C6.47832283,22.1305276 6.39918898,21.9432047 6.39918898,21.7265906 L6.39918898,20.1269055 C6.39918898,19.9102913 6.47832283,19.7229685 6.63659055,19.5647008 C6.79509449,19.4061969 6.98241732,19.327063 7.1990315,19.327063 L8.79871654,19.327063 C9.01533071,19.327063 9.20288976,19.4061969 9.36115748,19.5647008 C9.5194252,19.7229685 9.59855906,19.9102913 9.59855906,20.1269055 L9.59855906,21.7265906 Z M9.59855906,28.1255669 C9.59855906,28.3424173 9.5194252,28.5292677 9.36115748,28.6882441 C9.20288976,28.8462756 9.01533071,28.9254094 8.79871654,28.9254094 L7.1990315,28.9254094 C6.98241732,28.9254094 6.79509449,28.8462756 6.63659055,28.6882441 C6.47832283,28.5292677 6.39918898,28.3424173 6.39918898,28.1255669 L6.39918898,26.5256457 C6.39918898,26.3092677 6.47832283,26.1217087 6.63659055,25.9636772 C6.79509449,25.8056457 6.98241732,25.7260394 7.1990315,25.7260394 L8.79871654,25.7260394 C9.01533071,25.7260394 9.20288976,25.8056457 9.36115748,25.9636772 C9.5194252,26.1217087 9.59855906,26.3092677 9.59855906,26.5256457 L9.59855906,28.1255669 Z M34.719189,10.2035197 C34.4028898,9.88674803 34.0275354,9.72848031 33.5943071,9.72848031 L25.5961181,9.72848031 L25.5961181,2.52989764 C25.5961181,1.86304724 25.3629685,1.29611811 24.8964331,0.829582677 C24.4298976,0.363519685 23.8627323,0.129897638 23.1963543,0.129897638 L11.9980866,0.129897638 C11.3317087,0.129897638 10.7650157,0.363283465 10.2984803,0.829582677 C9.83170866,1.29635433 9.59855906,1.86304724 9.59855906,2.52989764 L9.59855906,9.72848031 L1.59989764,9.72848031 C1.16643307,9.72848031 0.791551181,9.88674803 0.474779528,10.2035197 C0.158244094,10.5200551 -2.36220466e-05,10.894937 -2.36220466e-05,11.3281654 L-2.36220466e-05,43.3230472 C-2.36220466e-05,43.7565118 0.158244094,44.1313937 0.474779528,44.4481654 C0.791787402,44.7644646 1.16690551,44.9227323 1.59989764,44.9227323 L12.6694252,44.9227323 L12.6694252,38.6716299 C12.6694252,38.0047795 12.9025748,37.4380866 13.3693465,36.971315 C13.8358819,36.5050157 14.4025748,36.2716299 15.0689528,36.2716299 L20.1254882,36.2716299 C20.7918661,36.2716299 21.3590315,36.505252 21.8255669,36.971315 C22.2921024,37.4378504 22.525252,38.0047795 22.525252,38.6716299 L22.525252,44.9227323 L33.5950157,44.9227323 C34.0282441,44.9227323 34.4033622,44.7644646 34.7198976,44.4481654 C35.0359606,44.1313937 35.194937,43.7565118 35.194937,43.3230472 L35.194937,11.3281654 C35.1947008,10.894937 35.0364331,10.5200551 34.719189,10.2035197 L34.719189,10.2035197 Z" id="Fill-4"></path>
                </g>
            </g>
        </g>
    </g>
</svg>