<?xml version="1.0" encoding="UTF-8" standalone="no"?>
<svg width="39px" height="40px" viewBox="0 0 39 40" version="1.1" xmlns="http://www.w3.org/2000/svg" xmlns:xlink="http://www.w3.org/1999/xlink">
    <!-- Generator: Sketch 41.2 (35397) - http://www.bohemiancoding.com/sketch -->
    <title>Group 3</title>
    <desc>Created with Sketch.</desc>
    <defs>
        <filter x="-50%" y="-50%" width="200%" height="200%" filterUnits="objectBoundingBox" id="filter-1">
            <feOffset dx="0" dy="2" in="SourceAlpha" result="shadowOffsetOuter1"></feOffset>
            <feGaussianBlur stdDeviation="2" in="shadowOffsetOuter1" result="shadowBlurOuter1"></feGaussianBlur>
            <feColorMatrix values="0 0 0 0 0   0 0 0 0 0   0 0 0 0 0  0 0 0 0.5 0" type="matrix" in="shadowBlurOuter1" result="shadowMatrixOuter1"></feColorMatrix>
            <feMerge>
                <feMergeNode in="shadowMatrixOuter1"></feMergeNode>
                <feMergeNode in="SourceGraphic"></feMergeNode>
            </feMerge>
        </filter>
    </defs>
    <g id="Symbols" stroke="none" stroke-width="1" fill="none" fill-rule="evenodd">
        <g id="PIE-PAGINA" transform="translate(-208.000000, -303.000000)" fill="#FFFFFF">
            <g id="Group-3" filter="url(#filter-1)" transform="translate(212.000000, 305.000000)">
                <path d="M20.6882666,12.0347822 C20.3115479,12.4453586 20.0234689,12.7353271 19.8250189,12.9063248 C19.626371,13.0775044 19.3636177,13.2941621 19.0365609,13.5592086 C18.7097021,13.8246188 18.431318,14.0556477 18.2033874,14.2519312 C17.9750611,14.4478509 17.791846,14.6152104 17.6527529,14.7527362 C17.295622,15.1282035 17.1179469,15.6575687 17.1179469,16.3422872 L17.1179469,17.495976 L13.7555743,17.495976 L13.7555743,15.9311651 C13.7555743,15.2475381 13.8487647,14.7405481 14.0377176,14.4067387 C14.2268684,14.0725655 14.6382119,13.6323374 15.2725397,13.0856905 L17.44441,11.2141751 C17.9008649,10.7870447 18.1299827,10.2571337 18.1299827,9.62498794 C18.1299827,8.99302407 17.8911699,8.46711517 17.415523,8.04780696 C16.9386889,7.63068171 16.3233554,7.41948135 15.5705116,7.41948135 C14.8162828,7.41948135 14.1869014,7.62213182 13.6805867,8.02270304 C13.1754592,8.42545722 12.8826316,8.95973409 12.8028955,9.62498794 L9.20329299,9.62498794 C9.40075373,8.10401791 10.090877,6.91303707 11.2710908,6.04949866 C12.4505131,5.18559641 13.9239501,4.75391816 15.6890276,4.75391816 C17.4539072,4.75391816 18.8927193,5.16886047 20.0038811,5.99747169 C21.1140537,6.8271744 21.6700303,7.98504717 21.6700303,9.47036235 C21.6700303,10.4974401 21.3429736,11.3522467 20.6882666,12.0347822 M17.1033055,22.6213594 C16.6563478,22.9977363 16.1213439,23.1851061 15.4965132,23.1851061 C14.8706933,23.1851061 14.3305452,23.0033755 13.874486,22.6344571 C13.4178333,22.2671758 13.1902984,21.8225818 13.1902984,21.3012207 C13.1902984,20.7798596 13.4128869,20.3307178 13.8596468,19.9556143 C14.3066045,19.5799651 14.8416084,19.3924133 15.4662412,19.3924133 C16.0912697,19.3924133 16.6310222,19.5754173 17.0872791,19.9432442 C17.543734,20.3105255 17.7728518,20.7545738 17.7728518,21.2761168 C17.7728518,21.7974779 17.5484825,22.2462559 17.1033055,22.6213594 M15.4328035,0 C6.90954311,0 0,6.35274672 0,14.1891714 C0,21.4449315 5.92520725,27.4251216 13.5689957,28.2717421 L16.0263728,31.8588738 L18.0557865,28.1700531 C25.3291876,27.0243684 30.8656069,21.202988 30.8656069,14.1891714 C30.8656069,6.35274672 23.9564595,0 15.4328035,0" id="Fill-1"></path>
            </g>
        </g>
    </g>
</svg>