<svg width="54" height="70" viewBox="0 0 54 70" xmlns="http://www.w3.org/2000/svg" xmlns:xlink="http://www.w3.org/1999/xlink"><title>210B778B-A170-4AB7-8115-2EA188DD34CC</title><defs><path id="a" d="M.319 7.91h15.54V.365H.32z"/></defs><g fill="none" fill-rule="evenodd"><g transform="translate(26.367 61.223)"><mask id="b" fill="#fff"><use xlink:href="#a"/></mask><path d="M.319.57c.703 3.856 2.97 7.497 7.771 7.335 4.044-.136 7.374-3.306 7.77-7.54L.318.57z" fill="#3D7DDA" mask="url(#b)"/></g><path d="M29.132 21.3h9.665V3.887h-9.665V21.3zM42.022 0H25.395c-.793 0-1.435.846-1.435 1.89s.642 1.89 1.435 1.89h.544v22.957h2.673c1.873 0 3.39 1.601 3.39 3.578 0 .692.396 1.447.074 1.994l9.481-.11V3.778h.463c.793 0 1.436-.845 1.436-1.89C43.457.847 42.814 0 42.021 0z" fill="#3D7DDA"/><path d="M17.555 35.547l27.81-.322s3.688.245 3.67 1.955c-.027 2.64-3.96 2.546-3.96 2.546l-15.584.135s-1.258.51-.971 1.152c.287.643 1.702.694 1.702.694l20.033-.096s2.951-.306 3.272 1.908c.351 2.431-3.124 2.585-3.124 2.585l-19.757-.013s-1.486.369-1.406 1.354c.019.224 1.83.485 1.83.485l17.217.056s4.019-.516 4.19 1.99c.165 2.414-3.344 2.2-3.344 2.2l-17.787.281s-2.255-.024-1.684.969c.441.769 1.55.87 1.55.87l9.276.163s3.665-.02 3.88 1.959c.271 2.51-3.82 2.546-3.82 2.546H.092L0 38.222l11.689-8.97 14.032-.27s3.41-.196 3.862 1.975c.542 2.607-3.25 3.173-3.25 3.173l-8.822.26.044 1.157zM36.87 16.81a2.97 2.97 0 1 1-5.94 0 2.97 2.97 0 0 1 5.94 0M36.73 10.586a1.556 1.556 0 1 1-3.113-.001 1.556 1.556 0 0 1 3.112 0" fill="#3D7DDA"/></g></svg>