<?xml version="1.0" encoding="utf-8"?>
<!-- Generator: Adobe Illustrator 20.1.0, SVG Export Plug-In . SVG Version: 6.00 Build 0)  -->
<svg version="1.1" id="Layer_1" xmlns="http://www.w3.org/2000/svg" xmlns:xlink="http://www.w3.org/1999/xlink" x="0px" y="0px"
	 viewBox="0 0 95 85" enable-background="new 0 0 95 85" xml:space="preserve">
<title>nino_prot1</title>
<desc>Created with Sketch.</desc>
<g id="Clip-79">
</g>
<path fill="#231F20" d="M86.532,52.204C80.434,65.632,66.01,75.069,49.191,75.069c-16.822,0-31.245-9.437-37.344-22.865h20.604
	c4.175,4.122,10.129,6.698,16.739,6.698c6.607,0,12.562-2.576,16.737-6.698H86.532z M32.615,23.414H11.92
	C18.061,10.071,32.436,0.709,49.19,0.709c10.892,0,20.778,3.957,28.051,10.392c6.069,0.18,10.929,4.759,10.929,10.382
	c0,5.736-5.059,10.385-11.3,10.385c-5.523,0-10.12-3.641-11.105-8.454c-4.165-4.029-10.051-6.54-16.574-6.54
	C42.666,16.874,36.782,19.385,32.615,23.414z M66.836,21.483c0,5.094,4.492,9.222,10.034,9.222s10.034-4.128,10.034-9.222
	c0-5.094-4.492-9.224-10.034-9.224S66.836,16.389,66.836,21.483z M70.879,23.261h3.801v4.229l3.881-0.007
	c0.27,0,0.508-0.102,0.674-0.27c0.055-0.055,0.134-0.198,0.099-0.393c-0.974-4.544-4.812-7.918-9.335-7.866v3.47
	C69.998,22.877,70.375,23.261,70.879,23.261z M84.159,23.263l0.007-0.001v-3.49c0-0.453-0.413-0.817-0.918-0.817h-3.787v-4.261
	h-3.877c-0.504,0-0.904,0.388-0.904,0.841v3.42C78.102,18.955,81.908,20.365,84.159,23.263z M8.554,63.306
	c-0.567-0.062-1.016-0.2-1.359-0.688c-0.46-0.655-0.188-1.47,0.576-1.923l0.015-0.008c0.741-0.439,1.668-0.337,2.128,0.318
	c0.314,0.447,0.297,0.892,0.122,1.374l1.506,0.489c0.334-0.784,0.339-1.658-0.332-2.614c-0.995-1.414-2.894-1.775-4.376-0.895
	l-0.015,0.008C5.3,60.27,4.943,62.004,5.882,63.339c0.727,1.036,1.63,1.341,2.601,1.39L8.554,63.306z M10.376,66.51l3.519-2.699
	l-1.074-1.184l-4.648,3.564l2.952,3.252l1.128-0.865L10.376,66.51z M17.43,66.824l1.682,0.113l-0.728-1.318l-1.769,0.447
	L17.43,66.824z M16.198,66.212l-4.301,3.915l1.187,1.102l4.301-3.915L16.198,66.212z M21.086,70.286l-2.033,2.271l0.11-3.725
	l-1.208-0.915l-3.847,4.296l1.282,0.97l2.112-2.356l-0.116,3.867l1.136,0.858l3.848-4.296L21.086,70.286z M23.132,71.662
	l-3.356,4.631l1.403,0.859l3.356-4.632L23.132,71.662z M25.672,78.057c-0.748-0.367-0.938-1.201-0.511-1.937l0.009-0.015
	c0.415-0.715,1.28-1.039,2.027-0.67c0.512,0.25,0.731,0.646,0.832,1.146l1.575-0.244c-0.123-0.835-0.579-1.602-1.669-2.136
	c-1.617-0.796-3.467-0.263-4.298,1.168l-0.009,0.013c-0.853,1.465-0.249,3.142,1.276,3.891c1.182,0.58,2.134,0.445,3.008,0.056
	l-0.689-1.277C26.695,78.252,26.229,78.329,25.672,78.057z M33.989,76.697l0.316,6.074l-1.688-0.57l-0.042-1.072l-2.19-0.74
	l-0.778,0.795l-1.656-0.559l4.52-4.441L33.989,76.697z M32.571,79.849l-0.039-1.696l-1.235,1.268L32.571,79.849z M41.043,80.53
	c-0.795-0.302-0.98-0.443-0.934-0.694l0.004-0.017c0.035-0.194,0.261-0.321,0.661-0.259c0.529,0.082,1.09,0.364,1.57,0.803
	l1.026-0.945c-0.56-0.579-1.307-0.955-2.32-1.113c-1.433-0.223-2.447,0.377-2.636,1.396l-0.002,0.016
	c-0.21,1.129,0.71,1.61,1.932,2.075c0.778,0.299,0.951,0.455,0.907,0.683l-0.002,0.016c-0.043,0.235-0.309,0.339-0.751,0.271
	c-0.69-0.109-1.305-0.438-1.814-0.962l-1.107,0.867c0.621,0.719,1.571,1.182,2.628,1.347c1.449,0.227,2.536-0.289,2.743-1.41
	l0.003-0.016C43.143,81.56,42.365,81.02,41.043,80.53z M47.735,78.959l2.333,5.693l-1.797-0.064l-0.397-1.009l-2.333-0.086
	l-0.475,0.979l-1.762-0.065l2.815-5.507L47.735,78.959z M47.442,82.361l-0.606-1.603l-0.751,1.554L47.442,82.361z M54.602,78.67
	l0.328,2.926l-2.807-2.691l-1.557,0.146l0.619,5.537l1.651-0.156l-0.34-3.037l2.913,2.794l1.463-0.138l-0.62-5.537L54.602,78.67z
	 M61.844,77.3l-5.164,1.136l0.344,1.314l1.766-0.389l1.067,4.098l1.63-0.359l-1.066-4.098l1.766-0.387L61.844,77.3z M65.008,76.185
	l4.521,4.442l-1.688,0.57l-0.787-0.793l-2.191,0.74l-0.033,1.068l-1.654,0.561l0.314-6.076L65.008,76.185z M66.15,79.432
	l-1.227-1.271l-0.047,1.701L66.15,79.432z M73.655,72.113l0.011,2.529l-2.465-1.129l-1.506,0.859l3.195,4.727l1.394-0.797
	l-1.825-2.701l2.55,1.09l0.029-0.016l0.065-2.601l1.834,2.714l1.418-0.81l-3.195-4.727L73.655,72.113z M78.527,68.596l5.919,2.723
	l-1.366,1.074L82.041,71.9l-1.775,1.395l0.374,1.012l-1.342,1.055l-2.001-5.8L78.527,68.596z M79.193,70.476l0.6,1.612l1.033-0.811
	L79.193,70.476z M86.355,66.45l2.537,0.296l-1.287,1.332l-2.18-0.283l-0.012,0.014l-0.477,0.492l1.371,1.119l-1.115,1.152
	l-4.525-3.694l1.901-1.967c0.614-0.638,1.22-0.929,1.8-0.954c0.495-0.032,0.965,0.127,1.41,0.491l0.014,0.011
	C86.484,65.025,86.617,65.738,86.355,66.45z M84.751,65.682l-0.013-0.01c-0.355-0.291-0.768-0.201-1.141,0.185l-0.729,0.755
	l1.086,0.887l0.734-0.761C85.068,66.346,85.08,65.951,84.751,65.682z M84.576,62.668l4.884,3.285l0.995-1.25l-4.884-3.285
	L84.576,62.668z M84.355,62.313l0.684-0.859l-0.143-1.543l-1.301,0.867L84.355,62.313z M87.971,57.842l6.562,0.787l-0.909,1.427
	l-1.155-0.152l-1.18,1.851l0.715,0.846l-0.891,1.398l-3.959-4.873L87.971,57.842z M89.272,59.417l1.14,1.341l0.686-1.076
	L89.272,59.417z M34.123,32.363c-0.018,0.493-0.042,0.983-0.073,1.475c-0.03,0.492-0.059,0.946-0.083,1.365
	c-0.024,0.42-0.052,0.78-0.082,1.082c-0.032,0.301-0.059,0.508-0.081,0.619c0.205-0.022,0.43-0.033,0.674-0.033
	c0.23,0,0.443,0.011,0.637,0.033c-0.012-0.089-0.024-0.259-0.036-0.509c-0.012-0.252-0.024-0.544-0.037-0.881
	c-0.012-0.333-0.024-0.698-0.036-1.087c-0.012-0.392-0.021-0.777-0.028-1.158c-0.004-0.379-0.012-0.741-0.019-1.087
	c-0.005-0.348-0.009-0.637-0.009-0.871c0-0.906,0.007-1.621,0.019-2.146c0.012-0.525,0.024-0.943,0.036-1.256
	c1.58,1.542,3.159,3.092,4.74,4.649c1.579,1.561,3.069,3.081,4.465,4.568h0.255V36.57c0-0.268-0.002-0.585-0.008-0.947
	c-0.005-0.363-0.012-0.754-0.019-1.174c-0.006-0.418-0.013-0.835-0.018-1.248c-0.006-0.413-0.009-0.81-0.009-1.19v-1.006
	c0-0.324,0.013-0.754,0.037-1.289c0.025-0.536,0.051-1.083,0.082-1.642c0.03-0.558,0.06-1.083,0.092-1.575
	c0.028-0.492,0.057-0.86,0.082-1.106c-0.245,0.057-0.439,0.084-0.583,0.084c-0.171,0-0.377-0.028-0.62-0.084
	c0.061,0.984,0.1,2.031,0.119,3.143c0.018,1.111,0.028,2.252,0.028,3.426v2.278c-0.56-0.514-1.213-1.135-1.96-1.867
	c-0.748-0.733-1.538-1.509-2.371-2.33c-0.831-0.822-1.671-1.653-2.514-2.497c-0.845-0.843-1.637-1.633-2.38-2.372h-0.291
	c0.024,0.381,0.039,0.956,0.045,1.726c0.007,0.772,0.009,1.693,0.009,2.765c0,0.369-0.006,0.788-0.018,1.257
	C34.156,31.392,34.141,31.871,34.123,32.363z M48.309,31.721c0.015-0.45,0.047-0.872,0.096-1.263
	c-0.277,0.045-0.499,0.067-0.668,0.067c-0.168,0-0.391-0.022-0.668-0.067c0.049,0.392,0.081,0.813,0.097,1.263
	c0.015,0.451,0.022,0.881,0.022,1.291v1.42c0,0.409-0.008,0.84-0.022,1.292c-0.016,0.45-0.047,0.858-0.097,1.22
	c0.227-0.018,0.451-0.026,0.668-0.026c0.218,0,0.44,0.008,0.668,0.026c-0.049-0.362-0.081-0.77-0.096-1.22
	c-0.016-0.452-0.023-0.883-0.023-1.292v-1.42C48.285,32.602,48.293,32.172,48.309,31.721z M48.271,27.59
	c-0.148-0.135-0.328-0.205-0.535-0.205c-0.208,0-0.387,0.07-0.535,0.205c-0.149,0.135-0.223,0.301-0.223,0.492
	c0,0.191,0.074,0.355,0.223,0.492c0.148,0.137,0.327,0.205,0.535,0.205c0.207,0,0.387-0.068,0.535-0.205
	c0.148-0.138,0.223-0.301,0.223-0.492C48.494,27.891,48.42,27.726,48.271,27.59z M51.859,28.451c0.103-0.09,0.269-0.137,0.497-0.137
	c0.12,0,0.245,0.021,0.38,0.062c0.133,0.04,0.328,0.124,0.586,0.252c0.229,0.119,0.428,0.201,0.602,0.247
	c0.173,0.045,0.328,0.067,0.468,0.067c0.298,0,0.544-0.054,0.742-0.164c0.199-0.109,0.358-0.244,0.483-0.403
	c0.124-0.159,0.216-0.322,0.275-0.485c0.059-0.164,0.098-0.301,0.119-0.41H55.58c-0.059,0.183-0.158,0.342-0.297,0.478
	c-0.139,0.137-0.322,0.205-0.549,0.205c-0.129,0-0.255-0.021-0.38-0.061c-0.124-0.042-0.324-0.125-0.601-0.252
	c-0.278-0.119-0.486-0.202-0.625-0.246c-0.139-0.046-0.291-0.068-0.461-0.068c-0.237,0-0.445,0.043-0.624,0.131
	c-0.177,0.086-0.331,0.196-0.459,0.333c-0.13,0.136-0.232,0.288-0.305,0.451c-0.075,0.164-0.127,0.328-0.157,0.492h0.445
	C51.658,28.705,51.755,28.542,51.859,28.451z M50.656,35.723c-0.016,0.451-0.048,0.858-0.098,1.221
	c0.227-0.018,0.45-0.026,0.668-0.026c0.219,0,0.441,0.008,0.67,0.026c-0.051-0.363-0.083-0.77-0.098-1.221
	c-0.016-0.452-0.023-0.882-0.023-1.291v-1.161c0-0.711,0.162-1.26,0.484-1.653c0.322-0.391,0.83-0.587,1.523-0.587
	c0.504,0,0.9,0.176,1.188,0.526c0.288,0.351,0.432,0.866,0.432,1.55v0.833c0,0.527-0.014,1.043-0.037,1.543
	c-0.025,0.5-0.047,0.988-0.066,1.46c0.199-0.018,0.404-0.026,0.615-0.026c0.223,0,0.432,0.008,0.632,0.026
	c-0.011-0.126-0.019-0.26-0.022-0.403c-0.005-0.14-0.008-0.284-0.008-0.429v-0.888c0-0.464,0.01-0.903,0.03-1.318
	c0.02-0.413,0.028-0.816,0.028-1.208c0-0.474-0.07-0.863-0.213-1.168c-0.147-0.305-0.332-0.546-0.562-0.725
	c-0.229-0.176-0.483-0.301-0.768-0.375c-0.282-0.072-0.563-0.109-0.841-0.109c-0.537,0-0.999,0.108-1.387,0.321
	c-0.387,0.215-0.719,0.517-0.997,0.909h-0.032c0-0.364,0.018-0.729,0.046-1.093c-0.128,0.018-0.241,0.035-0.333,0.049
	c-0.096,0.013-0.183,0.019-0.262,0.019c-0.168,0-0.392-0.022-0.668-0.068c0.05,0.392,0.082,0.814,0.098,1.263
	c0.016,0.451,0.021,0.882,0.021,1.292v1.42C50.677,34.841,50.672,35.272,50.656,35.723z M64.738,32.144
	c0.215,0.433,0.32,0.958,0.32,1.577c0,0.62-0.105,1.146-0.32,1.577c-0.213,0.434-0.491,0.785-0.839,1.053
	c-0.347,0.269-0.732,0.458-1.157,0.566c-0.428,0.11-0.857,0.164-1.293,0.164c-0.428,0-0.855-0.054-1.285-0.164
	c-0.431-0.109-0.82-0.298-1.167-0.566c-0.347-0.268-0.626-0.619-0.839-1.053c-0.214-0.431-0.319-0.957-0.319-1.577
	c0-0.619,0.105-1.144,0.319-1.577c0.213-0.431,0.492-0.782,0.839-1.052c0.347-0.268,0.736-0.462,1.167-0.586
	c0.43-0.123,0.857-0.185,1.285-0.185c0.436,0,0.865,0.062,1.293,0.185c0.425,0.123,0.811,0.318,1.157,0.586
	C64.247,31.362,64.525,31.713,64.738,32.144z M63.752,33.721c0-0.382-0.037-0.75-0.113-1.105c-0.072-0.356-0.2-0.672-0.377-0.949
	c-0.18-0.278-0.416-0.498-0.715-0.664c-0.297-0.163-0.662-0.245-1.098-0.245c-0.436,0-0.803,0.082-1.1,0.245
	c-0.298,0.165-0.535,0.385-0.713,0.664c-0.18,0.277-0.305,0.593-0.381,0.949c-0.072,0.354-0.109,0.723-0.109,1.105
	c0,0.383,0.037,0.751,0.109,1.107c0.076,0.354,0.201,0.67,0.381,0.949c0.178,0.277,0.415,0.497,0.713,0.662
	c0.297,0.163,0.664,0.245,1.1,0.245c0.436,0,0.801-0.082,1.098-0.245c0.299-0.165,0.535-0.385,0.715-0.662
	c0.177-0.279,0.305-0.594,0.377-0.949C63.715,34.473,63.752,34.105,63.752,33.721z M37.549,45.378v0.829
	c0,1.212,0.03,2.909,0.123,3.791c-0.229-0.039-0.458-0.064-0.688-0.064c-0.228,0-0.457,0.025-0.686,0.064
	c0.091-0.882,0.122-2.579,0.122-3.791v-2.131c0-1.213-0.032-2.912-0.122-3.833c0.229,0.039,0.458,0.065,0.686,0.065
	c0.23,0,0.459-0.026,0.688-0.065c-0.076,0.462-0.123,0.871-0.123,1.292h0.03c0.306-0.555,1.039-1.423,2.582-1.423
	c1.556,0,3.115,0.975,3.115,3.238c0,2.238-1.696,3.317-3.299,3.317c-1.129,0-1.923-0.461-2.398-1.29H37.549z M37.549,43.443
	c0,1.804,0.779,2.737,2.229,2.737c1.467,0,2.154-1.249,2.154-2.843c0-2.106-1.116-2.673-2.107-2.673
	C38.175,40.665,37.549,41.928,37.549,43.443z M45.337,40.309c-0.213,0-0.411-0.026-0.64-0.065c0.06,1.132,0.06,2.041,0.06,2.725
	v0.421c0,1.476,0,2.501-0.06,3.147c0.229-0.04,0.427-0.066,0.64-0.066c0.199,0,0.412,0.026,0.612,0.066
	c-0.062-0.605-0.062-1.305-0.062-3.595c0-1.026,0.58-1.828,1.558-1.828c0.305,0,0.641,0.104,0.748,0.209l0.107-0.065
	c0-0.356,0-0.856,0.107-1.067c-0.199-0.067-0.307-0.079-0.489-0.079c-0.703,0-1.437,0.474-2.017,1.423l-0.03-0.016
	c0-0.329,0-0.644,0.077-1.276C45.749,40.282,45.537,40.309,45.337,40.309z M52.484,40.112c1.772,0,3.711,0.882,3.711,3.277
	c0,2.396-1.938,3.279-3.711,3.279c-1.771,0-3.71-0.883-3.71-3.279C48.774,40.994,50.713,40.112,52.484,40.112z M50.117,43.389
	c0,1.476,0.566,2.859,2.367,2.859c1.803,0,2.367-1.384,2.367-2.859c0-1.473-0.565-2.855-2.367-2.855
	C50.684,40.533,50.117,41.916,50.117,43.389z M57.646,40.916c-0.016,1.961-0.107,3.147-0.107,4.107c0,1.028,0.611,1.645,1.879,1.645
	c0.382,0,0.824-0.093,1.176-0.197v-0.315c-0.198,0.051-0.52,0.092-0.687,0.092c-1.207,0-1.237-1.001-1.237-1.99
	c0-1.143,0.076-3.21,0.107-3.342c0.365,0,1.084,0,1.618,0.025c-0.016-0.09-0.016-0.183-0.016-0.276c0-0.092,0-0.184,0.016-0.276
	c-0.703,0.028-1.405,0.041-1.618,0.041c0.03-0.645,0.061-1.291,0.121-1.95h-0.076l-1.268,0.461c0.031,0.565,0.046,1.132,0.062,1.476
	c-0.214,0-0.55-0.014-1.008-0.041c0.015,0.093,0.03,0.171,0.03,0.263c0,0.107-0.016,0.198-0.03,0.302
	C57.006,40.916,57.342,40.916,57.646,40.916z M62.105,43.311c-0.015,0.133-0.015,0.251-0.015,0.369c0,1.369,0.946,2.436,2.642,2.436
	c0.811,0,1.756-0.406,2.291-0.935l0.076,0.038l-0.092,0.646c-0.61,0.42-1.604,0.803-2.551,0.803c-2.197,0-3.71-1.342-3.71-3.093
	c0-2.134,1.252-3.463,3.497-3.463c2.138,0,3.162,1.225,3.162,2.686c0,0.171-0.017,0.343-0.031,0.513
	c-1.1-0.013-2.185-0.039-3.27-0.039C63.435,43.272,62.778,43.298,62.105,43.311z M62.137,42.811
	c0.626,0.013,1.344,0.041,1.986,0.041c0.671,0,1.389-0.027,2.029-0.041c0-0.934-0.289-2.277-1.878-2.277
	C62.778,40.533,62.213,41.863,62.137,42.811z M69.604,46.405v-0.026c-0.626-0.158-0.962-0.541-0.962-1.053
	c0-0.579,0.581-1.014,1.084-1.093v-0.026c-0.932-0.355-1.496-0.988-1.496-1.949c0-1.461,1.328-2.146,2.916-2.146
	c0.381,0,0.688,0.026,1.238,0.052c0.457,0.026,0.854,0.053,1.068,0.053c0.596,0,1.038-0.027,1.237-0.066
	c-0.017,0.093-0.031,0.184-0.031,0.276c0,0.092,0.015,0.185,0.031,0.277c-0.581-0.041-1.146-0.093-1.695-0.105l-0.03,0.026
	c0.625,0.29,1.053,1,1.053,1.658c0,1.317-1.115,2.106-2.841,2.106c-0.274,0-0.55-0.026-0.839-0.026
	c-0.366,0-0.748,0.264-0.748,0.606c0,0.461,0.213,0.658,0.9,0.67c0.565,0.016,1.115,0.027,1.68,0.041
	c1.863,0.037,2.61,0.75,2.61,1.686c0,1.211-1.052,2.672-3.618,2.672c-1.955,0-3.191-0.725-3.191-1.896
	C67.971,47.194,68.795,46.615,69.604,46.405z M71.146,44.047c1.16,0,1.682-0.881,1.682-1.855c0-1.078-0.673-1.697-1.666-1.697
	c-1.1,0-1.74,0.697-1.74,1.764C69.422,43.338,69.972,44.047,71.146,44.047z M68.948,47.998c0,1.199,0.976,1.658,2.245,1.658
	c1.236,0,2.458-0.541,2.458-1.725c0-1.026-0.687-1.461-2.306-1.461C69.85,46.471,68.948,46.879,68.948,47.998z M76.844,37.282
	c-0.428,0-0.779,0.302-0.779,0.67c0,0.369,0.352,0.672,0.779,0.672c0.428,0,0.779-0.304,0.779-0.672
	C77.623,37.584,77.271,37.282,76.844,37.282z M77.531,40.244c-0.229,0.039-0.459,0.065-0.688,0.065
	c-0.228,0-0.457-0.026-0.687-0.065c0.092,0.751,0.123,1.671,0.123,2.463v1.368c0,0.79-0.031,1.71-0.123,2.462
	c0.229-0.041,0.459-0.066,0.687-0.066c0.229,0,0.459,0.025,0.688,0.066c-0.092-0.752-0.122-1.672-0.122-2.462v-1.368
	C77.409,41.915,77.439,40.995,77.531,40.244z M84.861,41.429h0.031c0-1.661,0-3.728-0.061-4.86c0.242,0.026,0.473,0.067,0.686,0.067
	c0.215,0,0.428-0.041,0.688-0.067c-0.139,1.108-0.183,4.557-0.183,6.808c0,1.198,0.03,2.107,0.044,3.16
	c-0.227-0.026-0.412-0.066-0.594-0.066c-0.183,0-0.367,0.04-0.58,0.066l0.045-1.29h-0.031c-0.305,0.553-1.083,1.422-2.579,1.422
	c-1.543,0-3.101-0.974-3.101-3.239c0-2.239,1.695-3.318,3.283-3.318C83.64,40.111,84.434,40.572,84.861,41.429z M82.723,40.665
	c-1.465,0-2.152,1.25-2.152,2.844c0,2.106,1.115,2.672,2.107,2.672c1.588,0,2.275-1.487,2.275-2.923
	C84.953,41.6,84.174,40.665,82.723,40.665z M90.939,40.112c1.771,0,3.711,0.882,3.711,3.277c0,2.396-1.939,3.279-3.711,3.279
	c-1.771,0-3.711-0.883-3.711-3.279C87.228,40.994,89.168,40.112,90.939,40.112z M88.572,43.389c0,1.476,0.566,2.859,2.367,2.859
	c1.801,0,2.367-1.384,2.367-2.859c0-1.473-0.566-2.855-2.367-2.855C89.139,40.533,88.572,41.916,88.572,43.389z M20.992,43.475
	c-3.234-0.585-5.554,1.909-5.554,1.909c-0.648,0.793-1.162,2.113-0.247,3.215c1.271,1.527,3.389,0.981,5.271,0.552
	c1.881-0.426,1.967,0.285,3.174,0.933c1.611,0.863,3.147,0.077,3.147,0.077s1.905-0.477,1.973-1.115
	c0.159-1.509-2.412-0.75-2.412-0.75S24.224,44.06,20.992,43.475z M29.921,39.248c-1.626-2.254-5.76-0.374-5.76-0.374
	s0.999,1.672,1.179,3.3c0.167,1.526,0.108,1.637,0.099,1.645c0.004-0.002,1.272-0.946,2.266-0.657
	c0.996,0.286,1.371,1.497,1.371,1.497s2.875,0.857,3.695-0.152c0.646-0.797-1.919-1.663-1.919-1.663S31.547,41.502,29.921,39.248z
	 M6.078,43.164c-1.423-0.118-2.421-0.261-3.05-0.51c-0.868-0.121-1.829-0.455-2.312-0.824c-0.881-0.676-0.897-1.61-0.332-2.285
	c0.691-0.828,1.247-0.609,2.005-0.055c-0.044-0.216-0.043-0.401,0.072-0.459c0.343-0.173,0.915,0.304,1.151,0.667
	c0.145,0.22,0.329,0.418,0.367,0.599c0.399-0.013,0.909-0.038,1.575-0.1c3.491-0.326,4.793-2.777,4.793-2.777
	s0.117-0.284-0.031-0.961c-1.882,0.485-3.545,0.148-4.837-0.605c-0.073,0.31-0.271,0.537-0.684,0.581
	c-0.67,0.072-1.772-0.503-1.805-1.562c-0.015-0.462,0.271-0.544,0.703-0.59c-0.252-0.328-0.464-0.674-0.627-1.026
	c-0.873-1.887-1.053-4.487,1.107-6.398c-0.07-0.174-0.546-1.459,0.233-2.175c0.836-0.768,2.111-0.599,2.111-0.599
	s-1.298,0.433-1.363,0.964c-0.064,0.532,0.318,0.543,0.318,0.543s-0.033-0.562,0.707-0.831c0.857-0.311,1.327-0.1,1.327-0.1
	s-0.772,0.237-0.94,0.695c-0.01,0.029-0.012,0.06-0.017,0.089c0.586-0.271,3.543-1.401,7.022,1.538
	c0.052-0.384,0.238-0.696,0.692-0.743c0.671-0.072,1.368,0.488,1.444,1.091c0.076,0.605,0.121,1.143-0.55,1.215
	c-0.063,0.005-0.128,0.003-0.193,0c1.12,1.7,1.451,3.747,0.279,4.893c-0.17,0.167-0.342,0.327-0.511,0.481
	c0.223,0.204,0.496,0.301,0.868,0.224c0,0,4.66-1.373,4.701-4.395v-0.101c-0.15-0.103-0.958-0.673-0.797-0.912
	c0.094-0.138,0.312-0.169,0.546-0.144c-0.413-0.392-0.694-0.873-0.469-1.33c0.38-0.771,1.281-1.277,2.174-0.904
	c0.716,0.298,1.374,1.742,1.413,2.699c0.428,1.092,0.611,2.449,0.273,3.491c-0.719,2.219-3.187,3.334-3.187,3.334
	s0.464-0.036,1.54,0.512c0.755,0.384,1.237,1.039,1.237,1.039s-2.106,0.565-6.04,3.516c-2.975,2.232-4.793,4.535-4.793,4.535
	l-1.113-3.135C11.082,42.348,9.217,43.426,6.078,43.164z M10.129,28.524l0.433,0.647c0,0,0.375-0.517,0.909-0.719
	c0.323-0.122,1.143-0.146,1.143-0.146l-0.186-0.674c0,0-0.894-0.012-1.372,0.177C10.577,27.998,10.129,28.524,10.129,28.524z
	 M7.814,30.894l-0.669-0.529c0,0-0.566,0.291-1.103,0.809c-0.538,0.52-0.374,1.425-0.374,1.425l0.586,0.26
	c0,0,0.244-0.778,0.452-1.123C6.913,31.39,7.814,30.894,7.814,30.894z M11.694,33.051c1.966-1.161,1.329-3.032,1.329-3.032
	l-5.069,3.356C7.954,33.375,9.432,34.385,11.694,33.051z"/>
</svg>
