<?xml version="1.0" encoding="utf-8"?>
<!-- Generator: Adobe Illustrator 16.0.0, SVG Export Plug-In . SVG Version: 6.00 Build 0)  -->
<!DOCTYPE svg PUBLIC "-//W3C//DTD SVG 1.1//EN" "http://www.w3.org/Graphics/SVG/1.1/DTD/svg11.dtd">
<svg version="1.1" id="Layer_1" xmlns="http://www.w3.org/2000/svg" xmlns:xlink="http://www.w3.org/1999/xlink" x="0px" y="0px"
	 width="10px" height="16px" viewBox="0 0 10 16" enable-background="new 0 0 10 16" xml:space="preserve">
<path fill="#231F20" d="M8.939,6.6C9.71,7.065,9.957,8.066,9.493,8.836c-0.031,0.051-0.063,0.1-0.101,0.146
	C9.309,9.1,9.21,9.206,9.098,9.298l-6.221,6.22c-0.639,0.635-1.671,0.633-2.309-0.006c-0.638-0.633-0.641-1.664-0.009-2.303
	c0.001-0.001,0.003-0.004,0.005-0.006l5.177-5.177L0.538,2.824c-0.636-0.639-0.635-1.673,0.004-2.308
	C1.186-0.128,2.214-0.126,2.851,0.51L8.939,6.6L8.939,6.6z"/>
</svg>
