<svg width="20" height="22" viewBox="0 0 20 22" xmlns="http://www.w3.org/2000/svg" xmlns:xlink="http://www.w3.org/1999/xlink"><title>49F84808-645B-4B84-AF84-F729890623DA</title><defs><path id="a" d="M7.569 7.187V.005H.298v7.182z"/><path id="c" d="M18.186.003H0V17.97h18.186V.003z"/></defs><g fill="none" fill-rule="evenodd"><g transform="translate(12.429 14.81)"><mask id="b" fill="#fff"><use xlink:href="#a"/></mask><path d="M.543 1.785C.2 1.44.214.85.6.477L.772.304c.385-.373.971-.402 1.328-.057l5.229 5.16c.343.345.314.935-.057 1.309l-.172.172c-.386.374-.971.403-1.328.058L.543 1.785z" fill="#FFF" mask="url(#b)"/></g><g transform="translate(0 .435)"><mask id="d" fill="#fff"><use xlink:href="#c"/></mask><path d="M9.086.002c5.028 0 9.1 4.025 9.1 8.985 0 4.96-4.072 8.984-9.1 8.984C4.07 17.971 0 13.946 0 8.987 0 4.027 4.07.002 9.086.002m0 2.013c3.9 0 7.071 3.12 7.071 6.972 0 3.852-3.171 6.972-7.071 6.972s-7.058-3.12-7.058-6.972c0-3.853 3.158-6.972 7.058-6.972" fill="#FFF" mask="url(#d)"/></g></g></svg>