<?xml version="1.0" encoding="UTF-8" standalone="no"?>
<svg width="34px" height="30px" viewBox="0 0 34 30" version="1.1" xmlns="http://www.w3.org/2000/svg" xmlns:xlink="http://www.w3.org/1999/xlink">
    <!-- Generator: Sketch 41.2 (35397) - http://www.bohemiancoding.com/sketch -->
    <title>indicadores</title>
    <desc>Created with Sketch.</desc>
    <defs></defs>
    <g id="Page-1" stroke="none" stroke-width="1" fill="none" fill-rule="evenodd">
        <g id="CONTENIDOS-(ESPECIALIDADES-M)-PPTA1" transform="translate(-216.000000, -1721.000000)" fill="#FFFFFF">
            <g id="Group-14" transform="translate(198.000000, 1709.000000)">
                <g id="indicadores" transform="translate(18.000000, 12.000000)">
                    <path d="M31.3816525,26.2255094 L3.72552495,26.2255094 L3.72552495,1.86815094 C3.72552495,0.83645283 2.89151398,3.77358483e-05 1.86278129,3.77358483e-05 C0.833860465,3.77358483e-05 3.7627382e-05,0.83645283 3.7627382e-05,1.86815094 L3.7627382e-05,28.0217358 C3.7627382e-05,28.0343774 0.00173085968,28.0468302 0.0019189966,28.0594717 C0.00173085968,28.0707925 3.7627382e-05,28.0821132 3.7627382e-05,28.093434 C3.7627382e-05,29.1253208 0.929434021,29.9617358 2.07612856,29.9617358 L31.3816525,29.9617358 C32.528347,29.9617358 33.4577434,29.1253208 33.4577434,28.093434 C33.4577434,27.0619245 32.528347,26.2255094 31.3816525,26.2255094" id="Fill-1"></path>
                    <path d="M6.17837889,22.9533019 C6.49049804,23.2036792 6.86413797,23.3253774 7.23495584,23.3253774 C7.73163731,23.3253774 8.22399164,23.1070755 8.55831095,22.6880189 L15.1617288,14.4099057 L20.6773389,17.1168868 C21.3918829,17.4676415 22.2533619,17.2721698 22.7479739,16.6472642 L31.5601192,5.5104717 C32.1414622,4.77575472 32.0189851,3.70764151 31.2863799,3.12462264 C30.5539629,2.54141509 29.4887316,2.665 28.9075767,3.39915094 L20.9422357,13.4659434 L15.431329,10.7612264 C14.7188545,10.4117925 13.8603857,10.6046226 13.364833,11.2257547 L5.91385837,20.5665094 C5.32969323,21.2985849 5.44821949,22.3674528 6.17837889,22.9533019" id="Fill-4"></path>
                </g>
            </g>
        </g>
    </g>
</svg>