<svg width="43" height="100" viewBox="0 0 43 100" xmlns="http://www.w3.org/2000/svg" xmlns:xlink="http://www.w3.org/1999/xlink"><title>41B6BA0C-D83E-4483-9306-E923E276958E</title><defs><path id="a" d="M42.085 70.948H.003V.067h42.082v70.88z"/></defs><g fill="none" fill-rule="evenodd"><g transform="translate(0 28.907)"><mask id="b" fill="#fff"><use xlink:href="#a"/></mask><path d="M24.764.744a10.483 10.483 0 0 0-3.722-.677c-1.308 0-2.567.239-3.721.677-3.258.99-15.534 6.26-17.307 29.838a3.94 3.94 0 0 0 3.637 4.229c.101.01.2.016.3.016a3.947 3.947 0 0 0 3.928-3.653c.406-5.376 1.4-9.503 2.646-12.666v12.143c0 .827.095 1.635.275 2.407v33.289a4.604 4.604 0 1 0 9.21 0l-.001-25.224c.337.03.683.049 1.033.049.35 0 .697-.02 1.037-.05v25.225a4.604 4.604 0 0 0 4.605 4.601 4.599 4.599 0 0 0 4.598-4.601V33.055a10.37 10.37 0 0 0 .281-2.4v-12.15c1.246 3.166 2.237 7.293 2.643 12.67a3.952 3.952 0 0 0 3.93 3.652c.099 0 .197-.006.301-.016a3.94 3.94 0 0 0 3.637-4.229C40.301 6.993 28.014 1.732 24.764.744" fill="#B8CB3B" mask="url(#b)"/></g><path d="M20.447 26.938c7.44 0 13.47-6.03 13.47-13.47S27.888 0 20.448 0 6.977 6.027 6.977 13.467s6.03 13.47 13.47 13.47" fill="#B8CB3B"/></g></svg>