<svg width="58" height="100" viewBox="0 0 58 100" xmlns="http://www.w3.org/2000/svg" xmlns:xlink="http://www.w3.org/1999/xlink"><title>FB88F399-7D80-4B07-A1E0-6CDEB162B023</title><defs><path id="a" d="M42.484 70.948H.398V.067h42.086z"/></defs><g fill="none" fill-rule="evenodd"><g transform="translate(7.977 28.907)"><mask id="b" fill="#fff"><use xlink:href="#a"/></mask><path d="M25.163.744A10.483 10.483 0 0 0 21.44.067a10.47 10.47 0 0 0-3.722.677c-3.257.99-15.534 6.26-17.31 29.838a3.94 3.94 0 0 0 3.64 4.229c.099.01.2.016.301.016a3.95 3.95 0 0 0 3.928-3.653c.406-5.376 1.396-9.503 2.642-12.666V23.1c-.62 2.662-1.949 8.34-4.892 21.13-.258 1.121.772 2.158 2.116 2.158h3.054v19.959a4.602 4.602 0 0 0 4.605 4.601 4.602 4.602 0 0 0 4.601-4.601V46.388h2.074v19.959a4.602 4.602 0 0 0 9.203 0V46.388h2.982c1.35 0 2.371-1.037 2.116-2.158-2.839-12.35-4.176-18.121-4.817-20.937v-4.788c1.246 3.166 2.237 7.293 2.639 12.67a3.952 3.952 0 0 0 3.931 3.652c.101 0 .2-.006.3-.016a3.94 3.94 0 0 0 3.64-4.229C40.698 6.993 28.415 1.732 25.163.744" fill="#EC128D" mask="url(#b)"/></g><path d="M10.584 17.72a6.17 6.17 0 0 0 5.278-2.976c.703 6.655 6.328 11.842 13.17 11.842 6.838 0 12.466-5.187 13.166-11.842a6.18 6.18 0 0 0 5.282 2.976c3.417 0 6.034.31 8.385 5.795 4.389-8.71-2.98-18.174-8.385-18.174A6.18 6.18 0 0 0 41.675 9.4C39.997 4.014 34.971.102 29.032.102c-5.94 0-10.962 3.912-12.643 9.298a6.177 6.177 0 0 0-5.805-4.059c-5.406 0-12.77 9.468-8.382 18.174 2.348-5.485 4.964-5.795 8.382-5.795" fill="#EC128D"/></g></svg>