<svg width="28" height="32" viewBox="0 0 28 32" xmlns="http://www.w3.org/2000/svg"><title>E4D3332F-DB78-485B-B92A-29E654C7B599</title><path d="M27.384 27.11c1.135-1.3.426-2.933.047-3.808l-.142-.355c-.473-1.206-6.527-3.24-7.024-3.287l-.402.024c-.851.142-2.507 1.915-4.493 3.547-2.129-1.088-4.14-2.743-5.51-4.375-1.443-1.774-2.366-3.595-2.98-5.77 2.293-1.869 4.043-3.383 4.138-4.305.047-.52-.757-6.835-1.845-7.52l-.307-.214C8.18.574 7.116-.159 5.957.031a2.62 2.62 0 0 0-.851.307C4.3.811 1.487 2.798.54 4.5-.05 5.588-1.54 14.457 5.65 23.184c6.101 7.426 13.054 8.16 15.75 8.065.19.638 5.464-3.548 5.984-4.14z" fill="#FFF" fill-rule="evenodd"/></svg>